<?xml version="1.0" encoding="UTF-8"?>
<!-- Generator: visioncortex VTracer 0.6.4 -->
<svg version="1.1" xmlns="http://www.w3.org/2000/svg" width="1024" height="312">
<path d="M0 0 C18.15 0 36.3 0 55 0 C57.912107 5.824214 60.66518411 11.34803157 63.11328125 17.3203125 C63.37255905 17.94984833 63.63183685 18.57938416 63.89897156 19.22799683 C64.70702482 21.19223208 65.50986966 23.15854356 66.3125 25.125 C66.86749086 26.47670531 67.42282716 27.82826883 67.97851562 29.1796875 C69.32298786 32.45150379 70.6628064 35.72520106 72 39 C72.03758423 37.28115601 72.03758423 37.28115601 72.07592773 35.52758789 C72.16983106 31.29146402 72.27009275 27.05551072 72.37231445 22.81958008 C72.4157282 20.98335753 72.45739839 19.14709292 72.49731445 17.31079102 C72.55486169 14.67711689 72.61859998 12.04365579 72.68359375 9.41015625 C72.70030624 8.58411392 72.71701874 7.75807159 72.73423767 6.90699768 C72.88612829 1.11387171 72.88612829 1.11387171 74 0 C76.34253782 -0.09492722 78.65546104 -0.12559791 80.99829102 -0.11352539 C82.09578674 -0.11374443 82.09578674 -0.11374443 83.2154541 -0.1139679 C85.64496784 -0.11326867 88.07440583 -0.10547585 90.50390625 -0.09765625 C92.18399514 -0.0957921 93.86408457 -0.09436819 95.54417419 -0.09336853 C99.97473643 -0.08954307 104.4052661 -0.07971256 108.83581543 -0.06866455 C114.14715654 -0.05665655 119.45850852 -0.05204832 124.76985931 -0.04621124 C132.84659556 -0.03650081 140.92326027 -0.01734447 149 0 C149 15.51 149 31.02 149 47 C144.38 47 139.76 47 135 47 C135 99.47 135 151.94 135 206 C121.14 206 107.28 206 93 206 C86.25 192.5 86.25 192.5 84.0078125 187.140625 C83.5761377 186.11485352 83.14446289 185.08908203 82.69970703 184.03222656 C82.18005371 182.7840918 81.66040039 181.53595703 81.125 180.25 C79.43375 176.2075 77.7425 172.165 76 168 C75.67 180.54 75.34 193.08 75 206 C50.25 206 25.5 206 0 206 C0 190.49 0 174.98 0 159 C4.62 159 9.24 159 14 159 C14 122.04 14 85.08 14 47 C9.38 47 4.76 47 0 47 C0 31.49 0 15.98 0 0 Z M75 47 C77.23811399 54.00406547 79.87005265 60.77276643 82.6875 67.5625 C83.10322266 68.57119141 83.51894531 69.57988281 83.94726562 70.61914062 C84.96215979 73.0805506 85.97978253 75.54079283 87 78 C87.33 78 87.66 78 88 78 C88 67.77 88 57.54 88 47 C83.71 47 79.42 47 75 47 Z M61 132 C61 140.91 61 149.82 61 159 C64.96 159 68.92 159 73 159 C71.37888129 155.06086099 69.75329632 151.12367086 68.125 147.1875 C67.66480469 146.06794922 67.20460938 144.94839844 66.73046875 143.79492188 C66.06337891 142.18520508 66.06337891 142.18520508 65.3828125 140.54296875 C64.97434082 139.55321045 64.56586914 138.56345215 64.14501953 137.54370117 C63.01123037 134.83887032 63.01123037 134.83887032 61 132 Z " fill="#532872" transform="translate(280,9)"/>
<path d="M0 0 C0.97484848 0.00222061 1.94969696 0.00444122 2.9540863 0.00672913 C4.05515213 0.00680466 5.15621796 0.00688019 6.29064941 0.00695801 C8.08749428 0.01469994 8.08749428 0.01469994 9.92063904 0.02259827 C11.14000656 0.02401321 12.35937408 0.02542816 13.61569214 0.02688599 C17.52856349 0.03250485 21.4413786 0.04506055 25.35423279 0.05775452 C27.99941426 0.06276709 30.64459662 0.06733041 33.28977966 0.07142639 C39.79045005 0.08248041 46.2910874 0.09923688 52.79173279 0.12025452 C57.04334952 9.11810211 60.95119947 18.2003743 64.66673279 27.43275452 C67.20360779 33.71306702 67.20360779 33.71306702 69.79173279 40.12025452 C70.12173279 26.92025452 70.45173279 13.72025452 70.79173279 0.12025452 C95.54173279 0.12025452 120.29173279 0.12025452 145.79173279 0.12025452 C145.79173279 15.63025452 145.79173279 31.14025452 145.79173279 47.12025452 C141.17173279 47.12025452 136.55173279 47.12025452 131.79173279 47.12025452 C131.79173279 99.59025452 131.79173279 152.06025452 131.79173279 206.12025452 C117.93173279 206.12025452 104.07173279 206.12025452 89.79173279 206.12025452 C84.51173279 193.58025452 79.23173279 181.04025452 73.79173279 168.12025452 C73.46173279 180.66025452 73.13173279 193.20025452 72.79173279 206.12025452 C47.71173279 206.12025452 22.63173279 206.12025452 -3.20826721 206.12025452 C-3.22889221 198.55087952 -3.24951721 190.98150452 -3.27076721 183.18275452 C-3.27987122 180.79033508 -3.28897522 178.39791565 -3.2983551 175.93299866 C-3.30127413 174.04880327 -3.30382272 172.16460725 -3.30592346 170.28041077 C-3.31103943 169.29230408 -3.3161554 168.30419739 -3.32142639 167.28614807 C-3.32154724 166.35234314 -3.32166809 165.41853821 -3.3217926 164.45643616 C-3.32401321 163.64147171 -3.32623383 162.82650726 -3.32852173 161.98684692 C-3.20826721 160.12025452 -3.20826721 160.12025452 -2.20826721 159.12025452 C2.41173279 159.12025452 7.03173279 159.12025452 11.79173279 159.12025452 C11.79173279 122.16025452 11.79173279 85.20025452 11.79173279 47.12025452 C6.84173279 47.12025452 1.89173279 47.12025452 -3.20826721 47.12025452 C-3.23291068 40.58746112 -3.25110013 34.05469454 -3.26319885 27.52186584 C-3.26824038 25.2975772 -3.27507344 23.07329189 -3.28370667 20.84901428 C-3.2957802 17.65947143 -3.30149717 14.46997223 -3.30592346 11.28041077 C-3.31108475 10.2793782 -3.31624603 9.27834564 -3.32156372 8.24697876 C-3.32163925 7.3260997 -3.32171478 6.40522064 -3.3217926 5.45643616 C-3.32401321 4.64147171 -3.32623383 3.82650726 -3.32852173 2.98684692 C-3.15106186 0.2323122 -2.75315814 0.14992737 0 0 Z M72.79173279 47.12025452 C75.43331125 57.19127239 79.66319149 66.5892388 83.79173279 76.12025452 C84.12173279 76.12025452 84.45173279 76.12025452 84.79173279 76.12025452 C84.79173279 66.55025452 84.79173279 56.98025452 84.79173279 47.12025452 C80.83173279 47.12025452 76.87173279 47.12025452 72.79173279 47.12025452 Z M58.79173279 133.12025452 C58.79173279 141.70025452 58.79173279 150.28025452 58.79173279 159.12025452 C62.42173279 159.12025452 66.05173279 159.12025452 69.79173279 159.12025452 C67.04065407 150.21970572 63.38874916 141.70381961 59.79173279 133.12025452 C59.46173279 133.12025452 59.13173279 133.12025452 58.79173279 133.12025452 Z " fill="#552971" transform="translate(719.2082672119141,8.879745483398438)"/>
<path d="M0 0 C1.6874269 0.00015917 3.37485866 0.00585622 5.06225586 0.01586914 C6.39189613 0.01799156 6.39189613 0.01799156 7.74839783 0.02015686 C10.59133215 0.02577324 13.43418892 0.03832848 16.27709961 0.05102539 C18.19962452 0.05603828 20.12215065 0.06060155 22.04467773 0.06469727 C26.7680151 0.07574798 31.49129419 0.09302356 36.21459961 0.11352539 C38.61812876 7.06929614 40.62176689 14.07568899 42.50756836 21.18774414 C42.8172908 22.34683792 43.12701324 23.5059317 43.44612122 24.70014954 C44.43404602 28.39975395 45.41814625 32.10036299 46.40209961 35.80102539 C47.04312169 38.20408794 47.68439586 40.60708326 48.32592773 43.01000977 C49.96034882 49.13436811 51.59146082 55.25960282 53.22183228 61.38504028 C54.87105129 67.57892713 56.52347498 73.77195889 58.17553711 79.96508789 C60.58439493 88.99657306 62.99120204 98.02860082 65.39552307 107.06129456 C66.62231429 111.67015054 67.8497279 116.27884071 69.07729435 120.88749027 C69.96623343 124.22499656 70.85479654 127.56260222 71.74267578 130.90039062 C72.79349238 134.85061457 73.84580179 138.80043949 74.89819336 142.75024414 C75.37777748 144.55449104 75.37777748 144.55449104 75.86705017 146.39518738 C76.16148514 147.49937515 76.4559201 148.60356293 76.75927734 149.74121094 C77.01716537 150.70995651 77.27505341 151.67870209 77.54075623 152.67680359 C78.04615302 154.50439649 78.61497291 156.31464531 79.21459961 158.11352539 C80.35799805 158.17411133 81.50139648 158.23469727 82.67944336 158.29711914 C84.17034266 158.38150967 85.66122736 158.46615841 87.15209961 158.55102539 C87.9068457 158.5903418 88.6615918 158.6296582 89.43920898 158.67016602 C95.10131836 159.00024414 95.10131836 159.00024414 96.21459961 160.11352539 C96.30755776 161.55642326 96.33206474 163.00382324 96.328125 164.44970703 C96.32800415 165.38351196 96.3278833 166.31731689 96.32775879 167.27941895 C96.32264282 168.26752563 96.31752686 169.25563232 96.31225586 170.27368164 C96.31124878 171.1769519 96.3102417 172.08022217 96.3092041 173.01086426 C96.30395473 176.39926414 96.28999359 179.78764598 96.27709961 183.17602539 C96.25647461 190.74540039 96.23584961 198.31477539 96.21459961 206.11352539 C70.80459961 206.11352539 45.39459961 206.11352539 19.21459961 206.11352539 C19.21459961 191.59352539 19.21459961 177.07352539 19.21459961 162.11352539 C17.56459961 162.11352539 15.91459961 162.11352539 14.21459961 162.11352539 C14.21459961 176.63352539 14.21459961 191.15352539 14.21459961 206.11352539 C-10.86540039 206.11352539 -35.94540039 206.11352539 -61.78540039 206.11352539 C-61.80602539 198.54415039 -61.82665039 190.97477539 -61.84790039 183.17602539 C-61.85700439 180.78360596 -61.8661084 178.39118652 -61.87548828 175.92626953 C-61.87840731 174.04207414 -61.8809559 172.15787812 -61.88305664 170.27368164 C-61.88817261 169.28557495 -61.89328857 168.29746826 -61.89855957 167.27941895 C-61.89868042 166.34561401 -61.89880127 165.41180908 -61.89892578 164.44970703 C-61.90114639 163.63474258 -61.903367 162.81977814 -61.90565491 161.9801178 C-61.78540039 160.11352539 -61.78540039 160.11352539 -60.78540039 159.11352539 C-58.43226484 159.04080798 -56.07706371 159.02981671 -53.72290039 159.05102539 C-52.43254883 159.06004883 -51.14219727 159.06907227 -49.81274414 159.07836914 C-48.31420898 159.09577148 -48.31420898 159.09577148 -46.78540039 159.11352539 C-46.58946289 158.2227832 -46.39352539 157.33204102 -46.19165039 156.41430664 C-44.14791938 147.34133146 -41.78623075 138.37810418 -39.28149414 129.42211914 C-36.02292811 117.68746017 -32.849741 105.93185719 -29.72680664 94.16040039 C-29.50861141 93.338207 -29.29041618 92.5160136 -29.06560898 91.66890526 C-27.49107794 85.7342978 -25.91929161 79.79896484 -24.34790039 73.86352539 C-14.15613113 35.37386156 -14.15613113 35.37386156 -9.28483391 17.39716339 C-8.88950597 15.93691243 -8.49529065 14.47635975 -8.10223579 13.0154953 C-7.56497796 11.02023238 -7.02339301 9.02619801 -6.48046875 7.0324707 C-6.02358925 5.34604462 -6.02358925 5.34604462 -5.55747986 3.62554932 C-4.3498305 -0.30363701 -4.41924149 0.13253449 0 0 Z M16.21459961 99.11352539 C13.96037628 104.74908372 12.42306251 110.16416956 11.21459961 116.11352539 C14.51459961 116.11352539 17.81459961 116.11352539 21.21459961 116.11352539 C19.89459961 110.50352539 18.57459961 104.89352539 17.21459961 99.11352539 C16.88459961 99.11352539 16.55459961 99.11352539 16.21459961 99.11352539 Z " fill="#542872" transform="translate(181.785400390625,8.886474609375)"/>
<path d="M0 0 C1.6874269 0.00015917 3.37485866 0.00585622 5.06225586 0.01586914 C6.39189613 0.01799156 6.39189613 0.01799156 7.74839783 0.02015686 C10.59133215 0.02577324 13.43418892 0.03832848 16.27709961 0.05102539 C18.19962452 0.05603828 20.12215065 0.06060155 22.04467773 0.06469727 C26.7680151 0.07574798 31.49129419 0.09302356 36.21459961 0.11352539 C38.51271012 6.71655523 40.43576042 13.37645189 42.22631836 20.13305664 C42.65421661 21.73411003 42.65421661 21.73411003 43.09075928 23.36750793 C44.03050542 26.88631726 44.96631321 30.40616115 45.90209961 33.92602539 C46.56404237 36.40769963 47.22623782 38.88930647 47.88867188 41.37084961 C49.28340384 46.59764249 50.67651548 51.82486264 52.06811523 57.05249023 C54.02585707 64.40670205 55.98711569 71.75997224 57.94945335 79.11295891 C60.16149896 87.40169316 62.373031 95.69056417 64.58251953 103.97998047 C64.89437698 105.14980972 65.20623444 106.31963898 65.52754211 107.5249176 C66.1443172 109.84004046 66.76044806 112.15533505 67.37590027 114.47080994 C68.86885975 120.08431681 70.36965487 125.69547853 71.89186382 131.30111885 C72.64435823 134.07390391 73.39317311 136.84767685 74.14171028 139.62153244 C74.50224537 140.95347137 74.86457315 142.28492648 75.22878838 143.6158638 C75.73386449 145.46199928 76.23231252 147.30994424 76.73046875 149.15795898 C77.01749161 150.21324799 77.30451447 151.26853699 77.60023499 152.35580444 C78.21459961 155.11352539 78.21459961 155.11352539 78.21459961 159.11352539 C83.82459961 159.11352539 89.43459961 159.11352539 95.21459961 159.11352539 C95.21459961 174.62352539 95.21459961 190.13352539 95.21459961 206.11352539 C70.13459961 206.11352539 45.05459961 206.11352539 19.21459961 206.11352539 C19.21459961 191.59352539 19.21459961 177.07352539 19.21459961 162.11352539 C17.56459961 162.11352539 15.91459961 162.11352539 14.21459961 162.11352539 C14.21459961 176.63352539 14.21459961 191.15352539 14.21459961 206.11352539 C-10.86540039 206.11352539 -35.94540039 206.11352539 -61.78540039 206.11352539 C-61.80602539 198.54415039 -61.82665039 190.97477539 -61.84790039 183.17602539 C-61.85700439 180.78360596 -61.8661084 178.39118652 -61.87548828 175.92626953 C-61.87840731 174.04207414 -61.8809559 172.15787812 -61.88305664 170.27368164 C-61.88817261 169.28557495 -61.89328857 168.29746826 -61.89855957 167.27941895 C-61.89868042 166.34561401 -61.89880127 165.41180908 -61.89892578 164.44970703 C-61.90114639 163.63474258 -61.903367 162.81977814 -61.90565491 161.9801178 C-61.78540039 160.11352539 -61.78540039 160.11352539 -60.78540039 159.11352539 C-58.43552777 158.87824766 -56.07984 158.69966122 -53.72290039 158.55102539 C-52.43254883 158.46723633 -51.14219727 158.38344727 -49.81274414 158.29711914 C-48.8137207 158.2365332 -47.81469727 158.17594727 -46.78540039 158.11352539 C-46.31251587 156.32688477 -46.31251587 156.32688477 -45.83007812 154.50415039 C-37.82236548 124.25669259 -29.76570277 94.02260662 -21.65284729 63.80317688 C-19.68476378 56.47094607 -17.72197456 49.13731954 -15.76274109 41.80271912 C-14.45958316 36.92633194 -13.15365345 32.05068982 -11.84713745 27.17520142 C-11.22545376 24.85290548 -10.60493915 22.53029624 -9.98562622 20.20736694 C-9.13294096 17.00987697 -8.27609579 13.81353035 -7.41821289 10.61743164 C-7.1647963 9.6630722 -6.9113797 8.70871277 -6.65028381 7.72543335 C-6.41788498 6.86293976 -6.18548615 6.00044617 -5.94604492 5.11181641 C-5.74480011 4.35917007 -5.5435553 3.60652374 -5.33621216 2.83106995 C-4.27992584 -0.46264839 -3.81847614 0.11451734 0 0 Z M15.21459961 100.11352539 C13.89459961 105.39352539 12.57459961 110.67352539 11.21459961 116.11352539 C14.18459961 116.11352539 17.15459961 116.11352539 20.21459961 116.11352539 C19.62444776 110.60544142 18.64796192 105.4647447 17.21459961 100.11352539 C16.55459961 100.11352539 15.89459961 100.11352539 15.21459961 100.11352539 Z " fill="#542872" transform="translate(928.785400390625,8.886474609375)"/>
<path d="M0 0 C13.53 0 27.06 0 41 0 C46.17406687 17.8078321 50.97017936 35.70736646 55.72877502 53.62930298 C56.82297892 57.74925153 57.9188533 61.86875569 59.01464844 65.98828125 C59.4605727 67.66470299 59.90649555 69.34112511 60.35241699 71.01754761 C60.57386887 71.85006924 60.79532074 72.68259087 61.02348328 73.54034042 C61.695592 76.06745718 62.36740638 78.59465205 63.03918457 81.12185669 C65.77515988 91.41208607 68.52388519 101.69881452 71.28476334 111.98238945 C72.41036867 116.1760893 73.53411192 120.37028864 74.65799522 124.56445026 C75.53804082 127.84777755 76.41947074 131.13072132 77.30389404 134.41287231 C78.27362348 138.01395079 79.23887597 141.61620088 80.203125 145.21875 C80.6328511 146.80700844 80.6328511 146.80700844 81.07125854 148.42735291 C81.45605881 149.87000267 81.45605881 149.87000267 81.84863281 151.34179688 C82.072547 152.17481323 82.29646118 153.00782959 82.52716064 153.86608887 C83 156 83 156 83 159 C84.82337891 158.98259766 84.82337891 158.98259766 86.68359375 158.96484375 C88.26822764 158.95546722 89.85286318 158.94636687 91.4375 158.9375 C92.23994141 158.92912109 93.04238281 158.92074219 93.86914062 158.91210938 C95.91295221 158.9034857 97.95683902 158.9477185 100 159 C101 160 101 160 101.12025452 161.86659241 C101.11803391 162.68155685 101.11581329 163.4965213 101.11352539 164.33618164 C101.11340454 165.26998657 101.11328369 166.2037915 101.11315918 167.16589355 C101.10804321 168.15400024 101.10292725 169.14210693 101.09765625 170.16015625 C101.09664917 171.06342651 101.09564209 171.96669678 101.09460449 172.89733887 C101.08935512 176.28573874 101.07539398 179.67412059 101.0625 183.0625 C101.041875 190.631875 101.02125 198.20125 101 206 C75.59 206 50.18 206 24 206 C24 191.48 24 176.96 24 162 C22.02 162 20.04 162 18 162 C18 176.52 18 191.04 18 206 C-6.75 206 -31.5 206 -57 206 C-57.020625 198.430625 -57.04125 190.86125 -57.0625 183.0625 C-57.071604 180.67008057 -57.08070801 178.27766113 -57.09008789 175.81274414 C-57.09300692 173.92854875 -57.09555551 172.04435273 -57.09765625 170.16015625 C-57.10277222 169.17204956 -57.10788818 168.18394287 -57.11315918 167.16589355 C-57.11328003 166.23208862 -57.11340088 165.29828369 -57.11352539 164.33618164 C-57.115746 163.52121719 -57.11796661 162.70625275 -57.12025452 161.86659241 C-57 160 -57 160 -56 159 C-53.64686445 158.92728259 -51.29166332 158.91629132 -48.9375 158.9375 C-47.64714844 158.94652344 -46.35679687 158.95554688 -45.02734375 158.96484375 C-43.52880859 158.98224609 -43.52880859 158.98224609 -42 159 C-41.88263489 158.38244843 -41.76526978 157.76489685 -41.64434814 157.12863159 C-40.52251272 151.35659412 -39.20744753 145.68256506 -37.671875 140.0078125 C-37.44672211 139.16563675 -37.22156921 138.323461 -36.98959351 137.45576477 C-36.24611287 134.67801531 -35.49809797 131.90150916 -34.75 129.125 C-34.21573287 127.13296097 -33.681722 125.14085319 -33.14794922 123.14868164 C-31.72590096 117.84498115 -30.29970491 112.54240542 -28.87219238 107.24017334 C-28.01147124 104.04261537 -27.15158283 100.8448347 -26.29199219 97.64697266 C-23.11227752 85.81834752 -19.92760324 73.99106486 -16.73959351 62.16467285 C-13.51474536 50.20126074 -10.29393657 38.23676179 -7.07318115 26.27224731 C-5.57236032 20.69708676 -4.07132969 15.12198269 -2.5703125 9.546875 C-1.72210937 6.39640625 -0.87390625 3.2459375 0 0 Z M20 99 C18.68 104.61 17.36 110.22 16 116 C18.97 116 21.94 116 25 116 C24.35729017 110.0870696 22.80996216 104.65755469 21 99 C20.67 99 20.34 99 20 99 Z " fill="#542972" transform="translate(614,9)"/>
<path d="M0 0 C4.33971206 0.11983929 8.65648026 0.06261233 12.99582863 -0.04192162 C42.06271519 -0.62933857 42.06271519 -0.62933857 52.90403748 9.37840271 C55.89533465 12.6033096 58.63857661 15.90327839 61.16221619 19.50645447 C62.54025705 21.57560934 62.54025705 21.57560934 64.30830383 23.03526306 C66.13320856 25.11916489 66.00552338 26.44910326 65.9934082 29.19165039 C65.9964093 30.12917145 65.9994104 31.0666925 66.00250244 32.03262329 C65.98398224 33.54679337 65.98398224 33.54679337 65.96508789 35.09155273 C65.96321472 36.12815033 65.96134155 37.16474792 65.95941162 38.23275757 C65.95268853 40.42335223 65.93876898 42.61393483 65.91821289 44.80444336 C65.88702217 48.17109229 65.87723934 51.53727357 65.87133789 54.90405273 C65.86216967 57.02905849 65.85179448 59.15405945 65.84008789 61.27905273 C65.83583801 62.29254791 65.83158813 63.30604309 65.82720947 64.35025024 C65.81760193 65.28146698 65.80799438 66.21268372 65.7980957 67.17211914 C65.7912677 67.99579987 65.7844397 68.81948059 65.77740479 69.66812134 C65.63696289 71.55249023 65.63696289 71.55249023 64.63696289 72.55249023 C63.23021069 72.65053874 61.81861153 72.6804721 60.40844727 72.68188477 C59.06200134 72.68661301 59.06200134 72.68661301 57.68835449 72.69143677 C56.71233276 72.68941254 55.73631104 72.68738831 54.73071289 72.68530273 C53.23815979 72.68673782 53.23815979 72.68673782 51.7154541 72.6882019 C49.60709571 72.68888383 47.49873524 72.68702867 45.39038086 72.68286133 C42.15091262 72.67751326 38.91158304 72.68280591 35.67211914 72.68920898 C33.62915008 72.68854821 31.58618111 72.68726705 29.54321289 72.68530273 C28.0791803 72.68833908 28.0791803 72.68833908 26.58557129 72.69143677 C25.68794067 72.68828461 24.79031006 72.68513245 23.86547852 72.68188477 C23.07129517 72.68108917 22.27711182 72.68029358 21.4588623 72.67947388 C19.63696289 72.55249023 19.63696289 72.55249023 18.63696289 71.55249023 C18.54995947 69.91776142 18.52995227 68.27934968 18.53930664 66.64233398 C18.5418042 65.75151123 18.54430176 64.86068848 18.546875 63.94287109 C18.555979 62.80342041 18.56508301 61.66396973 18.57446289 60.48999023 C18.59508789 56.88061523 18.61571289 53.27124023 18.63696289 49.55249023 C10.05696289 49.55249023 1.47696289 49.55249023 -7.36303711 49.55249023 C-7.36303711 59.45249023 -7.36303711 69.35249023 -7.36303711 79.55249023 C-3.93670898 79.29725586 -0.51038086 79.04202148 3.01977539 78.77905273 C6.41873595 78.60643463 9.81717142 78.47349188 13.21801758 78.34399414 C15.54355705 78.23473416 17.86763571 78.08561349 20.18774414 77.89282227 C32.74762569 76.87694949 42.92972263 77.66208843 53.25602722 85.4664917 C62.92142457 94.15187379 66.98062403 102.59922262 67.86724854 115.58358765 C68.20007336 123.47529118 67.92319709 131.3332454 67.55560303 139.21820068 C67.41304949 142.85696366 67.38081343 146.49316789 67.35175037 150.1343441 C67.31078474 154.51189823 67.20403033 158.88716266 67.09399414 163.26342773 C67.07931406 164.0835371 67.06463398 164.90364647 67.04950905 165.74860764 C66.71859926 180.24583146 66.71859926 180.24583146 62.56420898 184.98730469 C61.25684249 186.1775869 59.94767904 187.36589761 58.63696289 188.55249023 C57.33157673 190.22333067 56.04864213 191.91187416 54.78466797 193.61425781 C46.87052443 203.36522279 39.43463998 209.72184437 26.73239136 211.0451355 C20.79072518 211.4826979 14.86417871 211.4797525 8.91162109 211.32470703 C5.84912515 211.24686078 2.81458144 211.26730981 -0.24658203 211.38623047 C-15.36534978 211.97321243 -28.96597852 211.69559862 -40.88589478 201.37191772 C-49.30881469 193.47455564 -55.13165491 185.14122674 -55.60913086 173.24389648 C-55.58315192 169.13950136 -55.19339481 165.22782795 -54.80053711 161.11499023 C-54.32616211 153.99936523 -53.85178711 146.88374023 -53.36303711 139.55249023 C-38.18303711 139.55249023 -23.00303711 139.55249023 -7.36303711 139.55249023 C-7.36303711 146.81249023 -7.36303711 154.07249023 -7.36303711 161.55249023 C1.21696289 161.55249023 9.79696289 161.55249023 18.63696289 161.55249023 C18.63696289 149.67249023 18.63696289 137.79249023 18.63696289 125.55249023 C15.11524414 125.78452148 11.59352539 126.01655273 7.96508789 126.25561523 C4.48335645 126.41240782 1.00204404 126.53335035 -2.48120117 126.65112305 C-4.86846012 126.75061892 -7.25453497 126.88630762 -9.63745117 127.0612793 C-21.61266202 127.9173709 -32.23315746 127.71703379 -42.25653076 120.42120361 C-52.44984461 111.38150475 -55.06453484 101.90912884 -55.90288544 88.79853058 C-56.18274056 82.42184346 -56.12673687 76.0601054 -55.97045898 69.6809082 C-55.85633426 64.98701922 -55.92423423 60.31571716 -56.03891659 55.62259769 C-56.74098718 22.19726369 -56.74098718 22.19726369 -45.61694336 10.11108398 C-33.0621719 -1.21545757 -15.90897201 -0.43970549 0 0 Z " fill="#532872" transform="translate(53.363037109375,6.447509765625)"/>
<path d="M0 0 C47.85 0 95.7 0 145 0 C145 27.72 145 55.44 145 84 C129.82 84 114.64 84 99 84 C99 71.79 99 59.58 99 47 C98.01 47 97.02 47 96 47 C96 83.96 96 120.92 96 159 C100.29 159 104.58 159 109 159 C110 160 110 160 110.12025452 161.86659241 C110.11803391 162.68155685 110.11581329 163.4965213 110.11352539 164.33618164 C110.11340454 165.26998657 110.11328369 166.2037915 110.11315918 167.16589355 C110.10804321 168.15400024 110.10292725 169.14210693 110.09765625 170.16015625 C110.09664917 171.06342651 110.09564209 171.96669678 110.09460449 172.89733887 C110.08935512 176.28573874 110.07539398 179.67412059 110.0625 183.0625 C110.041875 190.631875 110.02125 198.20125 110 206 C85.25 206 60.5 206 35 206 C35 190.49 35 174.98 35 159 C39.62 159 44.24 159 49 159 C49 122.04 49 85.08 49 47 C47.68 47 46.36 47 45 47 C45 59.21 45 71.42 45 84 C30.15 84 15.3 84 0 84 C0 56.28 0 28.56 0 0 Z " fill="#532872" transform="translate(431,9)"/>
<path d="M0 0 C18.15 0 36.3 0 55 0 C57.912107 5.824214 60.66518411 11.34803157 63.11328125 17.3203125 C63.37255905 17.94984833 63.63183685 18.57938416 63.89897156 19.22799683 C64.70702482 21.19223208 65.50986966 23.15854356 66.3125 25.125 C66.86749086 26.47670531 67.42282716 27.82826883 67.97851562 29.1796875 C69.32298786 32.45150379 70.6628064 35.72520106 72 39 C72.03758423 37.28115601 72.03758423 37.28115601 72.07592773 35.52758789 C72.16983106 31.29146402 72.27009275 27.05551072 72.37231445 22.81958008 C72.4157282 20.98335753 72.45739839 19.14709292 72.49731445 17.31079102 C72.55486169 14.67711689 72.61859998 12.04365579 72.68359375 9.41015625 C72.70030624 8.58411392 72.71701874 7.75807159 72.73423767 6.90699768 C72.88612829 1.11387171 72.88612829 1.11387171 74 0 C76.34253782 -0.09492722 78.65546104 -0.12559791 80.99829102 -0.11352539 C82.09578674 -0.11374443 82.09578674 -0.11374443 83.2154541 -0.1139679 C85.64496784 -0.11326867 88.07440583 -0.10547585 90.50390625 -0.09765625 C92.18399514 -0.0957921 93.86408457 -0.09436819 95.54417419 -0.09336853 C99.97473643 -0.08954307 104.4052661 -0.07971256 108.83581543 -0.06866455 C114.14715654 -0.05665655 119.45850852 -0.05204832 124.76985931 -0.04621124 C132.84659556 -0.03650081 140.92326027 -0.01734447 149 0 C149 15.51 149 31.02 149 47 C144.38 47 139.76 47 135 47 C135 99.47 135 151.94 135 206 C121.14 206 107.28 206 93 206 C86.25 192.5 86.25 192.5 84.0078125 187.140625 C83.5761377 186.11485352 83.14446289 185.08908203 82.69970703 184.03222656 C82.18005371 182.7840918 81.66040039 181.53595703 81.125 180.25 C79.43375 176.2075 77.7425 172.165 76 168 C75.67 180.54 75.34 193.08 75 206 C50.25 206 25.5 206 0 206 C0 190.49 0 174.98 0 159 C4.62 159 9.24 159 14 159 C14 122.04 14 85.08 14 47 C9.38 47 4.76 47 0 47 C0 31.49 0 15.98 0 0 Z M7 8 C7 18.23 7 28.46 7 39 C11.95 39 16.9 39 22 39 C22 81.24 22 123.48 22 167 C17.38 167 12.76 167 8 167 C8 177.23 8 187.46 8 198 C27.47 198 46.94 198 67 198 C67 187.77 67 177.54 67 167 C62.38 167 57.76 167 53 167 C53.33 143.24 53.66 119.48 54 95 C58.29 105.23 62.58 115.46 67 126 C69.63767451 132.17771135 72.27590257 138.35442153 74.93341064 144.52349854 C82.73440051 162.6365265 90.40223898 180.80071197 98 199 C107.57 199 117.14 199 127 199 C127 146.2 127 93.4 127 39 C131.62 39 136.24 39 141 39 C141 28.77 141 18.54 141 8 C121.53 8 102.06 8 82 8 C82 18.23 82 28.46 82 39 C86.62 39 91.24 39 96 39 C95.67 64.41 95.34 89.82 95 116 C93.02 110.72 91.04 105.44 89 100 C87.68947561 96.75262347 86.36967706 93.51997628 85.00390625 90.296875 C84.65329132 89.46211136 84.30267639 88.62734772 83.94143677 87.76728821 C82.81786426 85.09369657 81.6901841 82.42185964 80.5625 79.75 C79.77088488 77.86790659 78.97963078 75.98566129 78.1887207 74.10327148 C76.98043236 71.22756818 75.77195556 68.35194624 74.56236267 65.47679138 C70.58193026 56.01456858 66.63191975 46.53977922 62.6875 37.0625 C62.07823581 35.5992716 61.46894308 34.13605508 60.85961914 32.67285156 C60.57088425 31.97934601 60.28214935 31.28584045 59.98466492 30.57131958 C59.42952212 29.2382616 58.8741223 27.90531062 58.31843567 26.57247925 C57.0418415 23.50938967 55.77151523 20.44395299 54.51025391 17.37451172 C54.05956543 16.28025879 53.60887695 15.18600586 53.14453125 14.05859375 C52.75241455 13.10138428 52.36029785 12.1441748 51.95629883 11.15795898 C51.18267626 9.0626801 51.18267626 9.0626801 50 8 C48.64905018 7.90731001 47.29332909 7.88252674 45.93920898 7.88647461 C45.07839218 7.88655014 44.21757538 7.88662567 43.33067322 7.88670349 C41.92755638 7.89444542 41.92755638 7.89444542 40.49609375 7.90234375 C39.06657127 7.90446617 39.06657127 7.90446617 37.60816956 7.90663147 C34.55124835 7.91224848 31.49439923 7.92480384 28.4375 7.9375 C26.37044376 7.94251281 24.30338638 7.94707609 22.23632812 7.95117188 C17.15750167 7.96137442 12.07883194 7.98094644 7 8 Z M75 47 C77.23811399 54.00406547 79.87005265 60.77276643 82.6875 67.5625 C83.10322266 68.57119141 83.51894531 69.57988281 83.94726562 70.61914062 C84.96215979 73.0805506 85.97978253 75.54079283 87 78 C87.33 78 87.66 78 88 78 C88 67.77 88 57.54 88 47 C83.71 47 79.42 47 75 47 Z M61 132 C61 140.91 61 149.82 61 159 C64.96 159 68.92 159 73 159 C71.37888129 155.06086099 69.75329632 151.12367086 68.125 147.1875 C67.66480469 146.06794922 67.20460938 144.94839844 66.73046875 143.79492188 C66.06337891 142.18520508 66.06337891 142.18520508 65.3828125 140.54296875 C64.97434082 139.55321045 64.56586914 138.56345215 64.14501953 137.54370117 C63.01123037 134.83887032 63.01123037 134.83887032 61 132 Z " fill="#F7B028" transform="translate(280,9)"/>
<path d="M0 0 C0.97484848 0.00222061 1.94969696 0.00444122 2.9540863 0.00672913 C4.05515213 0.00680466 5.15621796 0.00688019 6.29064941 0.00695801 C8.08749428 0.01469994 8.08749428 0.01469994 9.92063904 0.02259827 C11.14000656 0.02401321 12.35937408 0.02542816 13.61569214 0.02688599 C17.52856349 0.03250485 21.4413786 0.04506055 25.35423279 0.05775452 C27.99941426 0.06276709 30.64459662 0.06733041 33.28977966 0.07142639 C39.79045005 0.08248041 46.2910874 0.09923688 52.79173279 0.12025452 C57.04334952 9.11810211 60.95119947 18.2003743 64.66673279 27.43275452 C67.20360779 33.71306702 67.20360779 33.71306702 69.79173279 40.12025452 C70.12173279 26.92025452 70.45173279 13.72025452 70.79173279 0.12025452 C95.54173279 0.12025452 120.29173279 0.12025452 145.79173279 0.12025452 C145.79173279 15.63025452 145.79173279 31.14025452 145.79173279 47.12025452 C141.17173279 47.12025452 136.55173279 47.12025452 131.79173279 47.12025452 C131.79173279 99.59025452 131.79173279 152.06025452 131.79173279 206.12025452 C117.93173279 206.12025452 104.07173279 206.12025452 89.79173279 206.12025452 C84.51173279 193.58025452 79.23173279 181.04025452 73.79173279 168.12025452 C73.46173279 180.66025452 73.13173279 193.20025452 72.79173279 206.12025452 C47.71173279 206.12025452 22.63173279 206.12025452 -3.20826721 206.12025452 C-3.22889221 198.55087952 -3.24951721 190.98150452 -3.27076721 183.18275452 C-3.27987122 180.79033508 -3.28897522 178.39791565 -3.2983551 175.93299866 C-3.30127413 174.04880327 -3.30382272 172.16460725 -3.30592346 170.28041077 C-3.31103943 169.29230408 -3.3161554 168.30419739 -3.32142639 167.28614807 C-3.32154724 166.35234314 -3.32166809 165.41853821 -3.3217926 164.45643616 C-3.32401321 163.64147171 -3.32623383 162.82650726 -3.32852173 161.98684692 C-3.20826721 160.12025452 -3.20826721 160.12025452 -2.20826721 159.12025452 C2.41173279 159.12025452 7.03173279 159.12025452 11.79173279 159.12025452 C11.79173279 122.16025452 11.79173279 85.20025452 11.79173279 47.12025452 C6.84173279 47.12025452 1.89173279 47.12025452 -3.20826721 47.12025452 C-3.23291068 40.58746112 -3.25110013 34.05469454 -3.26319885 27.52186584 C-3.26824038 25.2975772 -3.27507344 23.07329189 -3.28370667 20.84901428 C-3.2957802 17.65947143 -3.30149717 14.46997223 -3.30592346 11.28041077 C-3.31108475 10.2793782 -3.31624603 9.27834564 -3.32156372 8.24697876 C-3.32163925 7.3260997 -3.32171478 6.40522064 -3.3217926 5.45643616 C-3.32401321 4.64147171 -3.32623383 3.82650726 -3.32852173 2.98684692 C-3.15106186 0.2323122 -2.75315814 0.14992737 0 0 Z M4.79173279 8.12025452 C4.79173279 18.68025452 4.79173279 29.24025452 4.79173279 40.12025452 C9.41173279 40.12025452 14.03173279 40.12025452 18.79173279 40.12025452 C18.79173279 82.03025452 18.79173279 123.94025452 18.79173279 167.12025452 C14.17173279 167.12025452 9.55173279 167.12025452 4.79173279 167.12025452 C4.79173279 177.68025452 4.79173279 188.24025452 4.79173279 199.12025452 C24.59173279 199.12025452 44.39173279 199.12025452 64.79173279 199.12025452 C64.79173279 188.56025452 64.79173279 178.00025452 64.79173279 167.12025452 C60.17173279 167.12025452 55.55173279 167.12025452 50.79173279 167.12025452 C51.12173279 143.69025452 51.45173279 120.26025452 51.79173279 96.12025452 C59.46496795 114.1174788 67.13543583 132.11582737 74.79173279 150.12025452 C75.28409424 151.2780542 75.77645569 152.43585388 76.28373718 153.6287384 C79.00129227 160.0208602 81.7151288 166.41453844 84.42341614 172.81059265 C85.25037469 174.76250387 86.07835274 176.71398348 86.90736389 178.6650238 C88.05654236 181.37026815 89.20198996 184.07706127 90.34642029 186.78431702 C90.68387772 187.5766423 91.02133514 188.36896759 91.36901855 189.18530273 C91.67593124 189.9135878 91.98284393 190.64187286 92.29905701 191.39222717 C92.56499664 192.01988983 92.83093628 192.64755249 93.10493469 193.29423523 C93.79173279 195.12025452 93.79173279 195.12025452 94.79173279 199.12025452 C104.69173279 199.12025452 114.59173279 199.12025452 124.79173279 199.12025452 C124.79173279 146.32025452 124.79173279 93.52025452 124.79173279 39.12025452 C129.41173279 39.12025452 134.03173279 39.12025452 138.79173279 39.12025452 C138.79173279 28.89025452 138.79173279 18.66025452 138.79173279 8.12025452 C118.99173279 8.12025452 99.19173279 8.12025452 78.79173279 8.12025452 C78.79173279 18.35025452 78.79173279 28.58025452 78.79173279 39.12025452 C83.41173279 39.12025452 88.03173279 39.12025452 92.79173279 39.12025452 C92.46173279 63.54025452 92.13173279 87.96025452 91.79173279 113.12025452 C88.20298279 104.45775452 88.20298279 104.45775452 84.54173279 95.62025452 C78.19132987 80.30350494 71.83563433 64.98894421 65.46568298 49.68031311 C64.60962201 47.62242007 63.75405986 45.56431945 62.89903259 43.5059967 C61.68501312 40.58384813 60.46905823 37.66251159 59.25267029 34.74134827 C58.90523773 33.90401657 58.55780518 33.06668488 58.19984436 32.20397949 C54.83237357 24.12767235 51.30104434 16.14153807 47.79173279 8.12025452 C33.60173279 8.12025452 19.41173279 8.12025452 4.79173279 8.12025452 Z M72.79173279 47.12025452 C75.43331125 57.19127239 79.66319149 66.5892388 83.79173279 76.12025452 C84.12173279 76.12025452 84.45173279 76.12025452 84.79173279 76.12025452 C84.79173279 66.55025452 84.79173279 56.98025452 84.79173279 47.12025452 C80.83173279 47.12025452 76.87173279 47.12025452 72.79173279 47.12025452 Z M58.79173279 133.12025452 C58.79173279 141.70025452 58.79173279 150.28025452 58.79173279 159.12025452 C62.42173279 159.12025452 66.05173279 159.12025452 69.79173279 159.12025452 C67.04065407 150.21970572 63.38874916 141.70381961 59.79173279 133.12025452 C59.46173279 133.12025452 59.13173279 133.12025452 58.79173279 133.12025452 Z " fill="#FAB226" transform="translate(719.2082672119141,8.879745483398438)"/>
<path d="M0 0 C4.33971206 0.11983929 8.65648026 0.06261233 12.99582863 -0.04192162 C42.06271519 -0.62933857 42.06271519 -0.62933857 52.90403748 9.37840271 C55.89533465 12.6033096 58.63857661 15.90327839 61.16221619 19.50645447 C62.54025705 21.57560934 62.54025705 21.57560934 64.30830383 23.03526306 C66.13320856 25.11916489 66.00552338 26.44910326 65.9934082 29.19165039 C65.9964093 30.12917145 65.9994104 31.0666925 66.00250244 32.03262329 C65.98398224 33.54679337 65.98398224 33.54679337 65.96508789 35.09155273 C65.96321472 36.12815033 65.96134155 37.16474792 65.95941162 38.23275757 C65.95268853 40.42335223 65.93876898 42.61393483 65.91821289 44.80444336 C65.88702217 48.17109229 65.87723934 51.53727357 65.87133789 54.90405273 C65.86216967 57.02905849 65.85179448 59.15405945 65.84008789 61.27905273 C65.83583801 62.29254791 65.83158813 63.30604309 65.82720947 64.35025024 C65.81760193 65.28146698 65.80799438 66.21268372 65.7980957 67.17211914 C65.7912677 67.99579987 65.7844397 68.81948059 65.77740479 69.66812134 C65.63696289 71.55249023 65.63696289 71.55249023 64.63696289 72.55249023 C63.23021069 72.65053874 61.81861153 72.6804721 60.40844727 72.68188477 C59.06200134 72.68661301 59.06200134 72.68661301 57.68835449 72.69143677 C56.71233276 72.68941254 55.73631104 72.68738831 54.73071289 72.68530273 C53.23815979 72.68673782 53.23815979 72.68673782 51.7154541 72.6882019 C49.60709571 72.68888383 47.49873524 72.68702867 45.39038086 72.68286133 C42.15091262 72.67751326 38.91158304 72.68280591 35.67211914 72.68920898 C33.62915008 72.68854821 31.58618111 72.68726705 29.54321289 72.68530273 C28.0791803 72.68833908 28.0791803 72.68833908 26.58557129 72.69143677 C25.68794067 72.68828461 24.79031006 72.68513245 23.86547852 72.68188477 C23.07129517 72.68108917 22.27711182 72.68029358 21.4588623 72.67947388 C19.63696289 72.55249023 19.63696289 72.55249023 18.63696289 71.55249023 C18.54995947 69.91776142 18.52995227 68.27934968 18.53930664 66.64233398 C18.5418042 65.75151123 18.54430176 64.86068848 18.546875 63.94287109 C18.555979 62.80342041 18.56508301 61.66396973 18.57446289 60.48999023 C18.59508789 56.88061523 18.61571289 53.27124023 18.63696289 49.55249023 C10.05696289 49.55249023 1.47696289 49.55249023 -7.36303711 49.55249023 C-7.36303711 59.45249023 -7.36303711 69.35249023 -7.36303711 79.55249023 C-3.93670898 79.29725586 -0.51038086 79.04202148 3.01977539 78.77905273 C6.41873595 78.60643463 9.81717142 78.47349188 13.21801758 78.34399414 C15.54355705 78.23473416 17.86763571 78.08561349 20.18774414 77.89282227 C32.74762569 76.87694949 42.92972263 77.66208843 53.25602722 85.4664917 C62.92142457 94.15187379 66.98062403 102.59922262 67.86724854 115.58358765 C68.20007336 123.47529118 67.92319709 131.3332454 67.55560303 139.21820068 C67.41304949 142.85696366 67.38081343 146.49316789 67.35175037 150.1343441 C67.31078474 154.51189823 67.20403033 158.88716266 67.09399414 163.26342773 C67.07931406 164.0835371 67.06463398 164.90364647 67.04950905 165.74860764 C66.71859926 180.24583146 66.71859926 180.24583146 62.56420898 184.98730469 C61.25684249 186.1775869 59.94767904 187.36589761 58.63696289 188.55249023 C57.33157673 190.22333067 56.04864213 191.91187416 54.78466797 193.61425781 C46.87052443 203.36522279 39.43463998 209.72184437 26.73239136 211.0451355 C20.79072518 211.4826979 14.86417871 211.4797525 8.91162109 211.32470703 C5.84912515 211.24686078 2.81458144 211.26730981 -0.24658203 211.38623047 C-15.36534978 211.97321243 -28.96597852 211.69559862 -40.88589478 201.37191772 C-49.30881469 193.47455564 -55.13165491 185.14122674 -55.60913086 173.24389648 C-55.58315192 169.13950136 -55.19339481 165.22782795 -54.80053711 161.11499023 C-54.32616211 153.99936523 -53.85178711 146.88374023 -53.36303711 139.55249023 C-38.18303711 139.55249023 -23.00303711 139.55249023 -7.36303711 139.55249023 C-7.36303711 146.81249023 -7.36303711 154.07249023 -7.36303711 161.55249023 C1.21696289 161.55249023 9.79696289 161.55249023 18.63696289 161.55249023 C18.63696289 149.67249023 18.63696289 137.79249023 18.63696289 125.55249023 C15.11524414 125.78452148 11.59352539 126.01655273 7.96508789 126.25561523 C4.48335645 126.41240782 1.00204404 126.53335035 -2.48120117 126.65112305 C-4.86846012 126.75061892 -7.25453497 126.88630762 -9.63745117 127.0612793 C-21.61266202 127.9173709 -32.23315746 127.71703379 -42.25653076 120.42120361 C-52.44984461 111.38150475 -55.06453484 101.90912884 -55.90288544 88.79853058 C-56.18274056 82.42184346 -56.12673687 76.0601054 -55.97045898 69.6809082 C-55.85633426 64.98701922 -55.92423423 60.31571716 -56.03891659 55.62259769 C-56.74098718 22.19726369 -56.74098718 22.19726369 -45.61694336 10.11108398 C-33.0621719 -1.21545757 -15.90897201 -0.43970549 0 0 Z M-43.90356445 20.75219727 C-49.63840521 32.08103392 -48.75783991 46.07265541 -48.50390625 58.44189453 C-48.41829741 62.64792483 -48.48292648 66.83650692 -48.58577824 71.04157162 C-49.29048754 92.7249292 -49.29048754 92.7249292 -39.55053711 111.30249023 C-28.54321227 121.10455962 -14.05786677 119.40015233 -0.30053711 118.61499023 C2.31965787 118.52954733 4.94012317 118.45201058 7.56079102 118.38256836 C13.93176952 118.21135964 20.2646108 117.8793323 26.63696289 117.55249023 C26.63696289 134.71249023 26.63696289 151.87249023 26.63696289 169.55249023 C12.77696289 169.55249023 -1.08303711 169.55249023 -15.36303711 169.55249023 C-15.36303711 161.96249023 -15.36303711 154.37249023 -15.36303711 146.55249023 C-25.59303711 146.55249023 -35.82303711 146.55249023 -46.36303711 146.55249023 C-46.8085017 151.21293557 -47.18096757 155.79726644 -47.40673828 160.46240234 C-47.50072148 162.03267179 -47.62922952 163.60135426 -47.79638672 165.16552734 C-48.80334971 174.85170072 -47.18666016 181.75894184 -41.10289001 189.52983093 C-33.30937409 198.14148497 -25.8766361 202.08287819 -14.2063427 202.7888279 C-8.66437633 202.99747375 -3.15039191 202.83762167 2.38824463 202.61486816 C5.23154774 202.53135456 8.06840897 202.56813884 10.91232204 202.60300159 C27.71896555 203.1759437 27.71896555 203.1759437 42.20059204 195.98669434 C44.64382223 193.32285864 46.62671904 190.5618305 48.63696289 187.55249023 C50.01076724 185.97058678 51.40125581 184.4025983 52.82446289 182.86499023 C53.33364258 182.26299805 53.84282227 181.66100586 54.36743164 181.04077148 C55.63696289 179.55249023 55.63696289 179.55249023 57.63696289 177.55249023 C58.04978424 174.51856844 58.04978424 174.51856844 58.13378906 170.89404297 C58.16138809 170.20904724 58.18898712 169.52405151 58.21742249 168.81829834 C58.45667834 162.45331966 58.58382027 156.08354548 58.68203259 149.71498013 C58.74794959 145.44461611 58.84630977 141.18115302 59.02929688 136.9140625 C60.50414018 115.40667447 60.50414018 115.40667447 52.9487915 95.9675293 C45.48398456 88.0741052 37.34097637 86.21756218 26.72680664 85.89233398 C21.66342157 85.93426562 16.62885294 86.2015247 11.57446289 86.48999023 C8.95426791 86.57543314 6.33380262 86.65296989 3.71313477 86.72241211 C-2.65784374 86.89362083 -8.99068502 87.22564817 -15.36303711 87.55249023 C-15.36303711 72.37249023 -15.36303711 57.19249023 -15.36303711 41.55249023 C-1.50303711 41.55249023 12.35696289 41.55249023 26.63696289 41.55249023 C26.63696289 48.81249023 26.63696289 56.07249023 26.63696289 63.55249023 C36.53696289 63.55249023 46.43696289 63.55249023 56.63696289 63.55249023 C57.0098043 58.560558 57.32518676 53.61821601 57.51586914 48.62329102 C57.5953279 46.93639439 57.70377704 45.2505628 57.84399414 43.56762695 C58.56825469 34.63685532 57.99987514 27.06952964 52.64929199 19.59436035 C45.94770428 11.88345756 38.52389996 9.45276976 28.61499023 8.64904785 C22.39991292 8.28551886 16.19589995 8.32455727 9.97436523 8.46655273 C5.94123891 8.55783267 1.92493347 8.50346907 -2.10762119 8.41187954 C-25.72739313 7.67129925 -25.72739313 7.67129925 -43.90356445 20.75219727 Z " fill="#F6AF28" transform="translate(53.363037109375,6.447509765625)"/>
<path d="M0 0 C47.85 0 95.7 0 145 0 C145 27.72 145 55.44 145 84 C129.82 84 114.64 84 99 84 C99 71.79 99 59.58 99 47 C98.01 47 97.02 47 96 47 C96 83.96 96 120.92 96 159 C100.29 159 104.58 159 109 159 C110 160 110 160 110.12025452 161.86659241 C110.11803391 162.68155685 110.11581329 163.4965213 110.11352539 164.33618164 C110.11340454 165.26998657 110.11328369 166.2037915 110.11315918 167.16589355 C110.10804321 168.15400024 110.10292725 169.14210693 110.09765625 170.16015625 C110.09664917 171.06342651 110.09564209 171.96669678 110.09460449 172.89733887 C110.08935512 176.28573874 110.07539398 179.67412059 110.0625 183.0625 C110.041875 190.631875 110.02125 198.20125 110 206 C85.25 206 60.5 206 35 206 C35 190.49 35 174.98 35 159 C39.62 159 44.24 159 49 159 C49 122.04 49 85.08 49 47 C47.68 47 46.36 47 45 47 C45 59.21 45 71.42 45 84 C30.15 84 15.3 84 0 84 C0 56.28 0 28.56 0 0 Z M7 8 C7 30.44 7 52.88 7 76 C16.9 76 26.8 76 37 76 C37 63.79 37 51.58 37 39 C43.6 39 50.2 39 57 39 C57 81.57 57 124.14 57 168 C52.38 168 47.76 168 43 168 C43 177.9 43 187.8 43 198 C62.47 198 81.94 198 102 198 C102 187.77 102 177.54 102 167 C97.38 167 92.76 167 88 167 C88 124.76 88 82.52 88 39 C94.27 39 100.54 39 107 39 C107 51.21 107 63.42 107 76 C116.9 76 126.8 76 137 76 C137 53.56 137 31.12 137 8 C94.1 8 51.2 8 7 8 Z " fill="#F7B028" transform="translate(431,9)"/>
<path d="M0 0 C1.6874269 0.00015917 3.37485866 0.00585622 5.06225586 0.01586914 C6.39189613 0.01799156 6.39189613 0.01799156 7.74839783 0.02015686 C10.59133215 0.02577324 13.43418892 0.03832848 16.27709961 0.05102539 C18.19962452 0.05603828 20.12215065 0.06060155 22.04467773 0.06469727 C26.7680151 0.07574798 31.49129419 0.09302356 36.21459961 0.11352539 C38.61812876 7.06929614 40.62176689 14.07568899 42.50756836 21.18774414 C42.8172908 22.34683792 43.12701324 23.5059317 43.44612122 24.70014954 C44.43404602 28.39975395 45.41814625 32.10036299 46.40209961 35.80102539 C47.04312169 38.20408794 47.68439586 40.60708326 48.32592773 43.01000977 C49.96034882 49.13436811 51.59146082 55.25960282 53.22183228 61.38504028 C54.87105129 67.57892713 56.52347498 73.77195889 58.17553711 79.96508789 C60.58439493 88.99657306 62.99120204 98.02860082 65.39552307 107.06129456 C66.62231429 111.67015054 67.8497279 116.27884071 69.07729435 120.88749027 C69.96623343 124.22499656 70.85479654 127.56260222 71.74267578 130.90039062 C72.79349238 134.85061457 73.84580179 138.80043949 74.89819336 142.75024414 C75.37777748 144.55449104 75.37777748 144.55449104 75.86705017 146.39518738 C76.16148514 147.49937515 76.4559201 148.60356293 76.75927734 149.74121094 C77.01716537 150.70995651 77.27505341 151.67870209 77.54075623 152.67680359 C78.04615302 154.50439649 78.61497291 156.31464531 79.21459961 158.11352539 C80.35799805 158.17411133 81.50139648 158.23469727 82.67944336 158.29711914 C84.17034266 158.38150967 85.66122736 158.46615841 87.15209961 158.55102539 C87.9068457 158.5903418 88.6615918 158.6296582 89.43920898 158.67016602 C95.10131836 159.00024414 95.10131836 159.00024414 96.21459961 160.11352539 C96.30755776 161.55642326 96.33206474 163.00382324 96.328125 164.44970703 C96.32800415 165.38351196 96.3278833 166.31731689 96.32775879 167.27941895 C96.32264282 168.26752563 96.31752686 169.25563232 96.31225586 170.27368164 C96.31124878 171.1769519 96.3102417 172.08022217 96.3092041 173.01086426 C96.30395473 176.39926414 96.28999359 179.78764598 96.27709961 183.17602539 C96.25647461 190.74540039 96.23584961 198.31477539 96.21459961 206.11352539 C70.80459961 206.11352539 45.39459961 206.11352539 19.21459961 206.11352539 C19.21459961 191.59352539 19.21459961 177.07352539 19.21459961 162.11352539 C17.56459961 162.11352539 15.91459961 162.11352539 14.21459961 162.11352539 C14.21459961 176.63352539 14.21459961 191.15352539 14.21459961 206.11352539 C-10.86540039 206.11352539 -35.94540039 206.11352539 -61.78540039 206.11352539 C-61.80602539 198.54415039 -61.82665039 190.97477539 -61.84790039 183.17602539 C-61.85700439 180.78360596 -61.8661084 178.39118652 -61.87548828 175.92626953 C-61.87840731 174.04207414 -61.8809559 172.15787812 -61.88305664 170.27368164 C-61.88817261 169.28557495 -61.89328857 168.29746826 -61.89855957 167.27941895 C-61.89868042 166.34561401 -61.89880127 165.41180908 -61.89892578 164.44970703 C-61.90114639 163.63474258 -61.903367 162.81977814 -61.90565491 161.9801178 C-61.78540039 160.11352539 -61.78540039 160.11352539 -60.78540039 159.11352539 C-58.43226484 159.04080798 -56.07706371 159.02981671 -53.72290039 159.05102539 C-52.43254883 159.06004883 -51.14219727 159.06907227 -49.81274414 159.07836914 C-48.31420898 159.09577148 -48.31420898 159.09577148 -46.78540039 159.11352539 C-46.58946289 158.2227832 -46.39352539 157.33204102 -46.19165039 156.41430664 C-44.14791938 147.34133146 -41.78623075 138.37810418 -39.28149414 129.42211914 C-36.02292811 117.68746017 -32.849741 105.93185719 -29.72680664 94.16040039 C-29.50861141 93.338207 -29.29041618 92.5160136 -29.06560898 91.66890526 C-27.49107794 85.7342978 -25.91929161 79.79896484 -24.34790039 73.86352539 C-14.15613113 35.37386156 -14.15613113 35.37386156 -9.28483391 17.39716339 C-8.88950597 15.93691243 -8.49529065 14.47635975 -8.10223579 13.0154953 C-7.56497796 11.02023238 -7.02339301 9.02619801 -6.48046875 7.0324707 C-6.02358925 5.34604462 -6.02358925 5.34604462 -5.55747986 3.62554932 C-4.3498305 -0.30363701 -4.41924149 0.13253449 0 0 Z M1.21459961 8.11352539 C0.16272461 12.41383789 0.16272461 12.41383789 -0.91040039 16.80102539 C-2.97099803 25.12211213 -5.24105286 33.36772227 -7.62158203 41.60229492 C-10.22468523 50.6070354 -12.68915289 59.63961723 -14.92993164 68.74243164 C-17.2853909 78.31107053 -19.80252123 87.80118367 -22.55664062 97.26318359 C-24.24964906 103.12134987 -25.78431226 109.0006519 -27.22290039 114.92602539 C-29.30236839 123.48347528 -31.74474996 131.90896365 -34.25415039 140.34912109 C-36.76536908 148.86823604 -38.8878489 157.43900427 -40.78540039 166.11352539 C-45.07540039 166.44352539 -49.36540039 166.77352539 -53.78540039 167.11352539 C-53.78540039 177.34352539 -53.78540039 187.57352539 -53.78540039 198.11352539 C-33.98540039 198.11352539 -14.18540039 198.11352539 6.21459961 198.11352539 C6.21459961 187.88352539 6.21459961 177.65352539 6.21459961 167.11352539 C0.93459961 167.11352539 -4.34540039 167.11352539 -9.78540039 167.11352539 C-9.12540039 163.15352539 -8.46540039 159.19352539 -7.78540039 155.11352539 C15.47959961 155.60852539 15.47959961 155.60852539 39.21459961 156.11352539 C40.20459961 159.74352539 41.19459961 163.37352539 42.21459961 167.11352539 C37.26459961 167.11352539 32.31459961 167.11352539 27.21459961 167.11352539 C27.21459961 177.34352539 27.21459961 187.57352539 27.21459961 198.11352539 C47.34459961 198.11352539 67.47459961 198.11352539 88.21459961 198.11352539 C88.21459961 187.88352539 88.21459961 177.65352539 88.21459961 167.11352539 C82.93459961 167.11352539 77.65459961 167.11352539 72.21459961 167.11352539 C72.09987305 165.80641602 71.98514648 164.49930664 71.86694336 163.15258789 C71.33293119 158.39367873 70.18476399 154.05300045 68.77709961 149.48852539 C65.63839251 138.93393098 62.9193089 128.28524028 60.21459961 117.61352539 C57.38299679 106.45600661 54.50999138 95.33035742 51.26147461 84.28540039 C49.11431561 76.92894085 47.29074087 69.50195014 45.46582031 62.06005859 C43.61919809 54.58609494 41.56454423 47.19152628 39.40307617 39.80322266 C37.354946 32.75178374 35.55313238 25.65244991 33.86279297 18.50708008 C33.58060913 17.33580566 33.58060913 17.33580566 33.29272461 16.14086914 C33.05150879 15.1159436 33.05150879 15.1159436 32.80541992 14.0703125 C32.15151099 11.70469168 32.15151099 11.70469168 30.21459961 8.11352539 C20.64459961 8.11352539 11.07459961 8.11352539 1.21459961 8.11352539 Z " fill="#F8B027" transform="translate(181.785400390625,8.886474609375)"/>
<path d="M0 0 C1.6874269 0.00015917 3.37485866 0.00585622 5.06225586 0.01586914 C6.39189613 0.01799156 6.39189613 0.01799156 7.74839783 0.02015686 C10.59133215 0.02577324 13.43418892 0.03832848 16.27709961 0.05102539 C18.19962452 0.05603828 20.12215065 0.06060155 22.04467773 0.06469727 C26.7680151 0.07574798 31.49129419 0.09302356 36.21459961 0.11352539 C38.51271012 6.71655523 40.43576042 13.37645189 42.22631836 20.13305664 C42.65421661 21.73411003 42.65421661 21.73411003 43.09075928 23.36750793 C44.03050542 26.88631726 44.96631321 30.40616115 45.90209961 33.92602539 C46.56404237 36.40769963 47.22623782 38.88930647 47.88867188 41.37084961 C49.28340384 46.59764249 50.67651548 51.82486264 52.06811523 57.05249023 C54.02585707 64.40670205 55.98711569 71.75997224 57.94945335 79.11295891 C60.16149896 87.40169316 62.373031 95.69056417 64.58251953 103.97998047 C64.89437698 105.14980972 65.20623444 106.31963898 65.52754211 107.5249176 C66.1443172 109.84004046 66.76044806 112.15533505 67.37590027 114.47080994 C68.86885975 120.08431681 70.36965487 125.69547853 71.89186382 131.30111885 C72.64435823 134.07390391 73.39317311 136.84767685 74.14171028 139.62153244 C74.50224537 140.95347137 74.86457315 142.28492648 75.22878838 143.6158638 C75.73386449 145.46199928 76.23231252 147.30994424 76.73046875 149.15795898 C77.01749161 150.21324799 77.30451447 151.26853699 77.60023499 152.35580444 C78.21459961 155.11352539 78.21459961 155.11352539 78.21459961 159.11352539 C83.82459961 159.11352539 89.43459961 159.11352539 95.21459961 159.11352539 C95.21459961 174.62352539 95.21459961 190.13352539 95.21459961 206.11352539 C70.13459961 206.11352539 45.05459961 206.11352539 19.21459961 206.11352539 C19.21459961 191.59352539 19.21459961 177.07352539 19.21459961 162.11352539 C17.56459961 162.11352539 15.91459961 162.11352539 14.21459961 162.11352539 C14.21459961 176.63352539 14.21459961 191.15352539 14.21459961 206.11352539 C-10.86540039 206.11352539 -35.94540039 206.11352539 -61.78540039 206.11352539 C-61.80602539 198.54415039 -61.82665039 190.97477539 -61.84790039 183.17602539 C-61.85700439 180.78360596 -61.8661084 178.39118652 -61.87548828 175.92626953 C-61.87840731 174.04207414 -61.8809559 172.15787812 -61.88305664 170.27368164 C-61.88817261 169.28557495 -61.89328857 168.29746826 -61.89855957 167.27941895 C-61.89868042 166.34561401 -61.89880127 165.41180908 -61.89892578 164.44970703 C-61.90114639 163.63474258 -61.903367 162.81977814 -61.90565491 161.9801178 C-61.78540039 160.11352539 -61.78540039 160.11352539 -60.78540039 159.11352539 C-58.43552777 158.87824766 -56.07984 158.69966122 -53.72290039 158.55102539 C-52.43254883 158.46723633 -51.14219727 158.38344727 -49.81274414 158.29711914 C-48.8137207 158.2365332 -47.81469727 158.17594727 -46.78540039 158.11352539 C-46.31251587 156.32688477 -46.31251587 156.32688477 -45.83007812 154.50415039 C-37.82236548 124.25669259 -29.76570277 94.02260662 -21.65284729 63.80317688 C-19.68476378 56.47094607 -17.72197456 49.13731954 -15.76274109 41.80271912 C-14.45958316 36.92633194 -13.15365345 32.05068982 -11.84713745 27.17520142 C-11.22545376 24.85290548 -10.60493915 22.53029624 -9.98562622 20.20736694 C-9.13294096 17.00987697 -8.27609579 13.81353035 -7.41821289 10.61743164 C-7.1647963 9.6630722 -6.9113797 8.70871277 -6.65028381 7.72543335 C-6.41788498 6.86293976 -6.18548615 6.00044617 -5.94604492 5.11181641 C-5.74480011 4.35917007 -5.5435553 3.60652374 -5.33621216 2.83106995 C-4.27992584 -0.46264839 -3.81847614 0.11451734 0 0 Z M1.21459961 8.11352539 C-1.23949775 17.35556962 -1.23949775 17.35556962 -3.69067383 26.59838867 C-5.68943938 34.10961461 -7.75529576 41.59422813 -9.91943359 49.05981445 C-11.52826315 54.73312713 -12.90523204 60.46454756 -14.2878418 66.1965332 C-16.98597479 77.3590674 -19.99576773 88.38453319 -23.26660156 99.39306641 C-25.16390547 105.83125444 -26.83470134 112.2717518 -28.29956055 118.82006836 C-29.773665 125.30955246 -31.62840773 131.67337974 -33.49121094 138.06030273 C-36.18180952 147.34762201 -38.50475153 156.71846303 -40.78540039 166.11352539 C-45.07540039 166.44352539 -49.36540039 166.77352539 -53.78540039 167.11352539 C-53.78540039 177.34352539 -53.78540039 187.57352539 -53.78540039 198.11352539 C-33.98540039 198.11352539 -14.18540039 198.11352539 6.21459961 198.11352539 C6.21459961 187.88352539 6.21459961 177.65352539 6.21459961 167.11352539 C0.93459961 167.11352539 -4.34540039 167.11352539 -9.78540039 167.11352539 C-9.12540039 163.15352539 -8.46540039 159.19352539 -7.78540039 155.11352539 C7.72459961 155.11352539 23.23459961 155.11352539 39.21459961 155.11352539 C39.70959961 157.58852539 39.70959961 157.58852539 40.21459961 160.11352539 C41.20459961 163.57852539 41.20459961 163.57852539 42.21459961 167.11352539 C37.26459961 167.11352539 32.31459961 167.11352539 27.21459961 167.11352539 C27.21459961 177.34352539 27.21459961 187.57352539 27.21459961 198.11352539 C47.34459961 198.11352539 67.47459961 198.11352539 88.21459961 198.11352539 C88.21459961 187.88352539 88.21459961 177.65352539 88.21459961 167.11352539 C82.93459961 167.11352539 77.65459961 167.11352539 72.21459961 167.11352539 C72.05024414 165.18186523 72.05024414 165.18186523 71.88256836 163.21118164 C71.31388224 158.12278074 70.01935403 153.43579746 68.52709961 148.55102539 C66.22655057 140.78040577 64.13745236 132.98597804 62.21459961 125.11352539 C60.36434919 117.56472085 58.39476821 110.07378984 56.21459961 102.61352539 C53.73962717 94.14447907 51.56573874 85.62363966 49.46459961 77.05493164 C47.85230093 70.53016043 46.09965292 64.06446028 44.21459961 57.61352539 C41.41936537 48.04163289 38.99048642 38.39616383 36.60522461 28.71508789 C34.90448395 21.82076315 33.07087824 14.96747726 31.21459961 8.11352539 C21.31459961 8.11352539 11.41459961 8.11352539 1.21459961 8.11352539 Z " fill="#F8B027" transform="translate(928.785400390625,8.886474609375)"/>
<path d="M0 0 C13.53 0 27.06 0 41 0 C46.17406687 17.8078321 50.97017936 35.70736646 55.72877502 53.62930298 C56.82297892 57.74925153 57.9188533 61.86875569 59.01464844 65.98828125 C59.4605727 67.66470299 59.90649555 69.34112511 60.35241699 71.01754761 C60.57386887 71.85006924 60.79532074 72.68259087 61.02348328 73.54034042 C61.695592 76.06745718 62.36740638 78.59465205 63.03918457 81.12185669 C65.77515988 91.41208607 68.52388519 101.69881452 71.28476334 111.98238945 C72.41036867 116.1760893 73.53411192 120.37028864 74.65799522 124.56445026 C75.53804082 127.84777755 76.41947074 131.13072132 77.30389404 134.41287231 C78.27362348 138.01395079 79.23887597 141.61620088 80.203125 145.21875 C80.6328511 146.80700844 80.6328511 146.80700844 81.07125854 148.42735291 C81.45605881 149.87000267 81.45605881 149.87000267 81.84863281 151.34179688 C82.072547 152.17481323 82.29646118 153.00782959 82.52716064 153.86608887 C83 156 83 156 83 159 C84.82337891 158.98259766 84.82337891 158.98259766 86.68359375 158.96484375 C88.26822764 158.95546722 89.85286318 158.94636687 91.4375 158.9375 C92.23994141 158.92912109 93.04238281 158.92074219 93.86914062 158.91210938 C95.91295221 158.9034857 97.95683902 158.9477185 100 159 C101 160 101 160 101.12025452 161.86659241 C101.11803391 162.68155685 101.11581329 163.4965213 101.11352539 164.33618164 C101.11340454 165.26998657 101.11328369 166.2037915 101.11315918 167.16589355 C101.10804321 168.15400024 101.10292725 169.14210693 101.09765625 170.16015625 C101.09664917 171.06342651 101.09564209 171.96669678 101.09460449 172.89733887 C101.08935512 176.28573874 101.07539398 179.67412059 101.0625 183.0625 C101.041875 190.631875 101.02125 198.20125 101 206 C75.59 206 50.18 206 24 206 C24 191.48 24 176.96 24 162 C22.02 162 20.04 162 18 162 C18 176.52 18 191.04 18 206 C-6.75 206 -31.5 206 -57 206 C-57.020625 198.430625 -57.04125 190.86125 -57.0625 183.0625 C-57.071604 180.67008057 -57.08070801 178.27766113 -57.09008789 175.81274414 C-57.09300692 173.92854875 -57.09555551 172.04435273 -57.09765625 170.16015625 C-57.10277222 169.17204956 -57.10788818 168.18394287 -57.11315918 167.16589355 C-57.11328003 166.23208862 -57.11340088 165.29828369 -57.11352539 164.33618164 C-57.115746 163.52121719 -57.11796661 162.70625275 -57.12025452 161.86659241 C-57 160 -57 160 -56 159 C-53.64686445 158.92728259 -51.29166332 158.91629132 -48.9375 158.9375 C-47.64714844 158.94652344 -46.35679687 158.95554688 -45.02734375 158.96484375 C-43.52880859 158.98224609 -43.52880859 158.98224609 -42 159 C-41.88263489 158.38244843 -41.76526978 157.76489685 -41.64434814 157.12863159 C-40.52251272 151.35659412 -39.20744753 145.68256506 -37.671875 140.0078125 C-37.44672211 139.16563675 -37.22156921 138.323461 -36.98959351 137.45576477 C-36.24611287 134.67801531 -35.49809797 131.90150916 -34.75 129.125 C-34.21573287 127.13296097 -33.681722 125.14085319 -33.14794922 123.14868164 C-31.72590096 117.84498115 -30.29970491 112.54240542 -28.87219238 107.24017334 C-28.01147124 104.04261537 -27.15158283 100.8448347 -26.29199219 97.64697266 C-23.11227752 85.81834752 -19.92760324 73.99106486 -16.73959351 62.16467285 C-13.51474536 50.20126074 -10.29393657 38.23676179 -7.07318115 26.27224731 C-5.57236032 20.69708676 -4.07132969 15.12198269 -2.5703125 9.546875 C-1.72210937 6.39640625 -0.87390625 3.2459375 0 0 Z M6 8 C2.43819085 20.45521131 -1.04026934 32.9170644 -4.125 45.5 C-5.93803531 52.89480633 -7.8885453 60.20726078 -10.10595703 67.49023438 C-11.94347092 73.61040017 -13.47769756 79.79487887 -15 86 C-16.68860958 92.88301264 -18.43540841 99.71978805 -20.5 106.5 C-22.82349019 114.13366051 -24.72593287 121.84958261 -26.61572266 129.60058594 C-28.75352497 138.25902901 -31.21372628 146.80452234 -33.81591797 155.33422852 C-34.10096191 156.28096436 -34.38600586 157.2277002 -34.6796875 158.203125 C-34.93476074 159.03489258 -35.18983398 159.86666016 -35.45263672 160.72363281 C-36.15586066 163.25798283 -36.15586066 163.25798283 -36 167 C-40.29 167 -44.58 167 -49 167 C-49 177.56 -49 188.12 -49 199 C-29.2 199 -9.4 199 11 199 C11 188.44 11 177.88 11 167 C5.72 167 0.44 167 -5 167 C-4.34 163.04 -3.68 159.08 -3 155 C12.51 155 28.02 155 44 155 C44.66 158.96 45.32 162.92 46 167 C41.38 167 36.76 167 32 167 C32 177.23 32 187.46 32 198 C52.13 198 72.26 198 93 198 C93 187.77 93 177.54 93 167 C87.72 167 82.44 167 77 167 C76.9175 165.948125 76.835 164.89625 76.75 163.8125 C76.28498108 160.06615035 75.33850294 156.65543466 74.1875 153.0625 C72.59278264 148.08400959 71.27164425 143.09738737 70.125 138 C68.65132621 131.49361912 66.93003006 125.09164069 65.0625 118.6875 C62.31415478 109.25497177 59.90082145 99.76371382 57.55273438 90.22509766 C55.64957152 82.5636903 53.55751839 74.95415663 51.40625 67.359375 C47.58101479 53.84581769 44.02530934 40.29383686 40.66113281 26.65869141 C39.69806 22.78577304 38.70461083 18.92155209 37.6875 15.0625 C37.22923828 13.31646484 37.22923828 13.31646484 36.76171875 11.53515625 C36.24414156 9.08623274 36.24414156 9.08623274 35 8 C32.85441173 7.91224395 30.70595579 7.89304781 28.55859375 7.90234375 C27.25341797 7.90556641 25.94824219 7.90878906 24.60351562 7.91210938 C23.2148431 7.92046599 21.82617123 7.92893095 20.4375 7.9375 C19.04492344 7.94251334 17.65234519 7.94707653 16.25976562 7.95117188 C12.8398013 7.96300566 9.41992156 7.9794912 6 8 Z " fill="#F9B127" transform="translate(614,9)"/>
<path d="M0 0 C7.92 0 15.84 0 24 0 C24 4.62 24 9.24 24 14 C22.35 14 20.7 14 19 14 C19 18.95 19 23.9 19 29 C23.29 29 27.58 29 32 29 C32 24.05 32 19.1 32 14 C30.02 14 28.04 14 26 14 C26 9.38 26 4.76 26 0 C33.92 0 41.84 0 50 0 C50 4.62 50 9.24 50 14 C48.35 14 46.7 14 45 14 C45 29.18 45 44.36 45 60 C46.65 60 48.3 60 50 60 C50 63.96 50 67.92 50 72 C42.08 72 34.16 72 26 72 C26 68.04 26 64.08 26 60 C27.98 60 29.96 60 32 60 C32 54.06 32 48.12 32 42 C27.71 42 23.42 42 19 42 C19 47.94 19 53.88 19 60 C20.65 60 22.3 60 24 60 C24 63.96 24 67.92 24 72 C16.08 72 8.16 72 0 72 C0 68.04 0 64.08 0 60 C1.65 60 3.3 60 5 60 C5 44.82 5 29.64 5 14 C3.35 14 1.7 14 0 14 C0 9.38 0 4.76 0 0 Z " fill="#522773" transform="translate(624,240)"/>
<path d="M0 0 C1.00023193 0.00523682 2.00046387 0.01047363 3.03100586 0.01586914 C4.1105957 0.0190918 5.19018555 0.02231445 6.30249023 0.02563477 C8.00695312 0.03820312 8.00695312 0.03820312 9.74584961 0.05102539 C11.45611328 0.05779297 11.45611328 0.05779297 13.20092773 0.06469727 C16.02845312 0.07652792 18.85587601 0.09301129 21.68334961 0.11352539 C21.71020899 2.25929176 21.72968049 4.40515184 21.74584961 6.55102539 C21.75745117 7.74598633 21.76905273 8.94094727 21.78100586 10.17211914 C21.68334961 13.11352539 21.68334961 13.11352539 20.68334961 14.11352539 C19.03334961 14.11352539 17.38334961 14.11352539 15.68334961 14.11352539 C15.68334961 19.06352539 15.68334961 24.01352539 15.68334961 29.11352539 C19.97334961 29.11352539 24.26334961 29.11352539 28.68334961 29.11352539 C28.68334961 24.16352539 28.68334961 19.21352539 28.68334961 14.11352539 C27.03334961 14.11352539 25.38334961 14.11352539 23.68334961 14.11352539 C22.68334961 13.11352539 22.68334961 13.11352539 22.55053711 10.42602539 C22.55311523 9.33290039 22.55569336 8.23977539 22.55834961 7.11352539 C22.55577148 6.02040039 22.55319336 4.92727539 22.55053711 3.80102539 C22.68334961 1.11352539 22.68334961 1.11352539 23.68334961 0.11352539 C25.46406207 0.02626316 27.24818101 0.00653498 29.03100586 0.01586914 C30.1105957 0.0190918 31.19018555 0.02231445 32.30249023 0.02563477 C34.00695312 0.03820312 34.00695312 0.03820312 35.74584961 0.05102539 C37.45611328 0.05779297 37.45611328 0.05779297 39.20092773 0.06469727 C42.02845312 0.07652792 44.85587601 0.09301129 47.68334961 0.11352539 C47.71020899 2.25929176 47.72968049 4.40515184 47.74584961 6.55102539 C47.75745117 7.74598633 47.76905273 8.94094727 47.78100586 10.17211914 C47.68334961 13.11352539 47.68334961 13.11352539 46.68334961 14.11352539 C45.03334961 14.11352539 43.38334961 14.11352539 41.68334961 14.11352539 C41.68334961 29.29352539 41.68334961 44.47352539 41.68334961 60.11352539 C43.66334961 60.11352539 45.64334961 60.11352539 47.68334961 60.11352539 C47.68334961 64.07352539 47.68334961 68.03352539 47.68334961 72.11352539 C39.43334961 72.11352539 31.18334961 72.11352539 22.68334961 72.11352539 C22.68334961 68.15352539 22.68334961 64.19352539 22.68334961 60.11352539 C24.66334961 60.11352539 26.64334961 60.11352539 28.68334961 60.11352539 C28.68334961 54.17352539 28.68334961 48.23352539 28.68334961 42.11352539 C24.39334961 42.11352539 20.10334961 42.11352539 15.68334961 42.11352539 C15.68334961 48.05352539 15.68334961 53.99352539 15.68334961 60.11352539 C17.66334961 60.11352539 19.64334961 60.11352539 21.68334961 60.11352539 C21.68334961 64.07352539 21.68334961 68.03352539 21.68334961 72.11352539 C13.43334961 72.11352539 5.18334961 72.11352539 -3.31665039 72.11352539 C-3.31665039 68.15352539 -3.31665039 64.19352539 -3.31665039 60.11352539 C-1.33665039 60.11352539 0.64334961 60.11352539 2.68334961 60.11352539 C2.68334961 44.93352539 2.68334961 29.75352539 2.68334961 14.11352539 C1.03334961 14.11352539 -0.61665039 14.11352539 -2.31665039 14.11352539 C-3.31665039 13.11352539 -3.31665039 13.11352539 -3.44946289 10.42602539 C-3.44688477 9.33290039 -3.44430664 8.23977539 -3.44165039 7.11352539 C-3.44422852 6.02040039 -3.44680664 4.92727539 -3.44946289 3.80102539 C-3.26953941 0.16022087 -3.26953941 0.16022087 0 0 Z " fill="#522773" transform="translate(342.316650390625,239.886474609375)"/>
<path d="M0 0 C1.00023193 0.00523682 2.00046387 0.01047363 3.03100586 0.01586914 C4.1105957 0.0190918 5.19018555 0.02231445 6.30249023 0.02563477 C8.00695312 0.03820312 8.00695312 0.03820312 9.74584961 0.05102539 C11.45611328 0.05779297 11.45611328 0.05779297 13.20092773 0.06469727 C16.02845312 0.07652792 18.85587601 0.09301129 21.68334961 0.11352539 C21.71020899 2.25929176 21.72968049 4.40515184 21.74584961 6.55102539 C21.75745117 7.74598633 21.76905273 8.94094727 21.78100586 10.17211914 C21.68334961 13.11352539 21.68334961 13.11352539 20.68334961 14.11352539 C19.03334961 14.11352539 17.38334961 14.11352539 15.68334961 14.11352539 C15.68334961 19.06352539 15.68334961 24.01352539 15.68334961 29.11352539 C19.97334961 29.11352539 24.26334961 29.11352539 28.68334961 29.11352539 C28.68334961 24.16352539 28.68334961 19.21352539 28.68334961 14.11352539 C27.03334961 14.11352539 25.38334961 14.11352539 23.68334961 14.11352539 C23.68334961 9.49352539 23.68334961 4.87352539 23.68334961 0.11352539 C31.60334961 0.11352539 39.52334961 0.11352539 47.68334961 0.11352539 C47.68334961 4.73352539 47.68334961 9.35352539 47.68334961 14.11352539 C45.70334961 14.11352539 43.72334961 14.11352539 41.68334961 14.11352539 C41.68334961 29.29352539 41.68334961 44.47352539 41.68334961 60.11352539 C43.66334961 60.11352539 45.64334961 60.11352539 47.68334961 60.11352539 C47.68334961 64.07352539 47.68334961 68.03352539 47.68334961 72.11352539 C39.76334961 72.11352539 31.84334961 72.11352539 23.68334961 72.11352539 C23.68334961 68.15352539 23.68334961 64.19352539 23.68334961 60.11352539 C25.33334961 60.11352539 26.98334961 60.11352539 28.68334961 60.11352539 C28.68334961 54.17352539 28.68334961 48.23352539 28.68334961 42.11352539 C24.39334961 42.11352539 20.10334961 42.11352539 15.68334961 42.11352539 C15.68334961 48.05352539 15.68334961 53.99352539 15.68334961 60.11352539 C17.66334961 60.11352539 19.64334961 60.11352539 21.68334961 60.11352539 C21.68334961 64.07352539 21.68334961 68.03352539 21.68334961 72.11352539 C13.43334961 72.11352539 5.18334961 72.11352539 -3.31665039 72.11352539 C-3.31665039 68.15352539 -3.31665039 64.19352539 -3.31665039 60.11352539 C-1.33665039 60.11352539 0.64334961 60.11352539 2.68334961 60.11352539 C2.68334961 44.93352539 2.68334961 29.75352539 2.68334961 14.11352539 C1.03334961 14.11352539 -0.61665039 14.11352539 -2.31665039 14.11352539 C-3.31665039 13.11352539 -3.31665039 13.11352539 -3.44946289 10.42602539 C-3.44688477 9.33290039 -3.44430664 8.23977539 -3.44165039 7.11352539 C-3.44422852 6.02040039 -3.44680664 4.92727539 -3.44946289 3.80102539 C-3.26953941 0.16022087 -3.26953941 0.16022087 0 0 Z " fill="#522773" transform="translate(126.316650390625,239.886474609375)"/>
<path d="M0 0 C1.55170898 0.00483398 1.55170898 0.00483398 3.13476562 0.00976562 C4.71741211 0.07647461 4.71741211 0.07647461 6.33203125 0.14453125 C7.39873047 0.13873047 8.46542969 0.13292969 9.56445312 0.12695312 C17.26571539 0.2762584 17.26571539 0.2762584 21.1953125 3.3203125 C21.83855469 4.19042969 22.48179687 5.06054688 23.14453125 5.95703125 C23.93434387 6.61163582 23.93434387 6.61163582 24.7401123 7.27946472 C26.7325546 9.65942015 26.5382315 11.35818042 26.56445312 14.43481445 C26.58036499 15.55640457 26.59627686 16.67799469 26.6126709 17.83357239 C26.61287231 19.04607162 26.61307373 20.25857086 26.61328125 21.5078125 C26.62470154 23.37786201 26.62470154 23.37786201 26.63635254 25.28569031 C26.64716975 27.9263789 26.65136625 30.56617375 26.64550781 33.20678711 C26.64079208 35.91036385 26.65465538 38.61277063 26.68652344 41.31616211 C26.72936184 45.21374274 26.73840691 49.11002194 26.73828125 53.0078125 C26.76287415 54.81745232 26.76287415 54.81745232 26.78796387 56.66365051 C26.71105175 66.01209322 26.71105175 66.01209322 23.73242188 69.70385742 C18.44422497 74.30808094 12.65209955 73.33098334 5.89453125 73.45703125 C4.66605469 73.51117188 3.43757812 73.5653125 2.171875 73.62109375 C0.38716797 73.64816406 0.38716797 73.64816406 -1.43359375 73.67578125 C-2.5205957 73.70607422 -3.60759766 73.73636719 -4.72753906 73.76757812 C-8.61091815 72.76127009 -10.26535952 71.43604929 -12.68774414 68.28427124 C-15.08833594 63.49996405 -14.74864624 58.33406487 -14.72265625 53.0859375 C-14.73313995 51.84964096 -14.74362366 50.61334442 -14.75442505 49.33958435 C-14.76724146 46.73154701 -14.76462232 44.12339387 -14.74755859 41.51538086 C-14.73053424 37.53484363 -14.78807982 33.56004863 -14.8515625 29.58007812 C-14.854787 27.0403663 -14.85363055 24.50064435 -14.84765625 21.9609375 C-14.87012421 20.77738174 -14.89259216 19.59382599 -14.91574097 18.37440491 C-14.81526204 12.38706383 -14.33327647 8.67917125 -10.15942383 4.20410156 C-6.84819002 1.397988 -4.45180838 -0.04811725 0 0 Z M0.14453125 14.95703125 C0.14453125 30.13703125 0.14453125 45.31703125 0.14453125 60.95703125 C4.10453125 60.95703125 8.06453125 60.95703125 12.14453125 60.95703125 C12.14453125 45.77703125 12.14453125 30.59703125 12.14453125 14.95703125 C8.18453125 14.95703125 4.22453125 14.95703125 0.14453125 14.95703125 Z " fill="#522773" transform="translate(721.85546875,239.04296875)"/>
<path d="M0 0 C1.12019531 -0.00580078 2.24039062 -0.01160156 3.39453125 -0.01757812 C4.54050781 0.01787109 5.68648438 0.05332031 6.8671875 0.08984375 C8.02089844 0.06728516 9.17460937 0.04472656 10.36328125 0.02148438 C18.28902978 0.11747095 18.28902978 0.11747095 21.86645508 2.35742188 C24.75953484 5.34151123 26.04598853 8.03404716 26.36328125 12.17578125 C26.33320071 13.58564309 26.27168536 14.99516514 26.1796875 16.40234375 C26.16099609 17.12550781 26.14230469 17.84867187 26.12304688 18.59375 C25.94136449 23.82816676 25.94136449 23.82816676 24.7421875 25.02734375 C22.55579297 25.09993321 20.36718361 25.11108158 18.1796875 25.08984375 C16.38337891 25.07630859 16.38337891 25.07630859 14.55078125 25.0625 C13.62394531 25.05089844 12.69710938 25.03929687 11.7421875 25.02734375 C11.7421875 21.72734375 11.7421875 18.42734375 11.7421875 15.02734375 C7.4521875 15.02734375 3.1621875 15.02734375 -1.2578125 15.02734375 C-1.2578125 30.20734375 -1.2578125 45.38734375 -1.2578125 61.02734375 C3.0321875 61.02734375 7.3221875 61.02734375 11.7421875 61.02734375 C11.7421875 56.07734375 11.7421875 51.12734375 11.7421875 46.02734375 C9.4321875 46.02734375 7.1221875 46.02734375 4.7421875 46.02734375 C4.7421875 41.73734375 4.7421875 37.44734375 4.7421875 33.02734375 C11.6721875 33.02734375 18.6021875 33.02734375 25.7421875 33.02734375 C25.88038292 37.76181663 25.99964316 42.48923356 26.07177734 47.22412109 C26.10185441 48.83243579 26.14272873 50.44058773 26.19482422 52.04833984 C26.26805362 54.36727086 26.30173034 56.68402553 26.328125 59.00390625 C26.35909271 59.71664703 26.39006042 60.42938782 26.42196655 61.16372681 C26.42462368 65.15219033 25.73187905 67.56880552 23.11181641 70.47900391 C19.94066552 73.2459328 17.49112367 73.79815927 13.2421875 73.82421875 C12.0253125 73.83195312 10.8084375 73.8396875 9.5546875 73.84765625 C8.2965625 73.82445312 7.0384375 73.80125 5.7421875 73.77734375 C4.4840625 73.80054688 3.2259375 73.82375 1.9296875 73.84765625 C0.7128125 73.83992188 -0.5040625 73.8321875 -1.7578125 73.82421875 C-2.86125 73.81745117 -3.9646875 73.81068359 -5.1015625 73.80371094 C-8.74629941 72.90718685 -10.60055956 71.91495953 -13.09283447 69.13598633 C-15.64309403 64.51994571 -15.1498908 59.17593962 -15.125 54.03515625 C-15.1354837 52.77524872 -15.14596741 51.51534119 -15.1567688 50.21725464 C-15.16960376 47.55485544 -15.16984506 44.89589467 -15.14990234 42.23388672 C-15.12694804 38.84111934 -15.16730091 35.45252385 -15.22573662 32.06030464 C-15.27150204 28.80190537 -15.25751625 25.54380124 -15.25 22.28515625 C-15.27246796 21.07658966 -15.29493591 19.86802307 -15.31808472 18.62283325 C-15.21898965 12.59516176 -14.78226515 8.781769 -10.58691406 4.26293945 C-7.13879683 1.35252189 -4.61218702 0.0121509 0 0 Z " fill="#522773" transform="translate(280.2578125,238.97265625)"/>
<path d="M0 0 C1.87461914 -0.04737305 1.87461914 -0.04737305 3.78710938 -0.09570312 C14.00726771 -0.05770997 14.00726771 -0.05770997 18.4140625 3.8671875 C21.64494543 7.85158768 21.81269292 10.70224293 21.5 15.75 C21.46841797 16.43384766 21.43683594 17.11769531 21.40429688 17.82226562 C21.32277798 19.48758028 21.197245 21.150645 21.0625 22.8125 C16.4425 22.8125 11.8225 22.8125 7.0625 22.8125 C7.0625 20.1725 7.0625 17.5325 7.0625 14.8125 C2.7725 14.8125 -1.5175 14.8125 -5.9375 14.8125 C-5.9375 19.7625 -5.9375 24.7125 -5.9375 29.8125 C-4.49117188 29.73128906 -3.04484375 29.65007812 -1.5546875 29.56640625 C0.3593116 29.50072981 2.27337931 29.43703169 4.1875 29.375 C5.13882812 29.31634766 6.09015625 29.25769531 7.0703125 29.19726562 C11.7249436 29.08413223 15.19870691 29.15111899 18.6875 32.46875 C22.51862484 37.9059209 22.01056606 44.35671988 21.9375 50.75 C21.99744141 52.6052832 21.99744141 52.6052832 22.05859375 54.49804688 C22.05224463 60.4376477 21.77121013 64.96993163 17.859375 69.63671875 C12.32973168 74.24270364 6.33412403 73.9183805 -0.5625 73.6875 C-1.76390625 73.70167969 -2.9653125 73.71585937 -4.203125 73.73046875 C-13.91631196 73.59047825 -13.91631196 73.59047825 -17.75 70.25 C-20.50168402 66.77227799 -20.63702754 63.23124905 -20.3125 58.9375 C-20.27189453 57.90496094 -20.27189453 57.90496094 -20.23046875 56.8515625 C-20.16042436 55.17049718 -20.05282141 53.49106719 -19.9375 51.8125 C-15.3175 51.8125 -10.6975 51.8125 -5.9375 51.8125 C-5.9375 54.7825 -5.9375 57.7525 -5.9375 60.8125 C-1.6475 60.8125 2.6425 60.8125 7.0625 60.8125 C7.0625 54.8725 7.0625 48.9325 7.0625 42.8125 C5.61617188 42.88210938 4.16984375 42.95171875 2.6796875 43.0234375 C0.76567159 43.07973209 -1.14839473 43.13433041 -3.0625 43.1875 C-4.01382812 43.23777344 -4.96515625 43.28804688 -5.9453125 43.33984375 C-10.29462353 43.4304544 -14.00878975 43.4422236 -17.5703125 40.7265625 C-21.44696604 36.01532262 -20.8278284 29.66799194 -20.71972656 23.87207031 C-20.68754947 21.81566177 -20.71946218 19.76710477 -20.7578125 17.7109375 C-20.69262213 6.69376543 -20.69262213 6.69376543 -17.76171875 2.92578125 C-12.7687981 -0.86302548 -5.94725681 -0.08867375 0 0 Z " fill="#522773" transform="translate(495.9375,239.1875)"/>
<path d="M0 0 C1.61068359 -0.01353516 1.61068359 -0.01353516 3.25390625 -0.02734375 C4.35605469 -0.00027344 5.45820312 0.02679688 6.59375 0.0546875 C7.69589844 0.02761719 8.79804687 0.00054687 9.93359375 -0.02734375 C11.00738281 -0.01832031 12.08117187 -0.00929687 13.1875 0 C14.15365234 0.00789551 15.11980469 0.01579102 16.11523438 0.02392578 C20.77495154 1.44093813 23.58131306 3.74227449 26.09375 7.9296875 C27.09554601 12.39719343 27.05220177 16.74501806 26.98828125 21.30859375 C26.99260666 22.59402573 26.99693207 23.8794577 27.00138855 25.20384216 C27.00717257 27.9150865 26.988359 30.62470361 26.95141602 33.33569336 C26.90588492 36.79870507 26.91854667 40.25857217 26.94922352 43.72165012 C26.97136561 47.04258843 26.94675452 50.36264356 26.92578125 53.68359375 C26.93478958 54.92121964 26.94379791 56.15884552 26.95307922 57.43397522 C26.77015501 67.00273815 26.77015501 67.00273815 23.43432617 70.70776367 C20.3472926 73.1447176 17.76900226 73.7013389 13.8125 73.7265625 C12.64074219 73.73429687 11.46898437 73.74203125 10.26171875 73.75 C9.05128906 73.72679687 7.84085938 73.70359375 6.59375 73.6796875 C5.38332031 73.70289063 4.17289063 73.72609375 2.92578125 73.75 C1.75402344 73.74226563 0.58226562 73.73453125 -0.625 73.7265625 C-1.68654297 73.71979492 -2.74808594 73.71302734 -3.84179688 73.70605469 C-7.41907873 72.79976435 -9.27718284 71.78472339 -11.73580933 69.0539856 C-14.31808826 64.36726345 -13.77622927 58.89715067 -13.73828125 53.68359375 C-13.74639328 52.3991185 -13.75450531 51.11464325 -13.76286316 49.79124451 C-13.77618251 47.07842487 -13.76743834 44.36679001 -13.7434082 41.65405273 C-13.7148409 38.19202038 -13.74486936 34.73339568 -13.79204273 31.27166843 C-13.82840238 27.9504256 -13.81195766 24.63001828 -13.80078125 21.30859375 C-13.81808792 20.0729921 -13.83539459 18.83739044 -13.85322571 17.56434631 C-13.76187075 11.93230439 -13.65132462 7.91739562 -9.71948242 3.65161133 C-6.56237831 1.06667822 -4.15045566 0.033918 0 0 Z M0.09375 14.9296875 C0.09375 30.1096875 0.09375 45.2896875 0.09375 60.9296875 C4.38375 60.9296875 8.67375 60.9296875 13.09375 60.9296875 C13.09375 45.7496875 13.09375 30.5696875 13.09375 14.9296875 C8.80375 14.9296875 4.51375 14.9296875 0.09375 14.9296875 Z " fill="#522773" transform="translate(794.90625,239.0703125)"/>
<path d="M0 0 C1.60584961 -0.00870117 1.60584961 -0.00870117 3.24414062 -0.01757812 C4.88479492 0.0355957 4.88479492 0.0355957 6.55859375 0.08984375 C7.65623047 0.06728516 8.75386719 0.04472656 9.88476562 0.02148438 C15.224376 0.08907438 19.13197119 0.42533967 23.24609375 4.02734375 C26.69174926 8.15107478 26.83850883 11.77214155 26.43359375 16.96484375 C26.40201172 17.74408203 26.37042969 18.52332031 26.33789062 19.32617188 C26.25620751 21.22822155 26.13067141 23.12830348 25.99609375 25.02734375 C21.70609375 25.02734375 17.41609375 25.02734375 12.99609375 25.02734375 C12.99609375 21.72734375 12.99609375 18.42734375 12.99609375 15.02734375 C8.70609375 15.02734375 4.41609375 15.02734375 -0.00390625 15.02734375 C-0.00390625 30.20734375 -0.00390625 45.38734375 -0.00390625 61.02734375 C4.28609375 61.02734375 8.57609375 61.02734375 12.99609375 61.02734375 C12.99609375 57.39734375 12.99609375 53.76734375 12.99609375 50.02734375 C17.28609375 50.02734375 21.57609375 50.02734375 25.99609375 50.02734375 C26.13148656 52.92474997 26.23036204 55.81579996 26.30859375 58.71484375 C26.35048828 59.53146484 26.39238281 60.34808594 26.43554688 61.18945312 C26.45166016 61.98544922 26.46777344 62.78144531 26.484375 63.6015625 C26.51055908 64.32947998 26.53674316 65.05739746 26.5637207 65.80737305 C25.66367117 69.32743773 23.80818029 70.81410545 20.99609375 73.02734375 C16.23219894 74.05885925 11.4219432 73.81550637 6.55859375 73.77734375 C5.24826172 73.8134375 3.93792969 73.84953125 2.58789062 73.88671875 C1.32138672 73.88671875 0.05488281 73.88671875 -1.25 73.88671875 C-2.40169678 73.89155273 -3.55339355 73.89638672 -4.73999023 73.90136719 C-8.69301418 72.84281189 -10.38414756 71.5684817 -12.84785461 68.34963989 C-15.23085114 63.56263604 -14.89706341 58.40027324 -14.87109375 53.15625 C-14.88157745 51.91995346 -14.89206116 50.68365692 -14.90286255 49.40989685 C-14.91567896 46.80185951 -14.91305982 44.19370637 -14.89599609 41.58569336 C-14.87897174 37.60515613 -14.93651732 33.63036113 -15 29.65039062 C-15.0032245 27.1106788 -15.00206805 24.57095685 -14.99609375 22.03125 C-15.01856171 20.84769424 -15.04102966 19.66413849 -15.06417847 18.44471741 C-14.96381417 12.46420689 -14.48380058 8.7511053 -10.31713867 4.27880859 C-6.95956559 1.43391393 -4.5062899 0.01246815 0 0 Z " fill="#522773" transform="translate(564.00390625,238.97265625)"/>
<path d="M0 0 C7.92 0 15.84 0 24 0 C24.09765625 10.05859375 24.09765625 10.05859375 24 13 C23.67 13.33 23.34 13.66 23 14 C21.35 14 19.7 14 18 14 C18 29.18 18 44.36 18 60 C22.29 60 26.58 60 31 60 C31 54.39 31 48.78 31 43 C41.05859375 42.90234375 41.05859375 42.90234375 44 43 C45 44 45 44 45.11352539 46.68383789 C45.10828857 47.85164795 45.10305176 49.01945801 45.09765625 50.22265625 C45.09515869 51.35711182 45.09266113 52.49156738 45.09008789 53.66040039 C45.08098389 55.11309326 45.07187988 56.56578613 45.0625 58.0625 C45.041875 62.661875 45.02125 67.26125 45 72 C30.15 72 15.3 72 0 72 C0 68.04 0 64.08 0 60 C1.65 60 3.3 60 5 60 C5 44.82 5 29.64 5 14 C3.35 14 1.7 14 0 14 C0 9.38 0 4.76 0 0 Z " fill="#522773" transform="translate(856,240)"/>
<path d="M0 0 C7.92 0 15.84 0 24 0 C24 4.62 24 9.24 24 14 C22.35 14 20.7 14 19 14 C19 29.18 19 44.36 19 60 C20.65 60 22.3 60 24 60 C24 63.96 24 67.92 24 72 C16.08 72 8.16 72 0 72 C0 68.04 0 64.08 0 60 C1.65 60 3.3 60 5 60 C5 44.82 5 29.64 5 14 C3.35 14 1.7 14 0 14 C0 9.38 0 4.76 0 0 Z " fill="#522773" transform="translate(208,240)"/>
<path d="M0 0 C2 1 2 1 2.68934631 2.94683838 C2.8950676 3.80001648 3.10078888 4.65319458 3.31274414 5.53222656 C3.54961441 6.49702942 3.78648468 7.46183228 4.03053284 8.45587158 C4.27955856 9.50684021 4.52858429 10.55780884 4.78515625 11.640625 C5.04630722 12.71495789 5.30745819 13.78929077 5.57652283 14.8961792 C6.41292519 18.34563322 7.23769356 21.79775694 8.0625 25.25 C8.62231294 27.56397976 9.18285064 29.87778432 9.74414062 32.19140625 C10.77261295 36.44331091 11.79929747 40.69561509 12.81665039 44.95019531 C13.02157608 45.80655579 13.22650177 46.66291626 13.43763733 47.54522705 C14.00458801 50.02002714 14.50207861 52.51039304 15 55 C5.1 55 -4.8 55 -15 55 C-14.30448483 49.43587865 -13.53730452 44.77062932 -12.07421875 39.45703125 C-11.88535599 38.7667131 -11.69649323 38.07639496 -11.50190735 37.36515808 C-11.10355719 35.91321584 -10.70257793 34.46199255 -10.29907227 33.01147461 C-9.69422431 30.836678 -9.09735681 28.65982079 -8.50195312 26.48242188 C-1.69366741 1.69366741 -1.69366741 1.69366741 0 0 Z M-1 31 C-2.32 36.28 -3.64 41.56 -5 47 C-2.03 47 0.94 47 4 47 C3.40984815 41.49191603 2.43336231 36.35121931 1 31 C0.34 31 -0.32 31 -1 31 Z " fill="#F3AD2A" transform="translate(945,78)"/>
<path d="M0 0 C0.66 0 1.32 0 2 0 C3.85800776 7.33069771 5.70866545 14.66322235 7.55419922 21.99707031 C8.18303619 24.49229023 8.81356116 26.98708538 9.44580078 29.48144531 C10.35371793 33.06465366 11.25557475 36.64934045 12.15625 40.234375 C12.44060913 41.35116638 12.72496826 42.46795776 13.01794434 43.61859131 C13.27821411 44.65936829 13.53848389 45.70014526 13.80664062 46.77246094 C14.03758423 47.68735291 14.26852783 48.60224487 14.50646973 49.54486084 C15 52 15 52 15 56 C5.43 56 -4.14 56 -14 56 C-12.87617071 45.88553643 -12.87617071 45.88553643 -11.58203125 41.6796875 C-11.29980713 40.74253906 -11.01758301 39.80539063 -10.72680664 38.83984375 C-10.42508545 37.86144531 -10.12336426 36.88304687 -9.8125 35.875 C-6.24018399 23.99026904 -3.05587374 12.02667022 0 0 Z M0 31 C-1.32 36.61 -2.64 42.22 -4 48 C-1.03 48 1.94 48 5 48 C4.35729017 42.0870696 2.80996216 36.65755469 1 31 C0.67 31 0.34 31 0 31 Z " fill="#F3AD2A" transform="translate(634,77)"/>
<path d="M0 0 C2.33508213 3.5026232 3.17446969 6.91477848 4.1875 10.9375 C4.39600586 11.74783691 4.60451172 12.55817383 4.81933594 13.39306641 C5.55373382 16.26018542 6.27741791 19.12988059 7 22 C7.44496826 23.75932861 7.44496826 23.75932861 7.89892578 25.55419922 C9.45673611 31.71889485 11.00766354 37.88532072 12.546875 44.0546875 C12.80307617 45.08062012 13.05927734 46.10655273 13.32324219 47.16357422 C13.94319235 49.76190791 14.47612112 52.38060558 15 55 C5.1 55 -4.8 55 -15 55 C-14.14579389 49.87476335 -13.07711369 44.96390802 -11.8125 39.9375 C-11.5961792 39.07423096 -11.3798584 38.21096191 -11.15698242 37.3215332 C-8.85030723 28.23148187 -6.27713121 19.22009184 -3.64306641 10.22021484 C-3.22455714 8.77529334 -2.81489337 7.32777065 -2.41552734 5.87744141 C-1.1 1.1 -1.1 1.1 0 0 Z M0 30 C-2.25422333 35.63555833 -3.7915371 41.05064416 -5 47 C-1.7 47 1.6 47 5 47 C3.68 41.39 2.36 35.78 1 30 C0.67 30 0.34 30 0 30 Z " fill="#F5AE29" transform="translate(198,78)"/>
</svg>
