<?xml version="1.0" encoding="UTF-8" standalone="no"?>
<svg xmlns="http://www.w3.org/2000/svg" xmlns:xlink="http://www.w3.org/1999/xlink" width="63.509mm" height="31.647mm" viewBox="-442.070129 232.446182 63.508698 31.646652">
    <path transform="matrix(-1,0,0,1,-410.381042,251.414063)" style="stroke:#000000;stroke-width:0.050000mm;fill:none" d="M28.357422,-1.759766L27.70459,-1.759766L27.70459,0.254395L29.287109,0.254395L29.287109,-1.759766L28.65625,-1.759766L28.65625,-3.342773L31.666992,-3.342773L31.666992,-1.759766L31.036133,-1.759766L31.036133,4.028809L31.666992,4.028809L31.688965,5.589355L28.65625,5.589355L28.65625,4.028809L29.287109,4.028809L29.287109,1.892578L27.70459,1.892578L27.70459,4.028809L28.357422,4.028809L28.357422,5.589355L25.335938,5.589355L25.335938,4.028809L25.955566,4.028809L25.955566,-1.759766L25.335938,-1.759766L25.335938,-3.342773L28.357422,-3.342773L28.357422,-1.759766zM24.82666,-1.759766L24.18457,-1.759766L24.18457,4.028809L24.82666,4.028809L24.82666,5.589355L21.804688,5.589355L21.804688,4.028809L22.436035,4.028809L22.436035,-1.759766L21.804688,-1.759766L21.804688,-3.342773L24.82666,-3.342773L24.82666,-1.759766zM21.251465,-2.624023L21.251465,4.749512L20.410156,5.589355L16.314941,5.589355L15.506836,4.781738L15.506836,1.737793L16.348145,0.885254L18.705566,0.885254L18.705566,2.490234L17.255859,2.490234L17.255859,4.028809L19.524902,4.028809L19.524902,-1.737793L17.255859,-1.737793L17.255859,-0.830078L15.506836,-0.830078L15.506836,-2.549316L16.314941,-3.342773L20.509766,-3.342773L21.251465,-2.624023zM11.533203,-1.759766L10.880371,-1.759766L10.880371,0.254395L12.462891,0.254395L12.462891,-1.759766L11.832031,-1.759766L11.832031,-3.342773L14.842773,-3.342773L14.842773,-1.759766L14.211914,-1.759766L14.211914,4.028809L14.842773,4.028809L14.864746,5.589355L11.832031,5.589355L11.832031,4.028809L12.462891,4.028809L12.462891,1.892578L10.880371,1.892578L10.880371,4.028809L11.533203,4.028809L11.533203,5.589355L8.511719,5.589355L8.511719,4.028809L9.131348,4.028809L9.131348,-1.759766L8.511719,-1.759766L8.511719,-3.342773L11.533203,-3.342773L11.533203,-1.759766zM4.538086,-2.555176L4.538086,1.061035L3.699219,1.881836L0.774902,1.881836L0.774902,4.040039L2.789063,4.040039L2.789063,2.955078L4.538086,2.955078L4.538086,4.637695L3.575195,5.589355L-0.121582,5.589355L-0.974121,4.748535L-0.974121,1.095703L-0.154785,0.276855L2.789063,0.276855L2.789063,-1.737793L0.774902,-1.737793L0.774902,-0.708496L-1.007324,-0.708496L-1.007324,-2.431152L-0.088379,-3.342773L3.719238,-3.342773L4.538086,-2.555176zM-1.438965,-2.624023L-1.438965,4.749512L-2.280273,5.589355L-6.121094,5.589355L-6.928711,4.781738L-6.928711,2.457031L-5.180176,2.457031L-5.180176,4.028809L-3.165527,4.028809L-3.165527,-1.737793L-5.180176,-1.737793L-5.180176,-0.830078L-6.928711,-0.830078L-6.928711,-2.549316L-6.121094,-3.342773L-2.180664,-3.342773L-1.438965,-2.624023zM-10.825195,-1.759766L-11.478027,-1.759766L-11.478027,0.254395L-9.89502,0.254395L-9.89502,-1.759766L-10.525879,-1.759766L-10.525879,-3.342773L-7.515625,-3.342773L-7.515625,-1.759766L-8.146484,-1.759766L-8.146484,4.028809L-7.515625,4.028809L-7.493164,5.589355L-10.525879,5.589355L-10.525879,4.028809L-9.89502,4.028809L-9.89502,1.892578L-11.478027,1.892578L-11.478027,4.028809L-10.825195,4.028809L-10.825195,5.589355L-13.84668,5.589355L-13.84668,4.028809L-13.227051,4.028809L-13.227051,-1.759766L-13.84668,-1.759766L-13.84668,-3.342773L-10.825195,-3.342773L-10.825195,-1.759766zM-14.27832,-2.480469L-14.27832,4.871094L-14.997559,5.589355L-18.827637,5.589355L-19.646484,4.760254L-19.646484,-2.513672L-18.805176,-3.342773L-15.130371,-3.342773L-14.27832,-2.480469zM-20.144531,-2.480469L-20.144531,4.871094L-20.864258,5.589355L-24.693848,5.589355L-25.512695,4.760254L-25.512695,-2.513672L-24.671387,-3.342773L-20.99707,-3.342773L-20.144531,-2.480469zM-26.043945,-1.759766L-26.697266,-1.759766L-26.697266,4.028809L-26.043945,4.028809L-26.043945,5.589355L-31.811035,5.589355L-31.811035,2.844727L-30.117188,2.844727L-30.117188,4.028809L-28.445801,4.028809L-28.445801,-1.759766L-29.065918,-1.759766L-29.065918,-3.342773L-26.043945,-3.342773L-26.043945,-1.759766zM-17.897949,-1.737793L-17.897949,4.040039L-16.027344,4.040039L-16.027344,-1.737793L-17.897949,-1.737793zM-23.76416,-1.737793L-23.76416,4.040039L-21.893555,4.040039L-21.893555,-1.737793L-23.76416,-1.737793z"/>
    <path transform="matrix(-0.644264,0,0,0.644264,-410.328033,246.099457)" style="stroke:#000000;stroke-width:0.077608mm;fill:none" d="M48.252441,-18.396973L48.252441,-10.229492L46.35791,-8.375488L39.751953,-8.375488L39.751953,-3.5L44.302246,-3.5L44.302246,-5.950195L48.252441,-5.950195L48.252441,-2.149902L46.077148,0L37.727051,0L35.801758,-1.899902L35.801758,-10.150391L37.651855,-12.000488L44.302246,-12.000488L44.302246,-16.550781L39.751953,-16.550781L39.751953,-14.225586L35.726563,-14.225586L35.726563,-18.117188L37.801758,-20.175781L46.402344,-20.175781L48.252441,-18.396973zM31.82666,-16.600586L30.95166,-16.600586L33.976563,-3.475098L34.70166,-3.475098L34.70166,0L29.45166,0L29.45166,-3.475098L30.32666,-3.475098L30.026367,-4.625L27.201172,-4.625L26.92627,-3.475098L27.851563,-3.475098L27.851563,0L22.476074,0L22.476074,-3.475098L23.201172,-3.475098L26.526367,-16.600586L25.851074,-16.600586L25.851074,-20.175781L31.851563,-20.175781L31.82666,-16.600586zM14.200684,-16.725586L12.775391,-16.725586L12.775391,-11.550781L15.684082,-20.175781L21.500977,-20.175781L21.500977,-16.650879L20.000977,-16.650879L20.000977,-3.625L21.500977,-3.625L21.500977,0L14.875488,0L14.875488,-3.625L16.100586,-3.625L16.100586,-10.325684L12.750488,0L7.300293,0L7.300293,-3.625L8.725586,-3.625L8.725586,-16.650879L7.300293,-16.650879L7.300293,-20.175781L14.200684,-20.175781L14.200684,-16.725586zM6.500488,-14.175781L3.25,-14.175781L3.25,-16.600586L1.975098,-16.600586L1.975098,-3.525391L3.300293,-3.525391L3.300293,0L-3.425293,0L-3.425293,-3.525391L-2.024902,-3.525391L-2.024902,-16.600586L-3.300293,-16.600586L-3.300293,-14.175781L-6.550293,-14.175781L-6.550293,-20.101074L6.500488,-20.101074L6.500488,-14.175781zM-10.675293,-16.600586L-11.550781,-16.600586L-8.525391,-3.475098L-7.800293,-3.475098L-7.800293,0L-13.050781,0L-13.050781,-3.475098L-12.175781,-3.475098L-12.475586,-4.625L-15.300781,-4.625L-15.575684,-3.475098L-14.650879,-3.475098L-14.650879,0L-20.025879,0L-20.025879,-3.475098L-19.300781,-3.475098L-15.975586,-16.600586L-16.650879,-16.600586L-16.650879,-20.175781L-10.650391,-20.175781L-10.675293,-16.600586zM-28.30127,-16.725586L-29.726563,-16.725586L-29.726563,-11.550781L-26.817871,-20.175781L-21.000977,-20.175781L-21.000977,-16.650879L-22.500977,-16.650879L-22.500977,-3.625L-21.000977,-3.625L-21.000977,0L-27.626465,0L-27.626465,-3.625L-26.401367,-3.625L-26.401367,-10.325684L-29.751465,0L-35.20166,0L-35.20166,-3.625L-33.776855,-3.625L-33.776855,-16.650879L-35.20166,-16.650879L-35.20166,-20.175781L-28.30127,-20.175781L-28.30127,-16.725586zM-38.926758,-16.600586L-39.801758,-16.600586L-36.776855,-3.475098L-36.051758,-3.475098L-36.051758,0L-41.302246,0L-41.302246,-3.475098L-40.426758,-3.475098L-40.727051,-4.625L-43.552246,-4.625L-43.827148,-3.475098L-42.902344,-3.475098L-42.902344,0L-48.277344,0L-48.277344,-3.475098L-47.552246,-3.475098L-44.227051,-16.600586L-44.902344,-16.600586L-44.902344,-20.175781L-38.901855,-20.175781L-38.926758,-16.600586zM27.876465,-7.325195L29.45166,-7.325195L28.651367,-10.450684L27.876465,-7.325195zM-14.625488,-7.325195L-13.050781,-7.325195L-13.850586,-10.450684L-14.625488,-7.325195zM-42.876953,-7.325195L-41.302246,-7.325195L-42.102051,-10.450684L-42.876953,-7.325195z"/>
    <path transform="matrix(-0.644264,0,0,0.644264,-145.453094,85.234299)" style="stroke:#000000;stroke-width:0.077608mm;fill:none" d="M391.143066,234.053223L389.643066,234.053223L389.643066,245.046875L391.074707,245.046875L393.84668,234.103516L393.460938,234.103516L393.460938,228.496094L401.500488,228.496094L401.461426,234.103516L400.854004,234.103516L403.411133,245.196777L404.34375,245.196777L404.34375,250.704102L382.485352,250.704102L382.485352,249.562012L382.114746,250.704102L361.834473,250.704102L361.834473,245.196777L362.785156,245.196777L365.595215,234.103516L365.209473,234.103516L365.209473,228.496094L373.249023,228.496094L373.209961,234.103516L372.603027,234.103516L375.125,245.046875L376.334961,245.046875L376.334961,234.053223L374.910156,234.053223L374.910156,228.496094L391.143066,228.496094L391.143066,234.053223z"/>
    <path transform="matrix(-0.644264,0,0,0.644264,-145.453094,85.234299)" style="stroke:#000000;stroke-width:0.077608mm;fill:none" d="M424.987305,249.562012L424.616699,250.704102L417.412109,250.704102L417.412109,245.046875L418.837402,245.046875L418.837402,234.053223L418.644531,234.053223L418.644531,236.52832L414.119141,236.52832L414.119141,245.146484L415.444336,245.146484L415.444336,250.704102L406.686523,250.704102L406.686523,245.146484L408.086914,245.146484L408.086914,236.52832L403.561523,236.52832L403.561523,228.570801L417.412109,228.570801L417.412109,228.496094L433.64502,228.496094L433.64502,234.053223L432.14502,234.053223L432.14502,245.046875L433.57666,245.046875L436.348633,234.103516L435.962891,234.103516L435.962891,228.496094L444.002441,228.496094L443.963379,234.103516L443.356445,234.103516L445.913086,245.196777L445.913574,245.196777L445.913574,239.116699L448.358887,236.671387L454.414063,236.671387L454.414063,234.15332L451.895996,234.15332L451.895996,236.478516L445.838379,236.478516L445.838379,231.147461L448.51123,228.496094L457.939453,228.496094L460.396484,230.858398L460.396484,239.885742L457.900391,242.328613L451.895996,242.328613L451.895996,245.171875L454.414063,245.171875L454.414063,242.72168L460.396484,242.72168L460.396484,247.962402L457.622559,250.704102L448.437988,250.704102L446.845703,249.132813L446.845703,250.704102L424.987305,250.704102L424.987305,249.562012z"/>
    <path transform="matrix(-1,0,0,1,-410.332428,259.365112)" style="stroke:#000000;stroke-width:0.050000mm;fill:none" d="M31.729004,4.721191L26.824219,4.721191L26.422852,3.217285L29.11377,3.217285L28.896484,2.42334L26.180664,2.42334L25.779297,0.902344L30.709961,0.902344L31.729004,4.721191zM25.929688,4.721191L24.016113,4.721191L23.046875,1.287109L21.82666,2.400879L22.470215,4.721191L20.373047,4.721191L19.353516,0.902344L24.885254,0.902344L25.929688,4.721191zM18.793457,2.745117C18.971615,3.263263,18.863853,3.836749,18.509766,4.254883C18.264107,4.483049,17.952833,4.628093,17.620117,4.669434C17.403162,4.706033,17.18339,4.723354,16.963379,4.721191C16.516922,4.734262,16.070133,4.729864,15.624023,4.708008C14.941322,4.684033,14.29822,4.379795,13.84668,3.867188C13.580663,3.541258,13.38947,3.160873,13.286621,2.75293L12.84375,1.111328L15.484375,1.111328L16.370117,2.523438L15.133301,2.523438C15.1422,2.709977,15.227692,2.884492,15.369629,3.005859L15.484375,3.058594L16.670898,3.058594C16.73391,3.041843,16.786919,2.999241,16.81678,2.941282C16.846643,2.883323,16.850565,2.81543,16.827637,2.754395L16.796387,2.630371L16.303223,0.902344L18.275391,0.902344L18.793457,2.745117zM12.751953,4.721191L10.721191,4.721191L9.676758,0.902344L11.69043,0.902344L12.751953,4.721191zM9.802246,4.721191L7.888672,4.721191L6.918945,1.287109L5.699219,2.400879L6.342285,4.721191L4.245117,4.721191L3.225586,0.902344L8.757324,0.902344L9.802246,4.721191zM3.066895,4.721191L-1.838379,4.721191L-2.239746,3.217285L0.451172,3.217285L0.233887,2.42334L-2.481934,2.42334L-2.882813,0.902344L2.047363,0.902344L3.066895,4.721191zM-2.949707,4.721191L-7.85498,4.721191L-8.256348,3.217285L-5.56543,3.217285L-5.782715,2.42334L-8.498535,2.42334L-8.899414,0.902344L-3.969238,0.902344L-2.949707,4.721191zM-9.008301,4.721191L-10.955078,4.721191L-11.665527,2.415039L-13.637695,2.415039L-12.969238,4.721191L-14.84082,4.721191C-15.013363,4.258477,-15.158478,3.785957,-15.275391,3.306152C-15.370096,2.967127,-15.352789,2.606239,-15.226074,2.277832L-15.141602,2.125L-15.226074,2.090332C-15.595363,1.873984,-15.886285,1.546504,-16.057617,1.154297L-16.119629,0.902344L-10.12793,0.902344L-9.008301,4.721191zM-15.659668,4.721191L-17.69043,4.721191L-18.734863,0.902344L-16.721191,0.902344L-15.659668,4.721191zM-18.525879,4.721191L-20.439941,4.721191L-21.40918,1.287109L-22.628906,2.400879L-21.98584,4.721191L-24.083008,4.721191L-25.102539,0.902344L-19.570801,0.902344L-18.525879,4.721191zM-25.328125,2.745117L-25.265625,3.033691C-25.176016,3.548652,-25.373358,4.070601,-25.78125,4.397461C-26.199522,4.635942,-26.677485,4.748316,-27.158203,4.721191C-27.604662,4.734288,-28.051439,4.72989,-28.497559,4.708008C-29.180416,4.684123,-29.823709,4.379877,-30.275391,3.867188C-30.540989,3.541056,-30.731985,3.16073,-30.834961,2.75293L-31.277832,1.111328L-28.637207,1.111328L-27.751465,2.523438L-28.988281,2.523438C-28.979258,2.709837,-28.893993,2.88425,-28.752441,3.005859L-28.637207,3.058594L-27.450684,3.058594C-27.387674,3.041844,-27.334671,2.999237,-27.30481,2.941279C-27.27495,2.883321,-27.271023,2.81543,-27.293945,2.754395L-27.325195,2.630371L-27.818359,0.902344L-25.846191,0.902344L-25.328125,2.745117zM31.052246,0.359375L25.604004,0.359375L25.236328,-1.044434L30.149902,-1.044434L31.052246,0.359375zM11.56543,0.359375L9.55127,0.359375L9.166992,-1.044434L11.164063,-1.044434L11.56543,0.359375zM2.390137,0.359375L-3.058594,0.359375L-3.42627,-1.044434L1.487305,-1.044434L2.390137,0.359375zM-3.626465,0.359375L-9.075195,0.359375L-9.442871,-1.044434L-4.529297,-1.044434L-3.626465,0.359375zM-16.84668,0.359375L-18.860352,0.359375L-19.244629,-1.044434L-17.247559,-1.044434L-16.84668,0.359375zM21.191895,0.133789L22.428711,-1.044434L24.325684,-1.044434L24.718262,0.351074L19.244629,0.351074L18.827148,-1.044434L20.891113,-1.044434L21.191895,0.133789zM16.827148,-1.014648C17.288939,-0.856825,17.679028,-0.540396,17.928711,-0.121094C18.02323,0.025694,18.097624,0.184501,18.149902,0.351074L12.693359,0.351074L12.350586,-1.044434L16.570801,-1.044434L16.827148,-1.014648zM5.063965,0.133789L6.300781,-1.044434L8.197754,-1.044434L8.590332,0.351074L3.116699,0.351074L2.699219,-1.044434L4.763184,-1.044434L5.063965,0.133789zM-23.26416,0.133789L-22.027344,-1.044434L-20.130371,-1.044434L-19.737793,0.351074L-25.211426,0.351074L-25.628906,-1.044434L-23.564941,-1.044434L-23.26416,0.133789zM-27.294434,-1.014648L-27.043457,-0.925293C-26.53886,-0.648978,-26.156565,-0.193706,-25.97168,0.351074L-31.428223,0.351074L-31.770996,-1.044434L-27.550781,-1.044434L-27.294434,-1.014648zM-9.743652,0.342773L-16.219727,0.342773C-16.241615,0.023382,-16.190172,-0.296803,-16.069336,-0.593262C-15.930939,-0.849058,-15.673939,-1.018315,-15.384277,-1.044434L-10.629395,-1.044434L-9.743652,0.342773z"/>
</svg>
