  0
SECTION
  2
HEADER
  9
$ACADVER
  1
AC1009
  0
ENDSEC
  0
SECTION
  2
ENTITIES
  0
POLYLINE
  5
90
  8
Layer_0
  62
0
  66
1
  10
0
  20
0
  30
0
  0
VERTEX
  5
90
  8
Layer_0
  10
261.26154
  20
250.3457
  0
VERTEX
  5
91
  8
Layer_0
  10
261.91437
  20
250.3457
  0
VERTEX
  5
92
  8
Layer_0
  10
261.91437
  20
248.33154
  0
VERTEX
  5
93
  8
Layer_0
  10
260.33185
  20
248.33154
  0
VERTEX
  5
94
  8
Layer_0
  10
260.33185
  20
250.3457
  0
VERTEX
  5
95
  8
Layer_0
  10
260.96271
  20
250.3457
  0
VERTEX
  5
96
  8
Layer_0
  10
260.96271
  20
251.92871
  0
VERTEX
  5
97
  8
Layer_0
  10
257.95197
  20
251.92871
  0
VERTEX
  5
98
  8
Layer_0
  10
257.95197
  20
250.3457
  0
VERTEX
  5
99
  8
Layer_0
  10
258.58282
  20
250.3457
  0
VERTEX
  5
9a
  8
Layer_0
  10
258.58282
  20
244.55713
  0
VERTEX
  5
9b
  8
Layer_0
  10
257.95197
  20
244.55713
  0
VERTEX
  5
9c
  8
Layer_0
  10
257.92999
  20
242.99658
  0
VERTEX
  5
9d
  8
Layer_0
  10
260.96271
  20
242.99658
  0
VERTEX
  5
9e
  8
Layer_0
  10
260.96271
  20
244.55713
  0
VERTEX
  5
9f
  8
Layer_0
  10
260.33185
  20
244.55713
  0
VERTEX
  5
a0
  8
Layer_0
  10
260.33185
  20
246.69336
  0
VERTEX
  5
a1
  8
Layer_0
  10
261.91437
  20
246.69336
  0
VERTEX
  5
a2
  8
Layer_0
  10
261.91437
  20
244.55713
  0
VERTEX
  5
a3
  8
Layer_0
  10
261.26154
  20
244.55713
  0
VERTEX
  5
a4
  8
Layer_0
  10
261.26154
  20
242.99658
  0
VERTEX
  5
a5
  8
Layer_0
  10
264.28302
  20
242.99658
  0
VERTEX
  5
a6
  8
Layer_0
  10
264.28302
  20
244.55713
  0
VERTEX
  5
a7
  8
Layer_0
  10
263.66339
  20
244.55713
  0
VERTEX
  5
a8
  8
Layer_0
  10
263.66339
  20
250.3457
  0
VERTEX
  5
a9
  8
Layer_0
  10
264.28302
  20
250.3457
  0
VERTEX
  5
aa
  8
Layer_0
  10
264.28302
  20
251.92871
  0
VERTEX
  5
ab
  8
Layer_0
  10
261.26154
  20
251.92871
  0
VERTEX
  5
ac
  8
Layer_0
  10
261.26154
  20
250.3457
  0
SEQEND
  0
POLYLINE
  5
ae
  8
Layer_0
  62
0
  66
1
  10
0
  20
0
  30
0
  0
VERTEX
  5
ae
  8
Layer_0
  10
264.7923
  20
250.3457
  0
VERTEX
  5
af
  8
Layer_0
  10
265.43439
  20
250.3457
  0
VERTEX
  5
b0
  8
Layer_0
  10
265.43439
  20
244.55713
  0
VERTEX
  5
b1
  8
Layer_0
  10
264.7923
  20
244.55713
  0
VERTEX
  5
b2
  8
Layer_0
  10
264.7923
  20
242.99658
  0
VERTEX
  5
b3
  8
Layer_0
  10
267.81427
  20
242.99658
  0
VERTEX
  5
b4
  8
Layer_0
  10
267.81427
  20
244.55713
  0
VERTEX
  5
b5
  8
Layer_0
  10
267.18292
  20
244.55713
  0
VERTEX
  5
b6
  8
Layer_0
  10
267.18292
  20
250.3457
  0
VERTEX
  5
b7
  8
Layer_0
  10
267.81427
  20
250.3457
  0
VERTEX
  5
b8
  8
Layer_0
  10
267.81427
  20
251.92871
  0
VERTEX
  5
b9
  8
Layer_0
  10
264.7923
  20
251.92871
  0
VERTEX
  5
ba
  8
Layer_0
  10
264.7923
  20
250.3457
  0
SEQEND
  0
POLYLINE
  5
bc
  8
Layer_0
  62
0
  66
1
  10
0
  20
0
  30
0
  0
VERTEX
  5
bc
  8
Layer_0
  10
268.36749
  20
251.20996
  0
VERTEX
  5
bd
  8
Layer_0
  10
268.36749
  20
243.83643
  0
VERTEX
  5
be
  8
Layer_0
  10
269.2088
  20
242.99658
  0
VERTEX
  5
bf
  8
Layer_0
  10
273.30402
  20
242.99658
  0
VERTEX
  5
c0
  8
Layer_0
  10
274.11212
  20
243.8042
  0
VERTEX
  5
c1
  8
Layer_0
  10
274.11212
  20
246.84814
  0
VERTEX
  5
c2
  8
Layer_0
  10
273.27081
  20
247.70068
  0
VERTEX
  5
c3
  8
Layer_0
  10
270.91339
  20
247.70068
  0
VERTEX
  5
c4
  8
Layer_0
  10
270.91339
  20
246.0957
  0
VERTEX
  5
c5
  8
Layer_0
  10
272.3631
  20
246.0957
  0
VERTEX
  5
c6
  8
Layer_0
  10
272.3631
  20
244.55713
  0
VERTEX
  5
c7
  8
Layer_0
  10
270.09406
  20
244.55713
  0
VERTEX
  5
c8
  8
Layer_0
  10
270.09406
  20
250.32373
  0
VERTEX
  5
c9
  8
Layer_0
  10
272.3631
  20
250.32373
  0
VERTEX
  5
ca
  8
Layer_0
  10
272.3631
  20
249.41602
  0
VERTEX
  5
cb
  8
Layer_0
  10
274.11212
  20
249.41602
  0
VERTEX
  5
cc
  8
Layer_0
  10
274.11212
  20
251.13525
  0
VERTEX
  5
cd
  8
Layer_0
  10
273.30402
  20
251.92871
  0
VERTEX
  5
ce
  8
Layer_0
  10
269.10919
  20
251.92871
  0
VERTEX
  5
cf
  8
Layer_0
  10
268.36749
  20
251.20996
  0
SEQEND
  0
POLYLINE
  5
d1
  8
Layer_0
  62
0
  66
1
  10
0
  20
0
  30
0
  0
VERTEX
  5
d1
  8
Layer_0
  10
278.08575
  20
250.3457
  0
VERTEX
  5
d2
  8
Layer_0
  10
278.73859
  20
250.3457
  0
VERTEX
  5
d3
  8
Layer_0
  10
278.73859
  20
248.33154
  0
VERTEX
  5
d4
  8
Layer_0
  10
277.15607
  20
248.33154
  0
VERTEX
  5
d5
  8
Layer_0
  10
277.15607
  20
250.3457
  0
VERTEX
  5
d6
  8
Layer_0
  10
277.78693
  20
250.3457
  0
VERTEX
  5
d7
  8
Layer_0
  10
277.78693
  20
251.92871
  0
VERTEX
  5
d8
  8
Layer_0
  10
274.77618
  20
251.92871
  0
VERTEX
  5
d9
  8
Layer_0
  10
274.77618
  20
250.3457
  0
VERTEX
  5
da
  8
Layer_0
  10
275.40704
  20
250.3457
  0
VERTEX
  5
db
  8
Layer_0
  10
275.40704
  20
244.55713
  0
VERTEX
  5
dc
  8
Layer_0
  10
274.77618
  20
244.55713
  0
VERTEX
  5
dd
  8
Layer_0
  10
274.75421
  20
242.99658
  0
VERTEX
  5
de
  8
Layer_0
  10
277.78693
  20
242.99658
  0
VERTEX
  5
df
  8
Layer_0
  10
277.78693
  20
244.55713
  0
VERTEX
  5
e0
  8
Layer_0
  10
277.15607
  20
244.55713
  0
VERTEX
  5
e1
  8
Layer_0
  10
277.15607
  20
246.69336
  0
VERTEX
  5
e2
  8
Layer_0
  10
278.73859
  20
246.69336
  0
VERTEX
  5
e3
  8
Layer_0
  10
278.73859
  20
244.55713
  0
VERTEX
  5
e4
  8
Layer_0
  10
278.08575
  20
244.55713
  0
VERTEX
  5
e5
  8
Layer_0
  10
278.08575
  20
242.99658
  0
VERTEX
  5
e6
  8
Layer_0
  10
281.10724
  20
242.99658
  0
VERTEX
  5
e7
  8
Layer_0
  10
281.10724
  20
244.55713
  0
VERTEX
  5
e8
  8
Layer_0
  10
280.48761
  20
244.55713
  0
VERTEX
  5
e9
  8
Layer_0
  10
280.48761
  20
250.3457
  0
VERTEX
  5
ea
  8
Layer_0
  10
281.10724
  20
250.3457
  0
VERTEX
  5
eb
  8
Layer_0
  10
281.10724
  20
251.92871
  0
VERTEX
  5
ec
  8
Layer_0
  10
278.08575
  20
251.92871
  0
VERTEX
  5
ed
  8
Layer_0
  10
278.08575
  20
250.3457
  0
SEQEND
  0
POLYLINE
  5
ef
  8
Layer_0
  62
0
  66
1
  10
0
  20
0
  30
0
  0
VERTEX
  5
ef
  8
Layer_0
  10
285.08087
  20
251.14111
  0
VERTEX
  5
f0
  8
Layer_0
  10
285.08087
  20
247.5249
  0
VERTEX
  5
f1
  8
Layer_0
  10
285.91974
  20
246.7041
  0
VERTEX
  5
f2
  8
Layer_0
  10
288.84406
  20
246.7041
  0
VERTEX
  5
f3
  8
Layer_0
  10
288.84406
  20
244.5459
  0
VERTEX
  5
f4
  8
Layer_0
  10
286.8299
  20
244.5459
  0
VERTEX
  5
f5
  8
Layer_0
  10
286.8299
  20
245.63086
  0
VERTEX
  5
f6
  8
Layer_0
  10
285.08087
  20
245.63086
  0
VERTEX
  5
f7
  8
Layer_0
  10
285.08087
  20
243.94824
  0
VERTEX
  5
f8
  8
Layer_0
  10
286.04376
  20
242.99658
  0
VERTEX
  5
f9
  8
Layer_0
  10
289.74054
  20
242.99658
  0
VERTEX
  5
fa
  8
Layer_0
  10
290.59308
  20
243.8374
  0
VERTEX
  5
fb
  8
Layer_0
  10
290.59308
  20
247.49023
  0
VERTEX
  5
fc
  8
Layer_0
  10
289.77374
  20
248.30908
  0
VERTEX
  5
fd
  8
Layer_0
  10
286.8299
  20
248.30908
  0
VERTEX
  5
fe
  8
Layer_0
  10
286.8299
  20
250.32373
  0
VERTEX
  5
ff
  8
Layer_0
  10
288.84406
  20
250.32373
  0
VERTEX
  5
100
  8
Layer_0
  10
288.84406
  20
249.29443
  0
VERTEX
  5
101
  8
Layer_0
  10
290.62628
  20
249.29443
  0
VERTEX
  5
102
  8
Layer_0
  10
290.62628
  20
251.01709
  0
VERTEX
  5
103
  8
Layer_0
  10
289.70734
  20
251.92871
  0
VERTEX
  5
104
  8
Layer_0
  10
285.89972
  20
251.92871
  0
VERTEX
  5
105
  8
Layer_0
  10
285.08087
  20
251.14111
  0
SEQEND
  0
POLYLINE
  5
107
  8
Layer_0
  62
0
  66
1
  10
0
  20
0
  30
0
  0
VERTEX
  5
107
  8
Layer_0
  10
291.05792
  20
251.20996
  0
VERTEX
  5
108
  8
Layer_0
  10
291.05792
  20
243.83643
  0
VERTEX
  5
109
  8
Layer_0
  10
291.89923
  20
242.99658
  0
VERTEX
  5
10a
  8
Layer_0
  10
295.74005
  20
242.99658
  0
VERTEX
  5
10b
  8
Layer_0
  10
296.54767
  20
243.8042
  0
VERTEX
  5
10c
  8
Layer_0
  10
296.54767
  20
246.12891
  0
VERTEX
  5
10d
  8
Layer_0
  10
294.79913
  20
246.12891
  0
VERTEX
  5
10e
  8
Layer_0
  10
294.79913
  20
244.55713
  0
VERTEX
  5
10f
  8
Layer_0
  10
292.78448
  20
244.55713
  0
VERTEX
  5
110
  8
Layer_0
  10
292.78448
  20
250.32373
  0
VERTEX
  5
111
  8
Layer_0
  10
294.79913
  20
250.32373
  0
VERTEX
  5
112
  8
Layer_0
  10
294.79913
  20
249.41602
  0
VERTEX
  5
113
  8
Layer_0
  10
296.54767
  20
249.41602
  0
VERTEX
  5
114
  8
Layer_0
  10
296.54767
  20
251.13525
  0
VERTEX
  5
115
  8
Layer_0
  10
295.74005
  20
251.92871
  0
VERTEX
  5
116
  8
Layer_0
  10
291.79962
  20
251.92871
  0
VERTEX
  5
117
  8
Layer_0
  10
291.05792
  20
251.20996
  0
SEQEND
  0
POLYLINE
  5
119
  8
Layer_0
  62
0
  66
1
  10
0
  20
0
  30
0
  0
VERTEX
  5
119
  8
Layer_0
  10
300.44415
  20
250.3457
  0
VERTEX
  5
11a
  8
Layer_0
  10
301.09698
  20
250.3457
  0
VERTEX
  5
11b
  8
Layer_0
  10
301.09698
  20
248.33154
  0
VERTEX
  5
11c
  8
Layer_0
  10
299.51398
  20
248.33154
  0
VERTEX
  5
11d
  8
Layer_0
  10
299.51398
  20
250.3457
  0
VERTEX
  5
11e
  8
Layer_0
  10
300.14484
  20
250.3457
  0
VERTEX
  5
11f
  8
Layer_0
  10
300.14484
  20
251.92871
  0
VERTEX
  5
120
  8
Layer_0
  10
297.13458
  20
251.92871
  0
VERTEX
  5
121
  8
Layer_0
  10
297.13458
  20
250.3457
  0
VERTEX
  5
122
  8
Layer_0
  10
297.76544
  20
250.3457
  0
VERTEX
  5
123
  8
Layer_0
  10
297.76544
  20
244.55713
  0
VERTEX
  5
124
  8
Layer_0
  10
297.13458
  20
244.55713
  0
VERTEX
  5
125
  8
Layer_0
  10
297.11212
  20
242.99658
  0
VERTEX
  5
126
  8
Layer_0
  10
300.14484
  20
242.99658
  0
VERTEX
  5
127
  8
Layer_0
  10
300.14484
  20
244.55713
  0
VERTEX
  5
128
  8
Layer_0
  10
299.51398
  20
244.55713
  0
VERTEX
  5
129
  8
Layer_0
  10
299.51398
  20
246.69336
  0
VERTEX
  5
12a
  8
Layer_0
  10
301.09698
  20
246.69336
  0
VERTEX
  5
12b
  8
Layer_0
  10
301.09698
  20
244.55713
  0
VERTEX
  5
12c
  8
Layer_0
  10
300.44415
  20
244.55713
  0
VERTEX
  5
12d
  8
Layer_0
  10
300.44415
  20
242.99658
  0
VERTEX
  5
12e
  8
Layer_0
  10
303.46564
  20
242.99658
  0
VERTEX
  5
12f
  8
Layer_0
  10
303.46564
  20
244.55713
  0
VERTEX
  5
130
  8
Layer_0
  10
302.84601
  20
244.55713
  0
VERTEX
  5
131
  8
Layer_0
  10
302.84601
  20
250.3457
  0
VERTEX
  5
132
  8
Layer_0
  10
303.46564
  20
250.3457
  0
VERTEX
  5
133
  8
Layer_0
  10
303.46564
  20
251.92871
  0
VERTEX
  5
134
  8
Layer_0
  10
300.44415
  20
251.92871
  0
VERTEX
  5
135
  8
Layer_0
  10
300.44415
  20
250.3457
  0
SEQEND
  0
POLYLINE
  5
137
  8
Layer_0
  62
0
  66
1
  10
0
  20
0
  30
0
  0
VERTEX
  5
137
  8
Layer_0
  10
303.89728
  20
251.06641
  0
VERTEX
  5
138
  8
Layer_0
  10
303.89728
  20
243.71484
  0
VERTEX
  5
139
  8
Layer_0
  10
304.61652
  20
242.99658
  0
VERTEX
  5
13a
  8
Layer_0
  10
308.44659
  20
242.99658
  0
VERTEX
  5
13b
  8
Layer_0
  10
309.26544
  20
243.82568
  0
VERTEX
  5
13c
  8
Layer_0
  10
309.26544
  20
251.09961
  0
VERTEX
  5
13d
  8
Layer_0
  10
308.42413
  20
251.92871
  0
VERTEX
  5
13e
  8
Layer_0
  10
304.74933
  20
251.92871
  0
VERTEX
  5
13f
  8
Layer_0
  10
303.89728
  20
251.06641
  0
SEQEND
  0
POLYLINE
  5
141
  8
Layer_0
  62
0
  66
1
  10
0
  20
0
  30
0
  0
VERTEX
  5
141
  8
Layer_0
  10
309.76349
  20
251.06641
  0
VERTEX
  5
142
  8
Layer_0
  10
309.76349
  20
243.71484
  0
VERTEX
  5
143
  8
Layer_0
  10
310.48322
  20
242.99658
  0
VERTEX
  5
144
  8
Layer_0
  10
314.31281
  20
242.99658
  0
VERTEX
  5
145
  8
Layer_0
  10
315.13165
  20
243.82568
  0
VERTEX
  5
146
  8
Layer_0
  10
315.13165
  20
251.09961
  0
VERTEX
  5
147
  8
Layer_0
  10
314.29034
  20
251.92871
  0
VERTEX
  5
148
  8
Layer_0
  10
310.61603
  20
251.92871
  0
VERTEX
  5
149
  8
Layer_0
  10
309.76349
  20
251.06641
  0
SEQEND
  0
POLYLINE
  5
14b
  8
Layer_0
  62
0
  66
1
  10
0
  20
0
  30
0
  0
VERTEX
  5
14b
  8
Layer_0
  10
315.6629
  20
250.3457
  0
VERTEX
  5
14c
  8
Layer_0
  10
316.31622
  20
250.3457
  0
VERTEX
  5
14d
  8
Layer_0
  10
316.31622
  20
244.55713
  0
VERTEX
  5
14e
  8
Layer_0
  10
315.6629
  20
244.55713
  0
VERTEX
  5
14f
  8
Layer_0
  10
315.6629
  20
242.99658
  0
VERTEX
  5
150
  8
Layer_0
  10
321.42999
  20
242.99658
  0
VERTEX
  5
151
  8
Layer_0
  10
321.42999
  20
245.74121
  0
VERTEX
  5
152
  8
Layer_0
  10
319.73615
  20
245.74121
  0
VERTEX
  5
153
  8
Layer_0
  10
319.73615
  20
244.55713
  0
VERTEX
  5
154
  8
Layer_0
  10
318.06476
  20
244.55713
  0
VERTEX
  5
155
  8
Layer_0
  10
318.06476
  20
250.3457
  0
VERTEX
  5
156
  8
Layer_0
  10
318.68488
  20
250.3457
  0
VERTEX
  5
157
  8
Layer_0
  10
318.68488
  20
251.92871
  0
VERTEX
  5
158
  8
Layer_0
  10
315.6629
  20
251.92871
  0
VERTEX
  5
159
  8
Layer_0
  10
315.6629
  20
250.3457
  0
SEQEND
  0
POLYLINE
  5
15b
  8
Layer_0
  62
0
  66
1
  10
0
  20
0
  30
0
  0
VERTEX
  5
15b
  8
Layer_0
  10
307.51691
  20
250.32373
  0
VERTEX
  5
15c
  8
Layer_0
  10
307.51691
  20
244.5459
  0
VERTEX
  5
15d
  8
Layer_0
  10
305.6463
  20
244.5459
  0
VERTEX
  5
15e
  8
Layer_0
  10
305.6463
  20
250.32373
  0
VERTEX
  5
15f
  8
Layer_0
  10
307.51691
  20
250.32373
  0
SEQEND
  0
POLYLINE
  5
161
  8
Layer_0
  62
0
  70
1
  66
1
  10
0
  20
0
  30
0
  0
VERTEX
  5
161
  8
Layer_0
  10
313.38312
  20
250.32373
  0
VERTEX
  5
162
  8
Layer_0
  10
313.38312
  20
244.5459
  0
VERTEX
  5
163
  8
Layer_0
  10
311.51251
  20
244.5459
  0
VERTEX
  5
164
  8
Layer_0
  10
311.51251
  20
250.32373
  0
SEQEND
  0
POLYLINE
  5
166
  8
Layer_0
  62
0
  66
1
  10
0
  20
0
  30
0
  0
VERTEX
  5
166
  8
Layer_0
  10
258.58463
  20
265.75305
  0
VERTEX
  5
167
  8
Layer_0
  10
258.58463
  20
260.49104
  0
VERTEX
  5
168
  8
Layer_0
  10
259.80521
  20
259.29657
  0
VERTEX
  5
169
  8
Layer_0
  10
264.06119
  20
259.29657
  0
VERTEX
  5
16a
  8
Layer_0
  10
264.06119
  20
256.15547
  0
VERTEX
  5
16b
  8
Layer_0
  10
261.12961
  20
256.15547
  0
VERTEX
  5
16c
  8
Layer_0
  10
261.12961
  20
257.73404
  0
VERTEX
  5
16d
  8
Layer_0
  10
258.58463
  20
257.73404
  0
VERTEX
  5
16e
  8
Layer_0
  10
258.58463
  20
255.28564
  0
VERTEX
  5
16f
  8
Layer_0
  10
259.98611
  20
253.90054
  0
VERTEX
  5
170
  8
Layer_0
  10
265.36578
  20
253.90054
  0
VERTEX
  5
171
  8
Layer_0
  10
266.60617
  20
255.12459
  0
VERTEX
  5
172
  8
Layer_0
  10
266.60617
  20
260.44008
  0
VERTEX
  5
173
  8
Layer_0
  10
265.41422
  20
261.63203
  0
VERTEX
  5
174
  8
Layer_0
  10
261.12961
  20
261.63203
  0
VERTEX
  5
175
  8
Layer_0
  10
261.12961
  20
264.56363
  0
VERTEX
  5
176
  8
Layer_0
  10
264.06119
  20
264.56363
  0
VERTEX
  5
177
  8
Layer_0
  10
264.06119
  20
263.06558
  0
VERTEX
  5
178
  8
Layer_0
  10
266.6546
  20
263.06558
  0
VERTEX
  5
179
  8
Layer_0
  10
266.6546
  20
265.5728
  0
VERTEX
  5
17a
  8
Layer_0
  10
265.31763
  20
266.89908
  0
VERTEX
  5
17b
  8
Layer_0
  10
259.77658
  20
266.89908
  0
VERTEX
  5
17c
  8
Layer_0
  10
258.58463
  20
265.75305
  0
SEQEND
  0
POLYLINE
  5
17e
  8
Layer_0
  62
0
  66
1
  10
0
  20
0
  30
0
  0
VERTEX
  5
17e
  8
Layer_0
  10
269.16718
  20
264.5957
  0
VERTEX
  5
17f
  8
Layer_0
  10
269.73093
  20
264.5957
  0
VERTEX
  5
180
  8
Layer_0
  10
267.78207
  20
256.13942
  0
VERTEX
  5
181
  8
Layer_0
  10
267.31491
  20
256.13942
  0
VERTEX
  5
182
  8
Layer_0
  10
267.31491
  20
253.90054
  0
VERTEX
  5
183
  8
Layer_0
  10
270.69733
  20
253.90054
  0
VERTEX
  5
184
  8
Layer_0
  10
270.69733
  20
256.13942
  0
VERTEX
  5
185
  8
Layer_0
  10
270.13358
  20
256.13942
  0
VERTEX
  5
186
  8
Layer_0
  10
270.32706
  20
256.88026
  0
VERTEX
  5
187
  8
Layer_0
  10
272.14722
  20
256.88026
  0
VERTEX
  5
188
  8
Layer_0
  10
272.32434
  20
256.13942
  0
VERTEX
  5
189
  8
Layer_0
  10
271.72821
  20
256.13942
  0
VERTEX
  5
18a
  8
Layer_0
  10
271.72821
  20
253.90054
  0
VERTEX
  5
18b
  8
Layer_0
  10
275.19144
  20
253.90054
  0
VERTEX
  5
18c
  8
Layer_0
  10
275.19144
  20
256.13942
  0
VERTEX
  5
18d
  8
Layer_0
  10
274.72427
  20
256.13942
  0
VERTEX
  5
18e
  8
Layer_0
  10
272.58197
  20
264.5957
  0
VERTEX
  5
18f
  8
Layer_0
  10
273.01703
  20
264.5957
  0
VERTEX
  5
190
  8
Layer_0
  10
273.01703
  20
266.89908
  0
VERTEX
  5
191
  8
Layer_0
  10
269.15115
  20
266.89908
  0
VERTEX
  5
192
  8
Layer_0
  10
269.16718
  20
264.5957
  0
SEQEND
  0
POLYLINE
  5
194
  8
Layer_0
  62
0
  66
1
  10
0
  20
0
  30
0
  0
VERTEX
  5
194
  8
Layer_0
  10
280.52298
  20
264.67624
  0
VERTEX
  5
195
  8
Layer_0
  10
281.44122
  20
264.67624
  0
VERTEX
  5
196
  8
Layer_0
  10
281.44122
  20
261.3423
  0
VERTEX
  5
197
  8
Layer_0
  10
279.56726
  20
266.89908
  0
VERTEX
  5
198
  8
Layer_0
  10
275.81964
  20
266.89908
  0
VERTEX
  5
199
  8
Layer_0
  10
275.81964
  20
264.62811
  0
VERTEX
  5
19a
  8
Layer_0
  10
276.78604
  20
264.62811
  0
VERTEX
  5
19b
  8
Layer_0
  10
276.78604
  20
256.23601
  0
VERTEX
  5
19c
  8
Layer_0
  10
275.81964
  20
256.23601
  0
VERTEX
  5
19d
  8
Layer_0
  10
275.81964
  20
253.90054
  0
VERTEX
  5
19e
  8
Layer_0
  10
280.08823
  20
253.90054
  0
VERTEX
  5
19f
  8
Layer_0
  10
280.08823
  20
256.23601
  0
VERTEX
  5
1a0
  8
Layer_0
  10
279.29892
  20
256.23601
  0
VERTEX
  5
1a1
  8
Layer_0
  10
279.29892
  20
260.55301
  0
VERTEX
  5
1a2
  8
Layer_0
  10
281.45728
  20
253.90054
  0
VERTEX
  5
1a3
  8
Layer_0
  10
284.96866
  20
253.90054
  0
VERTEX
  5
1a4
  8
Layer_0
  10
284.96866
  20
256.23601
  0
VERTEX
  5
1a5
  8
Layer_0
  10
284.05038
  20
256.23601
  0
VERTEX
  5
1a6
  8
Layer_0
  10
284.05038
  20
264.62811
  0
VERTEX
  5
1a7
  8
Layer_0
  10
284.96866
  20
264.62811
  0
VERTEX
  5
1a8
  8
Layer_0
  10
284.96866
  20
266.89908
  0
VERTEX
  5
1a9
  8
Layer_0
  10
280.52298
  20
266.89908
  0
VERTEX
  5
1aa
  8
Layer_0
  10
280.52298
  20
264.67624
  0
SEQEND
  0
POLYLINE
  5
1ac
  8
Layer_0
  62
0
  66
1
  10
0
  20
0
  30
0
  0
VERTEX
  5
1ac
  8
Layer_0
  10
285.48395
  20
263.03349
  0
VERTEX
  5
1ad
  8
Layer_0
  10
287.57809
  20
263.03349
  0
VERTEX
  5
1ae
  8
Layer_0
  10
287.57809
  20
264.5957
  0
VERTEX
  5
1af
  8
Layer_0
  10
288.39948
  20
264.5957
  0
VERTEX
  5
1b0
  8
Layer_0
  10
288.39948
  20
256.17183
  0
VERTEX
  5
1b1
  8
Layer_0
  10
287.54572
  20
256.17183
  0
VERTEX
  5
1b2
  8
Layer_0
  10
287.54572
  20
253.90054
  0
VERTEX
  5
1b3
  8
Layer_0
  10
291.87875
  20
253.90054
  0
VERTEX
  5
1b4
  8
Layer_0
  10
291.87875
  20
256.17183
  0
VERTEX
  5
1b5
  8
Layer_0
  10
290.97653
  20
256.17183
  0
VERTEX
  5
1b6
  8
Layer_0
  10
290.97653
  20
264.5957
  0
VERTEX
  5
1b7
  8
Layer_0
  10
291.79822
  20
264.5957
  0
VERTEX
  5
1b8
  8
Layer_0
  10
291.79822
  20
263.03349
  0
VERTEX
  5
1b9
  8
Layer_0
  10
293.89209
  20
263.03349
  0
VERTEX
  5
1ba
  8
Layer_0
  10
293.89209
  20
266.85095
  0
VERTEX
  5
1bb
  8
Layer_0
  10
285.48395
  20
266.85095
  0
VERTEX
  5
1bc
  8
Layer_0
  10
285.48395
  20
263.03349
  0
SEQEND
  0
POLYLINE
  5
1be
  8
Layer_0
  62
0
  66
1
  10
0
  20
0
  30
0
  0
VERTEX
  5
1be
  8
Layer_0
  10
296.54968
  20
264.5957
  0
VERTEX
  5
1bf
  8
Layer_0
  10
297.11371
  20
264.5957
  0
VERTEX
  5
1c0
  8
Layer_0
  10
295.16458
  20
256.13942
  0
VERTEX
  5
1c1
  8
Layer_0
  10
294.69742
  20
256.13942
  0
VERTEX
  5
1c2
  8
Layer_0
  10
294.69742
  20
253.90054
  0
VERTEX
  5
1c3
  8
Layer_0
  10
298.08011
  20
253.90054
  0
VERTEX
  5
1c4
  8
Layer_0
  10
298.08011
  20
256.13942
  0
VERTEX
  5
1c5
  8
Layer_0
  10
297.51639
  20
256.13942
  0
VERTEX
  5
1c6
  8
Layer_0
  10
297.70953
  20
256.88026
  0
VERTEX
  5
1c7
  8
Layer_0
  10
299.52972
  20
256.88026
  0
VERTEX
  5
1c8
  8
Layer_0
  10
299.70682
  20
256.13942
  0
VERTEX
  5
1c9
  8
Layer_0
  10
299.11099
  20
256.13942
  0
VERTEX
  5
1ca
  8
Layer_0
  10
299.11099
  20
253.90054
  0
VERTEX
  5
1cb
  8
Layer_0
  10
302.57391
  20
253.90054
  0
VERTEX
  5
1cc
  8
Layer_0
  10
302.57391
  20
256.13942
  0
VERTEX
  5
1cd
  8
Layer_0
  10
302.10678
  20
256.13942
  0
VERTEX
  5
1ce
  8
Layer_0
  10
299.96448
  20
264.5957
  0
VERTEX
  5
1cf
  8
Layer_0
  10
300.39954
  20
264.5957
  0
VERTEX
  5
1d0
  8
Layer_0
  10
300.39954
  20
266.89908
  0
VERTEX
  5
1d1
  8
Layer_0
  10
296.53363
  20
266.89908
  0
VERTEX
  5
1d2
  8
Layer_0
  10
296.54968
  20
264.5957
  0
SEQEND
  0
POLYLINE
  5
1d4
  8
Layer_0
  62
0
  66
1
  10
0
  20
0
  30
0
  0
VERTEX
  5
1d4
  8
Layer_0
  10
307.90546
  20
264.67624
  0
VERTEX
  5
1d5
  8
Layer_0
  10
308.82373
  20
264.67624
  0
VERTEX
  5
1d6
  8
Layer_0
  10
308.82373
  20
261.3423
  0
VERTEX
  5
1d7
  8
Layer_0
  10
306.94977
  20
266.89908
  0
VERTEX
  5
1d8
  8
Layer_0
  10
303.20215
  20
266.89908
  0
VERTEX
  5
1d9
  8
Layer_0
  10
303.20215
  20
264.62811
  0
VERTEX
  5
1da
  8
Layer_0
  10
304.16855
  20
264.62811
  0
VERTEX
  5
1db
  8
Layer_0
  10
304.16855
  20
256.23601
  0
VERTEX
  5
1dc
  8
Layer_0
  10
303.20215
  20
256.23601
  0
VERTEX
  5
1dd
  8
Layer_0
  10
303.20215
  20
253.90054
  0
VERTEX
  5
1de
  8
Layer_0
  10
307.4707
  20
253.90054
  0
VERTEX
  5
1df
  8
Layer_0
  10
307.4707
  20
256.23601
  0
VERTEX
  5
1e0
  8
Layer_0
  10
306.68143
  20
256.23601
  0
VERTEX
  5
1e1
  8
Layer_0
  10
306.68143
  20
260.55301
  0
VERTEX
  5
1e2
  8
Layer_0
  10
308.83978
  20
253.90054
  0
VERTEX
  5
1e3
  8
Layer_0
  10
312.35114
  20
253.90054
  0
VERTEX
  5
1e4
  8
Layer_0
  10
312.35114
  20
256.23601
  0
VERTEX
  5
1e5
  8
Layer_0
  10
311.4332
  20
256.23601
  0
VERTEX
  5
1e6
  8
Layer_0
  10
311.4332
  20
264.62811
  0
VERTEX
  5
1e7
  8
Layer_0
  10
312.35114
  20
264.62811
  0
VERTEX
  5
1e8
  8
Layer_0
  10
312.35114
  20
266.89908
  0
VERTEX
  5
1e9
  8
Layer_0
  10
307.90546
  20
266.89908
  0
VERTEX
  5
1ea
  8
Layer_0
  10
307.90546
  20
264.67624
  0
SEQEND
  0
POLYLINE
  5
1ec
  8
Layer_0
  62
0
  66
1
  10
0
  20
0
  30
0
  0
VERTEX
  5
1ec
  8
Layer_0
  10
314.7511
  20
264.5957
  0
VERTEX
  5
1ed
  8
Layer_0
  10
315.31482
  20
264.5957
  0
VERTEX
  5
1ee
  8
Layer_0
  10
313.366
  20
256.13942
  0
VERTEX
  5
1ef
  8
Layer_0
  10
312.89883
  20
256.13942
  0
VERTEX
  5
1f0
  8
Layer_0
  10
312.89883
  20
253.90054
  0
VERTEX
  5
1f1
  8
Layer_0
  10
316.28152
  20
253.90054
  0
VERTEX
  5
1f2
  8
Layer_0
  10
316.28152
  20
256.13942
  0
VERTEX
  5
1f3
  8
Layer_0
  10
315.7175
  20
256.13942
  0
VERTEX
  5
1f4
  8
Layer_0
  10
315.91095
  20
256.88026
  0
VERTEX
  5
1f5
  8
Layer_0
  10
317.73114
  20
256.88026
  0
VERTEX
  5
1f6
  8
Layer_0
  10
317.90823
  20
256.13942
  0
VERTEX
  5
1f7
  8
Layer_0
  10
317.31241
  20
256.13942
  0
VERTEX
  5
1f8
  8
Layer_0
  10
317.31241
  20
253.90054
  0
VERTEX
  5
1f9
  8
Layer_0
  10
320.77533
  20
253.90054
  0
VERTEX
  5
1fa
  8
Layer_0
  10
320.77533
  20
256.13942
  0
VERTEX
  5
1fb
  8
Layer_0
  10
320.3082
  20
256.13942
  0
VERTEX
  5
1fc
  8
Layer_0
  10
318.16589
  20
264.5957
  0
VERTEX
  5
1fd
  8
Layer_0
  10
318.60095
  20
264.5957
  0
VERTEX
  5
1fe
  8
Layer_0
  10
318.60095
  20
266.89908
  0
VERTEX
  5
1ff
  8
Layer_0
  10
314.73505
  20
266.89908
  0
VERTEX
  5
200
  8
Layer_0
  10
314.7511
  20
264.5957
  0
SEQEND
  0
POLYLINE
  5
202
  8
Layer_0
  62
0
  66
1
  10
0
  20
0
  30
0
  0
VERTEX
  5
202
  8
Layer_0
  10
271.71216
  20
258.6199
  0
VERTEX
  5
203
  8
Layer_0
  10
270.69733
  20
258.6199
  0
VERTEX
  5
204
  8
Layer_0
  10
271.21292
  20
260.63354
  0
VERTEX
  5
205
  8
Layer_0
  10
271.71216
  20
258.6199
  0
SEQEND
  0
POLYLINE
  5
207
  8
Layer_0
  62
0
  66
1
  10
0
  20
0
  30
0
  0
VERTEX
  5
207
  8
Layer_0
  10
299.09464
  20
258.6199
  0
VERTEX
  5
208
  8
Layer_0
  10
298.08011
  20
258.6199
  0
VERTEX
  5
209
  8
Layer_0
  10
298.5954
  20
260.63354
  0
VERTEX
  5
20a
  8
Layer_0
  10
299.09464
  20
258.6199
  0
SEQEND
  0
POLYLINE
  5
20c
  8
Layer_0
  62
0
  70
1
  66
1
  10
0
  20
0
  30
0
  0
VERTEX
  5
20c
  8
Layer_0
  10
317.29605
  20
258.6199
  0
VERTEX
  5
20d
  8
Layer_0
  10
316.28152
  20
258.6199
  0
VERTEX
  5
20e
  8
Layer_0
  10
316.79681
  20
260.63354
  0
SEQEND
  0
POLYLINE
  5
210
  8
Layer_0
  62
0
  66
1
  10
0
  20
0
  30
0
  0
VERTEX
  5
210
  8
Layer_0
  10
302.54736
  20
263.97356
  0
VERTEX
  5
211
  8
Layer_0
  10
303.51379
  20
263.97356
  0
VERTEX
  5
212
  8
Layer_0
  10
303.51379
  20
256.89073
  0
VERTEX
  5
213
  8
Layer_0
  10
302.59143
  20
256.89073
  0
VERTEX
  5
214
  8
Layer_0
  10
300.80554
  20
263.94115
  0
VERTEX
  5
215
  8
Layer_0
  10
301.05405
  20
263.94115
  0
VERTEX
  5
216
  8
Layer_0
  10
301.05405
  20
267.55382
  0
VERTEX
  5
217
  8
Layer_0
  10
295.87445
  20
267.55382
  0
VERTEX
  5
218
  8
Layer_0
  10
295.89963
  20
263.94115
  0
VERTEX
  5
219
  8
Layer_0
  10
296.29095
  20
263.94115
  0
VERTEX
  5
21a
  8
Layer_0
  10
294.64349
  20
256.79416
  0
VERTEX
  5
21b
  8
Layer_0
  10
294.04263
  20
256.79416
  0
VERTEX
  5
21c
  8
Layer_0
  10
294.04263
  20
253.24599
  0
VERTEX
  5
21d
  8
Layer_0
  10
308.12524
  20
253.24599
  0
VERTEX
  5
21e
  8
Layer_0
  10
308.12524
  20
253.9818
  0
VERTEX
  5
21f
  8
Layer_0
  10
308.36401
  20
253.24599
  0
VERTEX
  5
220
  8
Layer_0
  10
321.42987
  20
253.24599
  0
VERTEX
  5
221
  8
Layer_0
  10
321.42987
  20
256.79416
  0
VERTEX
  5
222
  8
Layer_0
  10
320.81738
  20
256.79416
  0
VERTEX
  5
223
  8
Layer_0
  10
319.00696
  20
263.94115
  0
VERTEX
  5
224
  8
Layer_0
  10
319.25546
  20
263.94115
  0
VERTEX
  5
225
  8
Layer_0
  10
319.25546
  20
267.55382
  0
VERTEX
  5
226
  8
Layer_0
  10
314.07587
  20
267.55382
  0
VERTEX
  5
227
  8
Layer_0
  10
314.10104
  20
263.94115
  0
VERTEX
  5
228
  8
Layer_0
  10
314.49207
  20
263.94115
  0
VERTEX
  5
229
  8
Layer_0
  10
312.86725
  20
256.89073
  0
VERTEX
  5
22a
  8
Layer_0
  10
312.08771
  20
256.89073
  0
VERTEX
  5
22b
  8
Layer_0
  10
312.08771
  20
263.97356
  0
VERTEX
  5
22c
  8
Layer_0
  10
313.00568
  20
263.97356
  0
VERTEX
  5
22d
  8
Layer_0
  10
313.00568
  20
267.55382
  0
VERTEX
  5
22e
  8
Layer_0
  10
302.54736
  20
267.55382
  0
VERTEX
  5
22f
  8
Layer_0
  10
302.54736
  20
263.97356
  0
SEQEND
  0
POLYLINE
  5
231
  8
Layer_0
  62
0
  66
1
  10
0
  20
0
  30
0
  0
VERTEX
  5
231
  8
Layer_0
  10
280.74274
  20
253.9818
  0
VERTEX
  5
232
  8
Layer_0
  10
280.98151
  20
253.24599
  0
VERTEX
  5
233
  8
Layer_0
  10
285.62317
  20
253.24599
  0
VERTEX
  5
234
  8
Layer_0
  10
285.62317
  20
256.89073
  0
VERTEX
  5
235
  8
Layer_0
  10
284.7049
  20
256.89073
  0
VERTEX
  5
236
  8
Layer_0
  10
284.7049
  20
263.97356
  0
VERTEX
  5
237
  8
Layer_0
  10
284.82916
  20
263.97356
  0
VERTEX
  5
238
  8
Layer_0
  10
284.82916
  20
262.37894
  0
VERTEX
  5
239
  8
Layer_0
  10
287.74472
  20
262.37894
  0
VERTEX
  5
23a
  8
Layer_0
  10
287.74472
  20
256.82657
  0
VERTEX
  5
23b
  8
Layer_0
  10
286.89093
  20
256.82657
  0
VERTEX
  5
23c
  8
Layer_0
  10
286.89093
  20
253.24599
  0
VERTEX
  5
23d
  8
Layer_0
  10
292.53329
  20
253.24599
  0
VERTEX
  5
23e
  8
Layer_0
  10
292.53329
  20
256.82657
  0
VERTEX
  5
23f
  8
Layer_0
  10
291.63107
  20
256.82657
  0
VERTEX
  5
240
  8
Layer_0
  10
291.63107
  20
262.37894
  0
VERTEX
  5
241
  8
Layer_0
  10
294.5466
  20
262.37894
  0
VERTEX
  5
242
  8
Layer_0
  10
294.5466
  20
267.50569
  0
VERTEX
  5
243
  8
Layer_0
  10
285.62317
  20
267.50569
  0
VERTEX
  5
244
  8
Layer_0
  10
285.62317
  20
267.55382
  0
VERTEX
  5
245
  8
Layer_0
  10
275.16489
  20
267.55382
  0
VERTEX
  5
246
  8
Layer_0
  10
275.16489
  20
263.97356
  0
VERTEX
  5
247
  8
Layer_0
  10
276.13129
  20
263.97356
  0
VERTEX
  5
248
  8
Layer_0
  10
276.13129
  20
256.89073
  0
VERTEX
  5
249
  8
Layer_0
  10
275.20892
  20
256.89073
  0
VERTEX
  5
24a
  8
Layer_0
  10
273.42303
  20
263.94115
  0
VERTEX
  5
24b
  8
Layer_0
  10
273.67157
  20
263.94115
  0
VERTEX
  5
24c
  8
Layer_0
  10
273.67157
  20
267.55382
  0
VERTEX
  5
24d
  8
Layer_0
  10
268.49197
  20
267.55382
  0
VERTEX
  5
24e
  8
Layer_0
  10
268.51712
  20
263.94115
  0
VERTEX
  5
24f
  8
Layer_0
  10
268.90817
  20
263.94115
  0
VERTEX
  5
250
  8
Layer_0
  10
267.26102
  20
256.79416
  0
VERTEX
  5
251
  8
Layer_0
  10
267.26068
  20
256.79416
  0
VERTEX
  5
252
  8
Layer_0
  10
267.26068
  20
260.71133
  0
VERTEX
  5
253
  8
Layer_0
  10
265.68527
  20
262.28677
  0
VERTEX
  5
254
  8
Layer_0
  10
261.78412
  20
262.28677
  0
VERTEX
  5
255
  8
Layer_0
  10
261.78412
  20
263.90907
  0
VERTEX
  5
256
  8
Layer_0
  10
263.40643
  20
263.90907
  0
VERTEX
  5
257
  8
Layer_0
  10
263.40643
  20
262.41103
  0
VERTEX
  5
258
  8
Layer_0
  10
267.30914
  20
262.41103
  0
VERTEX
  5
259
  8
Layer_0
  10
267.30914
  20
265.84564
  0
VERTEX
  5
25a
  8
Layer_0
  10
265.58713
  20
267.55382
  0
VERTEX
  5
25b
  8
Layer_0
  10
259.51285
  20
267.55382
  0
VERTEX
  5
25c
  8
Layer_0
  10
257.92987
  20
266.03186
  0
VERTEX
  5
25d
  8
Layer_0
  10
257.92987
  20
260.21587
  0
VERTEX
  5
25e
  8
Layer_0
  10
259.53802
  20
258.64201
  0
VERTEX
  5
25f
  8
Layer_0
  10
263.40643
  20
258.64201
  0
VERTEX
  5
260
  8
Layer_0
  10
263.40643
  20
256.81021
  0
VERTEX
  5
261
  8
Layer_0
  10
261.78412
  20
256.81021
  0
VERTEX
  5
262
  8
Layer_0
  10
261.78412
  20
258.38878
  0
VERTEX
  5
263
  8
Layer_0
  10
257.92987
  20
258.38878
  0
VERTEX
  5
264
  8
Layer_0
  10
257.92987
  20
255.01237
  0
VERTEX
  5
265
  8
Layer_0
  10
259.71701
  20
253.24599
  0
VERTEX
  5
266
  8
Layer_0
  10
265.63431
  20
253.24599
  0
VERTEX
  5
267
  8
Layer_0
  10
266.66016
  20
254.25832
  0
VERTEX
  5
268
  8
Layer_0
  10
266.66016
  20
253.24599
  0
VERTEX
  5
269
  8
Layer_0
  10
280.74274
  20
253.24599
  0
VERTEX
  5
26a
  8
Layer_0
  10
280.74274
  20
253.9818
  0
SEQEND
  0
POLYLINE
  5
26c
  8
Layer_0
  62
0
  66
1
  10
0
  20
0
  30
0
  0
VERTEX
  5
26c
  8
Layer_0
  10
257.93857
  20
235.9137
  0
VERTEX
  5
26d
  8
Layer_0
  10
262.84335
  20
235.9137
  0
VERTEX
  5
26e
  8
Layer_0
  10
263.24472
  20
237.4176
  0
VERTEX
  5
26f
  8
Layer_0
  10
260.5538
  20
237.4176
  0
VERTEX
  5
270
  8
Layer_0
  10
260.77109
  20
238.21155
  0
VERTEX
  5
271
  8
Layer_0
  10
263.48691
  20
238.21155
  0
VERTEX
  5
272
  8
Layer_0
  10
263.88828
  20
239.73254
  0
VERTEX
  5
273
  8
Layer_0
  10
258.95761
  20
239.73254
  0
VERTEX
  5
274
  8
Layer_0
  10
257.93857
  20
235.9137
  0
SEQEND
  0
POLYLINE
  5
276
  8
Layer_0
  62
0
  66
1
  10
0
  20
0
  30
0
  0
VERTEX
  5
276
  8
Layer_0
  10
263.73788
  20
235.9137
  0
VERTEX
  5
277
  8
Layer_0
  10
265.65146
  20
235.9137
  0
VERTEX
  5
278
  8
Layer_0
  10
266.6207
  20
239.34778
  0
VERTEX
  5
279
  8
Layer_0
  10
267.84091
  20
238.23401
  0
VERTEX
  5
27a
  8
Layer_0
  10
267.19736
  20
235.9137
  0
VERTEX
  5
27b
  8
Layer_0
  10
269.29453
  20
235.9137
  0
VERTEX
  5
27c
  8
Layer_0
  10
270.31406
  20
239.73254
  0
VERTEX
  5
27d
  8
Layer_0
  10
264.78232
  20
239.73254
  0
VERTEX
  5
27e
  8
Layer_0
  10
263.73788
  20
235.9137
  0
SEQEND
  0
POLYLINE
  5
280
  8
Layer_0
  62
0
  66
1
  10
0
  20
0
  30
0
  0
VERTEX
  5
280
  8
Layer_0
  10
270.87411
  20
237.88977
  42
0.26436891
  0
VERTEX
  5
281
  8
Layer_0
  10
271.15781
  20
236.38
  42
0.15750277
  0
VERTEX
  5
282
  8
Layer_0
  10
272.04745
  20
235.96545
  42
0.04426683
  0
VERTEX
  5
283
  8
Layer_0
  10
272.70419
  20
235.9137
  42
0.019558225
  0
VERTEX
  5
284
  8
Layer_0
  10
274.04355
  20
235.92688
  42
0.20623904
  0
VERTEX
  5
285
  8
Layer_0
  10
275.82089
  20
236.7677
  42
0.10982836
  0
VERTEX
  5
286
  8
Layer_0
  10
276.38095
  20
237.88196
  0
VERTEX
  5
287
  8
Layer_0
  10
276.82382
  20
239.52356
  0
VERTEX
  5
288
  8
Layer_0
  10
274.1832
  20
239.52356
  0
VERTEX
  5
289
  8
Layer_0
  10
273.29745
  20
238.11145
  0
VERTEX
  5
28a
  8
Layer_0
  10
274.53427
  20
238.11145
  42
-0.20679812
  0
VERTEX
  5
28b
  8
Layer_0
  10
274.29794
  20
237.62903
  0
VERTEX
  5
28c
  8
Layer_0
  10
274.1832
  20
237.57629
  0
VERTEX
  5
28d
  8
Layer_0
  10
272.99667
  20
237.57629
  42
-0.2118928
  0
VERTEX
  5
28e
  8
Layer_0
  10
272.8508
  20
237.6936
  42
-0.21186774
  0
VERTEX
  5
28f
  8
Layer_0
  10
272.83994
  20
237.88049
  0
VERTEX
  5
290
  8
Layer_0
  10
272.87119
  20
238.00452
  0
VERTEX
  5
291
  8
Layer_0
  10
273.36435
  20
239.73254
  0
VERTEX
  5
292
  8
Layer_0
  10
271.39218
  20
239.73254
  0
VERTEX
  5
293
  8
Layer_0
  10
270.87411
  20
237.88977
  0
SEQEND
  0
POLYLINE
  5
295
  8
Layer_0
  62
0
  66
1
  10
0
  20
0
  30
0
  0
VERTEX
  5
295
  8
Layer_0
  10
276.91562
  20
235.9137
  0
VERTEX
  5
296
  8
Layer_0
  10
278.94638
  20
235.9137
  0
VERTEX
  5
297
  8
Layer_0
  10
279.99081
  20
239.73254
  0
VERTEX
  5
298
  8
Layer_0
  10
277.97714
  20
239.73254
  0
VERTEX
  5
299
  8
Layer_0
  10
276.91562
  20
235.9137
  0
SEQEND
  0
POLYLINE
  5
29b
  8
Layer_0
  62
0
  66
1
  10
0
  20
0
  30
0
  0
VERTEX
  5
29b
  8
Layer_0
  10
279.86533
  20
235.9137
  0
VERTEX
  5
29c
  8
Layer_0
  10
281.7789
  20
235.9137
  0
VERTEX
  5
29d
  8
Layer_0
  10
282.74863
  20
239.34778
  0
VERTEX
  5
29e
  8
Layer_0
  10
283.96835
  20
238.23401
  0
VERTEX
  5
29f
  8
Layer_0
  10
283.32529
  20
235.9137
  0
VERTEX
  5
2a0
  8
Layer_0
  10
285.42245
  20
235.9137
  0
VERTEX
  5
2a1
  8
Layer_0
  10
286.44199
  20
239.73254
  0
VERTEX
  5
2a2
  8
Layer_0
  10
280.91025
  20
239.73254
  0
VERTEX
  5
2a3
  8
Layer_0
  10
279.86533
  20
235.9137
  0
SEQEND
  0
POLYLINE
  5
2a5
  8
Layer_0
  62
0
  66
1
  10
0
  20
0
  30
0
  0
VERTEX
  5
2a5
  8
Layer_0
  10
286.60068
  20
235.9137
  0
VERTEX
  5
2a6
  8
Layer_0
  10
291.50595
  20
235.9137
  0
VERTEX
  5
2a7
  8
Layer_0
  10
291.90732
  20
237.4176
  0
VERTEX
  5
2a8
  8
Layer_0
  10
289.2164
  20
237.4176
  0
VERTEX
  5
2a9
  8
Layer_0
  10
289.43369
  20
238.21155
  0
VERTEX
  5
2aa
  8
Layer_0
  10
292.14951
  20
238.21155
  0
VERTEX
  5
2ab
  8
Layer_0
  10
292.55038
  20
239.73254
  0
VERTEX
  5
2ac
  8
Layer_0
  10
287.62021
  20
239.73254
  0
VERTEX
  5
2ad
  8
Layer_0
  10
286.60068
  20
235.9137
  0
SEQEND
  0
POLYLINE
  5
2af
  8
Layer_0
  62
0
  66
1
  10
0
  20
0
  30
0
  0
VERTEX
  5
2af
  8
Layer_0
  10
292.61728
  20
235.9137
  0
VERTEX
  5
2b0
  8
Layer_0
  10
297.52255
  20
235.9137
  0
VERTEX
  5
2b1
  8
Layer_0
  10
297.92392
  20
237.4176
  0
VERTEX
  5
2b2
  8
Layer_0
  10
295.233
  20
237.4176
  0
VERTEX
  5
2b3
  8
Layer_0
  10
295.45029
  20
238.21155
  0
VERTEX
  5
2b4
  8
Layer_0
  10
298.16611
  20
238.21155
  0
VERTEX
  5
2b5
  8
Layer_0
  10
298.56699
  20
239.73254
  0
VERTEX
  5
2b6
  8
Layer_0
  10
293.63681
  20
239.73254
  0
VERTEX
  5
2b7
  8
Layer_0
  10
292.61728
  20
235.9137
  0
SEQEND
  0
POLYLINE
  5
2b9
  8
Layer_0
  62
0
  66
1
  10
0
  20
0
  30
0
  0
VERTEX
  5
2b9
  8
Layer_0
  10
298.67587
  20
235.9137
  0
VERTEX
  5
2ba
  8
Layer_0
  10
300.62265
  20
235.9137
  0
VERTEX
  5
2bb
  8
Layer_0
  10
301.3331
  20
238.21985
  0
VERTEX
  5
2bc
  8
Layer_0
  10
303.30527
  20
238.21985
  0
VERTEX
  5
2bd
  8
Layer_0
  10
302.63681
  20
235.9137
  0
VERTEX
  5
2be
  8
Layer_0
  10
304.50839
  20
235.9137
  42
0.029486493
  0
VERTEX
  5
2bf
  8
Layer_0
  10
304.94296
  20
237.32874
  42
0.16154595
  0
VERTEX
  5
2c0
  8
Layer_0
  10
304.89365
  20
238.35706
  0
VERTEX
  5
2c1
  8
Layer_0
  10
304.80917
  20
238.50989
  0
VERTEX
  5
2c2
  8
Layer_0
  10
304.89365
  20
238.54456
  42
0.15855583
  0
VERTEX
  5
2c3
  8
Layer_0
  10
305.72519
  20
239.48059
  0
VERTEX
  5
2c4
  8
Layer_0
  10
305.7872
  20
239.73254
  0
VERTEX
  5
2c5
  8
Layer_0
  10
299.7955
  20
239.73254
  0
VERTEX
  5
2c6
  8
Layer_0
  10
298.67587
  20
235.9137
  0
SEQEND
  0
POLYLINE
  5
2c8
  8
Layer_0
  62
0
  66
1
  10
0
  20
0
  30
0
  0
VERTEX
  5
2c8
  8
Layer_0
  10
305.32724
  20
235.9137
  0
VERTEX
  5
2c9
  8
Layer_0
  10
307.358
  20
235.9137
  0
VERTEX
  5
2ca
  8
Layer_0
  10
308.40244
  20
239.73254
  0
VERTEX
  5
2cb
  8
Layer_0
  10
306.38876
  20
239.73254
  0
VERTEX
  5
2cc
  8
Layer_0
  10
305.32724
  20
235.9137
  0
SEQEND
  0
POLYLINE
  5
2ce
  8
Layer_0
  62
0
  66
1
  10
0
  20
0
  30
0
  0
VERTEX
  5
2ce
  8
Layer_0
  10
308.19345
  20
235.9137
  0
VERTEX
  5
2cf
  8
Layer_0
  10
310.10751
  20
235.9137
  0
VERTEX
  5
2d0
  8
Layer_0
  10
311.07675
  20
239.34778
  0
VERTEX
  5
2d1
  8
Layer_0
  10
312.29648
  20
238.23401
  0
VERTEX
  5
2d2
  8
Layer_0
  10
311.65341
  20
235.9137
  0
VERTEX
  5
2d3
  8
Layer_0
  10
313.75058
  20
235.9137
  0
VERTEX
  5
2d4
  8
Layer_0
  10
314.77011
  20
239.73254
  0
VERTEX
  5
2d5
  8
Layer_0
  10
309.23837
  20
239.73254
  0
VERTEX
  5
2d6
  8
Layer_0
  10
308.19345
  20
235.9137
  0
SEQEND
  0
POLYLINE
  5
2d8
  8
Layer_0
  62
0
  66
1
  10
0
  20
0
  30
0
  0
VERTEX
  5
2d8
  8
Layer_0
  10
314.9957
  20
237.88977
  0
VERTEX
  5
2d9
  8
Layer_0
  10
314.9332
  20
237.6012
  42
0.27340383
  0
VERTEX
  5
2da
  8
Layer_0
  10
315.44882
  20
236.23743
  42
0.14463398
  0
VERTEX
  5
2db
  8
Layer_0
  10
316.82578
  20
235.9137
  42
0.019586745
  0
VERTEX
  5
2dc
  8
Layer_0
  10
318.16513
  20
235.92688
  42
0.20625541
  0
VERTEX
  5
2dd
  8
Layer_0
  10
319.94296
  20
236.7677
  42
0.10946146
  0
VERTEX
  5
2de
  8
Layer_0
  10
320.50253
  20
237.88196
  0
VERTEX
  5
2df
  8
Layer_0
  10
320.9454
  20
239.52356
  0
VERTEX
  5
2e0
  8
Layer_0
  10
318.30478
  20
239.52356
  0
VERTEX
  5
2e1
  8
Layer_0
  10
317.41904
  20
238.11145
  0
VERTEX
  5
2e2
  8
Layer_0
  10
318.65585
  20
238.11145
  42
-0.20600788
  0
VERTEX
  5
2e3
  8
Layer_0
  10
318.42001
  20
237.62903
  0
VERTEX
  5
2e4
  8
Layer_0
  10
318.30478
  20
237.57629
  0
VERTEX
  5
2e5
  8
Layer_0
  10
317.11826
  20
237.57629
  42
-0.21189273
  0
VERTEX
  5
2e6
  8
Layer_0
  10
316.97238
  20
237.6936
  42
-0.2118329
  0
VERTEX
  5
2e7
  8
Layer_0
  10
316.96152
  20
237.88049
  0
VERTEX
  5
2e8
  8
Layer_0
  10
316.99277
  20
238.00452
  0
VERTEX
  5
2e9
  8
Layer_0
  10
317.48593
  20
239.73254
  0
VERTEX
  5
2ea
  8
Layer_0
  10
315.51376
  20
239.73254
  0
VERTEX
  5
2eb
  8
Layer_0
  10
314.9957
  20
237.88977
  0
SEQEND
  0
POLYLINE
  5
2ed
  8
Layer_0
  62
0
  66
1
  10
0
  20
0
  30
0
  0
VERTEX
  5
2ed
  8
Layer_0
  10
258.61533
  20
240.27551
  0
VERTEX
  5
2ee
  8
Layer_0
  10
264.06357
  20
240.27551
  0
VERTEX
  5
2ef
  8
Layer_0
  10
264.43124
  20
241.67932
  0
VERTEX
  5
2f0
  8
Layer_0
  10
259.51767
  20
241.67932
  0
VERTEX
  5
2f1
  8
Layer_0
  10
258.61533
  20
240.27551
  0
SEQEND
  0
POLYLINE
  5
2f3
  8
Layer_0
  62
0
  66
1
  10
0
  20
0
  30
0
  0
VERTEX
  5
2f3
  8
Layer_0
  10
278.10214
  20
240.27551
  0
VERTEX
  5
2f4
  8
Layer_0
  10
280.1163
  20
240.27551
  0
VERTEX
  5
2f5
  8
Layer_0
  10
280.50058
  20
241.67932
  0
VERTEX
  5
2f6
  8
Layer_0
  10
278.50351
  20
241.67932
  0
VERTEX
  5
2f7
  8
Layer_0
  10
278.10214
  20
240.27551
  0
SEQEND
  0
POLYLINE
  5
2f9
  8
Layer_0
  62
0
  66
1
  10
0
  20
0
  30
0
  0
VERTEX
  5
2f9
  8
Layer_0
  10
287.27744
  20
240.27551
  0
VERTEX
  5
2fa
  8
Layer_0
  10
292.72617
  20
240.27551
  0
VERTEX
  5
2fb
  8
Layer_0
  10
293.09384
  20
241.67932
  0
VERTEX
  5
2fc
  8
Layer_0
  10
288.18027
  20
241.67932
  0
VERTEX
  5
2fd
  8
Layer_0
  10
287.27744
  20
240.27551
  0
SEQEND
  0
POLYLINE
  5
2ff
  8
Layer_0
  62
0
  66
1
  10
0
  20
0
  30
0
  0
VERTEX
  5
2ff
  8
Layer_0
  10
293.29404
  20
240.27551
  0
VERTEX
  5
300
  8
Layer_0
  10
298.74277
  20
240.27551
  0
VERTEX
  5
301
  8
Layer_0
  10
299.11044
  20
241.67932
  0
VERTEX
  5
302
  8
Layer_0
  10
294.19687
  20
241.67932
  0
VERTEX
  5
303
  8
Layer_0
  10
293.29404
  20
240.27551
  0
SEQEND
  0
POLYLINE
  5
305
  8
Layer_0
  62
0
  66
1
  10
0
  20
0
  30
0
  0
VERTEX
  5
305
  8
Layer_0
  10
306.51425
  20
240.27551
  0
VERTEX
  5
306
  8
Layer_0
  10
308.52792
  20
240.27551
  0
VERTEX
  5
307
  8
Layer_0
  10
308.9122
  20
241.67932
  0
VERTEX
  5
308
  8
Layer_0
  10
306.91513
  20
241.67932
  0
VERTEX
  5
309
  8
Layer_0
  10
306.51425
  20
240.27551
  0
SEQEND
  0
POLYLINE
  5
30b
  8
Layer_0
  62
0
  66
1
  10
0
  20
0
  30
0
  0
VERTEX
  5
30b
  8
Layer_0
  10
268.47568
  20
240.5011
  0
VERTEX
  5
30c
  8
Layer_0
  10
267.23886
  20
241.67932
  0
VERTEX
  5
30d
  8
Layer_0
  10
265.34189
  20
241.67932
  0
VERTEX
  5
30e
  8
Layer_0
  10
264.94931
  20
240.28381
  0
VERTEX
  5
30f
  8
Layer_0
  10
270.42294
  20
240.28381
  0
VERTEX
  5
310
  8
Layer_0
  10
270.84042
  20
241.67932
  0
VERTEX
  5
311
  8
Layer_0
  10
268.77646
  20
241.67932
  0
VERTEX
  5
312
  8
Layer_0
  10
268.47568
  20
240.5011
  0
SEQEND
  0
POLYLINE
  5
314
  8
Layer_0
  62
0
  66
1
  10
0
  20
0
  30
0
  0
VERTEX
  5
314
  8
Layer_0
  10
272.84042
  20
241.64954
  42
0.17794135
  0
VERTEX
  5
315
  8
Layer_0
  10
271.73886
  20
240.75598
  42
0.067093574
  0
VERTEX
  5
316
  8
Layer_0
  10
271.51767
  20
240.28381
  0
VERTEX
  5
317
  8
Layer_0
  10
276.97421
  20
240.28381
  0
VERTEX
  5
318
  8
Layer_0
  10
277.31699
  20
241.67932
  0
VERTEX
  5
319
  8
Layer_0
  10
273.09677
  20
241.67932
  0
VERTEX
  5
31a
  8
Layer_0
  10
272.84042
  20
241.64954
  0
SEQEND
  0
POLYLINE
  5
31c
  8
Layer_0
  62
0
  66
1
  10
0
  20
0
  30
0
  0
VERTEX
  5
31c
  8
Layer_0
  10
284.60361
  20
240.5011
  0
VERTEX
  5
31d
  8
Layer_0
  10
283.36679
  20
241.67932
  0
VERTEX
  5
31e
  8
Layer_0
  10
281.46982
  20
241.67932
  0
VERTEX
  5
31f
  8
Layer_0
  10
281.07724
  20
240.28381
  0
VERTEX
  5
320
  8
Layer_0
  10
286.55087
  20
240.28381
  0
VERTEX
  5
321
  8
Layer_0
  10
286.96835
  20
241.67932
  0
VERTEX
  5
322
  8
Layer_0
  10
284.90439
  20
241.67932
  0
VERTEX
  5
323
  8
Layer_0
  10
284.60361
  20
240.5011
  0
SEQEND
  0
POLYLINE
  5
325
  8
Layer_0
  62
0
  66
1
  10
0
  20
0
  30
0
  0
VERTEX
  5
325
  8
Layer_0
  10
312.93173
  20
240.5011
  0
VERTEX
  5
326
  8
Layer_0
  10
311.69492
  20
241.67932
  0
VERTEX
  5
327
  8
Layer_0
  10
309.79794
  20
241.67932
  0
VERTEX
  5
328
  8
Layer_0
  10
309.40536
  20
240.28381
  0
VERTEX
  5
329
  8
Layer_0
  10
314.879
  20
240.28381
  0
VERTEX
  5
32a
  8
Layer_0
  10
315.29648
  20
241.67932
  0
VERTEX
  5
32b
  8
Layer_0
  10
313.23251
  20
241.67932
  0
VERTEX
  5
32c
  8
Layer_0
  10
312.93173
  20
240.5011
  0
SEQEND
  0
POLYLINE
  5
32e
  8
Layer_0
  62
0
  66
1
  10
0
  20
0
  30
0
  0
VERTEX
  5
32e
  8
Layer_0
  10
316.96201
  20
241.64954
  0
VERTEX
  5
32f
  8
Layer_0
  10
316.71103
  20
241.56018
  42
0.18781832
  0
VERTEX
  5
330
  8
Layer_0
  10
315.63925
  20
240.28381
  0
VERTEX
  5
331
  8
Layer_0
  10
321.09579
  20
240.28381
  0
VERTEX
  5
332
  8
Layer_0
  10
321.43857
  20
241.67932
  0
VERTEX
  5
333
  8
Layer_0
  10
317.21835
  20
241.67932
  0
VERTEX
  5
334
  8
Layer_0
  10
316.96201
  20
241.64954
  0
SEQEND
  0
POLYLINE
  5
336
  8
Layer_0
  62
0
  70
1
  66
1
  10
0
  20
0
  30
0
  0
VERTEX
  5
336
  8
Layer_0
  10
299.41122
  20
240.29211
  0
VERTEX
  5
337
  8
Layer_0
  10
305.8873
  20
240.29211
  42
0.11436095
  0
VERTEX
  5
338
  8
Layer_0
  10
305.73691
  20
241.22815
  42
0.25133198
  0
VERTEX
  5
339
  8
Layer_0
  10
305.05185
  20
241.67932
  0
VERTEX
  5
33a
  8
Layer_0
  10
300.29697
  20
241.67932
  0
SEQEND
  0
ENDSEC
  0
EOF
