<?xml version="1.0" encoding="UTF-8" standalone="no"?>
<svg
   width="63.508999mm"
   height="31.646999mm"
   viewBox="-442.07013 232.44618 63.508698 31.646652"
   version="1.1"
   id="svg5"
   xmlns="http://www.w3.org/2000/svg"
   xmlns:svg="http://www.w3.org/2000/svg">
  <defs
     id="defs5" />
  <path
     style="fill:none;stroke:#000000;stroke-width:0.0499998;stroke-dasharray:none"
     d="m -438.73846,249.65429 h 0.65283 v 2.01416 h -1.58252 v -2.01416 h 0.63086 v -1.583 h -3.01074 v 1.583 h 0.63086 v 5.78858 h -0.63086 l -0.022,1.56055 h 3.03271 v -1.56055 h -0.63086 v -2.13623 h 1.58252 v 2.13623 h -0.65283 v 1.56055 h 3.02148 v -1.56055 h -0.61963 v -5.78858 h 0.61963 v -1.583 h -3.02148 z m 3.53076,0 h 0.64209 v 5.78858 h -0.64209 v 1.56055 h 3.02197 v -1.56055 h -0.63134 v -5.78858 h 0.63134 v -1.583 h -3.02197 z m 3.5752,-0.86425 v 7.37353 l 0.8413,0.83985 h 4.09522 l 0.8081,-0.80762 v -3.04395 l -0.8413,-0.85254 h -2.35743 v 1.60498 h 1.44971 v 1.53858 h -2.26904 v -5.7666 h 2.26904 v 0.90771 h 1.74902 v -1.71924 l -0.8081,-0.79345 h -4.19483 z m 9.71826,0.86425 h 0.65283 v 2.01416 h -1.58252 v -2.01416 h 0.63086 v -1.583 h -3.01074 v 1.583 h 0.63086 v 5.78858 h -0.63086 l -0.022,1.56055 h 3.03271 v -1.56055 h -0.63086 v -2.13623 h 1.58252 v 2.13623 h -0.65283 v 1.56055 h 3.02148 v -1.56055 h -0.61963 v -5.78858 h 0.61963 v -1.583 h -3.02148 z m 6.99511,-0.79541 v 3.61621 l 0.83887,0.82081 h 2.92432 v 2.1582 h -2.01416 v -1.08496 h -1.74903 v 1.68262 l 0.9629,0.95166 h 3.69677 l 0.85254,-0.84083 v -3.65283 l -0.81933,-0.81884 h -2.94385 v -2.01465 h 2.01416 v 1.02929 h 1.78222 v -1.72265 l -0.91894,-0.91162 h -3.80762 z m 5.97706,-0.0688 v 7.37353 l 0.8413,0.83985 h 3.84082 l 0.80762,-0.80762 v -2.32471 h -1.74853 v 1.57178 h -2.01465 v -5.7666 h 2.01465 v 0.90771 h 1.74853 v -1.71924 l -0.80762,-0.79345 h -3.94043 z m 9.38623,0.86425 h 0.65283 v 2.01416 h -1.58301 v -2.01416 h 0.63086 v -1.583 h -3.01025 v 1.583 h 0.63085 v 5.78858 h -0.63085 l -0.0225,1.56055 h 3.03272 v -1.56055 h -0.63086 v -2.13623 h 1.58301 v 2.13623 h -0.65283 v 1.56055 h 3.02148 v -1.56055 h -0.61963 v -5.78858 h 0.61963 v -1.583 h -3.02148 z m 3.45312,-0.7207 v 7.35156 l 0.71924,0.71827 h 3.83008 l 0.81884,-0.82911 v -7.27392 l -0.8413,-0.8291 h -3.67481 z m 5.86621,0 v 7.35156 l 0.71973,0.71827 h 3.82959 l 0.81885,-0.82911 v -7.27392 l -0.84131,-0.8291 h -3.67432 z m 5.89942,0.7207 h 0.65332 v 5.78858 h -0.65332 v 1.56055 h 5.76709 v -2.74463 h -1.69385 v 1.18408 h -1.67139 v -5.78858 h 0.62012 v -1.583 h -3.02197 z m -8.146,0.022 v 5.77783 h -1.87061 v -5.77783 z m 5.86621,0 v 5.77783 h -1.8706 v -5.77783 z"
     id="path1" />
  <path
     style="fill:none;stroke:#000000;stroke-width:0.0499998;stroke-dasharray:none"
     d="m -441.41534,234.24695 v 5.26202 l 1.22058,1.19446 h 4.25598 v 3.14111 h -2.93159 v -1.57858 h -2.54497 v 2.4484 l 1.40146,1.3851 h 5.37967 l 1.2404,-1.22404 v -5.31549 l -1.19195,-1.19195 h -4.28461 v -2.93159 h 2.93159 v 1.49804 h 2.59341 v -2.50722 l -1.33697,-1.32628 h -5.54105 z m 10.58254,1.15735 h 0.56373 l -1.94884,8.45628 h -0.46715 v 2.23888 h 3.38239 v -2.23888 h -0.56374 l 0.19347,-0.74084 h 1.82017 l 0.17711,0.74084 h -0.59613 v 2.23888 h 3.46323 v -2.23888 h -0.46715 l -2.1423,-8.45628 h 0.43506 v -2.30337 h -3.8659 z m 11.35578,-0.0805 h 0.91827 v 3.33394 l -1.87397,-5.55678 h -3.74762 v 2.27097 h 0.9664 v 8.3921 h -0.9664 v 2.33546 h 4.26857 V 243.764 h -0.78929 v -4.31701 l 2.15835,6.65247 h 3.51136 V 243.764 h -0.91826 v -8.3921 h 0.91826 v -2.27097 h -4.44567 z m 4.96096,1.64274 h 2.09417 v -1.56221 h 0.82138 v 8.42388 h -0.85378 v 2.27128 h 4.33305 v -2.27128 h -0.90222 v -8.42388 h 0.82169 v 1.56221 h 2.09386 v -3.81745 h -8.40815 z m 11.06574,-1.56221 h 0.56404 l -1.94915,8.45628 h -0.46715 v 2.23888 h 3.3827 v -2.23888 h -0.56373 l 0.19315,-0.74084 h 1.82017 l 0.17711,0.74084 h -0.59582 v 2.23888 h 3.46292 v -2.23888 h -0.46715 l -2.14231,-8.45628 h 0.43507 v -2.30337 h -3.8659 z m 11.35578,-0.0805 h 0.91826 v 3.33394 l -1.87396,-5.55678 h -3.74762 v 2.27097 h 0.9664 v 8.3921 h -0.9664 v 2.33546 h 4.26857 V 243.764 h -0.78929 v -4.31701 l 2.15835,6.65247 h 3.51136 V 243.764 h -0.91795 v -8.3921 h 0.91795 v -2.27097 h -4.44567 z m 6.84562,0.0805 h 0.56373 l -1.94884,8.45628 h -0.46715 v 2.23888 h 3.3827 v -2.23888 h -0.56405 l 0.19347,-0.74084 h 1.82017 l 0.17711,0.74084 h -0.59581 v 2.23888 h 3.46291 v -2.23888 h -0.46715 l -2.1423,-8.45628 h 0.43506 v -2.30337 h -3.8659 z m -43.03891,5.9758 h -1.01484 l 0.5156,-2.01364 z m 27.38248,0 h -1.01453 l 0.51528,-2.01364 z m 18.2014,0 h -1.01453 l 0.51529,-2.01364 z"
     id="path2" />
  <path
     style="fill:none;stroke:#000000;stroke-width:0.0499998;stroke-dasharray:none"
     d="m -397.45249,236.02636 h 0.9664 v 7.08282 h -0.92236 l -1.78588,-7.05041 h 0.24852 v -3.61267 h -5.17959 l 0.0252,3.61267 h 0.39132 l -1.64747,7.14699 h -0.60085 v 3.54817 h 14.08258 v -0.73581 l 0.23876,0.73581 H -378.57 v -3.54817 h -0.6125 l -1.81041,-7.14699 h 0.24852 v -3.61267 h -5.1796 l 0.0252,3.61267 h 0.39103 l -1.62482,7.05041 h -0.77953 v -7.08282 h 0.91795 v -3.58026 h -10.45828 z"
     id="path3" />
  <path
     style="fill:none;stroke:#000000;stroke-width:0.0499998;stroke-dasharray:none"
     d="m -419.25711,246.01812 0.23877,0.73581 h 4.64165 v -3.64475 h -0.91826 v -7.08282 h 0.12426 v 1.59462 h 2.91555 v 5.55237 h -0.85378 v 3.58058 h 5.64235 v -3.58058 h -0.90222 v -5.55237 h 2.91554 v -5.12674 h -8.92344 v -0.0481 h -10.45828 v 3.58026 h 0.9664 v 7.08281 h -0.92235 l -1.78588,-7.0504 h 0.24851 v -3.61267 h -5.17959 l 0.0252,3.61267 h 0.39103 l -1.64716,7.14698 h -3e-4 v -3.91717 l -1.57544,-1.57543 h -3.90112 v -1.6223 h 1.62227 v 1.49804 h 3.9027 v -3.43461 l -1.72202,-1.70818 h -6.07426 l -1.58298,1.52195 v 5.81599 l 1.60814,1.57386 h 3.86842 v 1.83181 h -1.6223 v -1.57857 h -3.85426 v 3.3764 l 1.78714,1.76638 h 5.91729 l 1.02585,-1.01232 v 1.01232 h 14.08258 z"
     id="path4" />
  <path
     style="fill:none;stroke:#000000;stroke-width:0.0499998;stroke-dasharray:none"
     d="m -442.06143,264.0863 h 4.90478 l 0.40137,-1.50391 h -2.69092 l 0.21729,-0.79394 h 2.71582 l 0.40136,-1.521 h -4.93066 z m 5.79931,0 h 1.91358 l 0.96924,-3.43408 1.22021,1.11377 -0.64355,2.32031 h 2.09716 l 1.01953,-3.81885 h -5.53173 z m 7.13623,-1.97607 c -0.17815,0.51814 -0.0704,1.09163 0.28369,1.50976 0.24566,0.22817 0.55694,0.37321 0.88965,0.41455 0.21696,0.0366 0.43673,0.0539 0.65674,0.0518 0.44646,0.0131 0.89325,0.009 1.33936,-0.0132 0.6827,-0.024 1.3258,-0.32822 1.77734,-0.84082 0.26602,-0.32593 0.45721,-0.70632 0.56006,-1.11426 l 0.44287,-1.6416 h -2.64062 l -0.88575,1.41211 h 1.23682 c -0.009,0.18654 -0.0944,0.36105 -0.23633,0.48242 l -0.11474,0.0527 h -1.18653 c -0.063,-0.0168 -0.11602,-0.0593 -0.14588,-0.11731 -0.0299,-0.058 -0.0338,-0.12585 -0.0109,-0.18689 l 0.0312,-0.12402 0.49317,-1.72803 h -1.97217 z m 6.04151,1.97607 h 2.03076 l 1.04443,-3.81885 h -2.01367 z m 2.9497,0 h 1.91358 l 0.96973,-3.43408 1.21972,1.11377 -0.64306,2.32031 h 2.09716 l 1.01953,-3.81885 h -5.53173 z m 6.73536,0 h 4.90527 l 0.40137,-1.50391 h -2.69092 l 0.21728,-0.79394 h 2.71582 l 0.40088,-1.521 h -4.93017 z m 6.0166,0 h 4.90527 l 0.40137,-1.50391 h -2.69092 l 0.21729,-0.79394 h 2.71582 l 0.40087,-1.521 h -4.93017 z m 6.05859,0 h 1.94678 l 0.71045,-2.30615 h 1.97217 l -0.66846,2.30615 h 1.87158 c 0.17254,-0.46271 0.31766,-0.93523 0.43457,-1.41504 0.0947,-0.33902 0.0774,-0.69991 -0.0493,-1.02832 l -0.0845,-0.15283 0.0845,-0.0347 c 0.36929,-0.21635 0.66021,-0.54383 0.83154,-0.93603 l 0.062,-0.25196 h -5.99169 z m 6.65137,0 h 2.03076 l 1.04443,-3.81885 h -2.01367 z m 2.86621,0 h 1.91406 l 0.96924,-3.43408 1.21973,1.11377 -0.64307,2.32031 h 2.09717 l 1.01953,-3.81885 h -5.53174 z m 6.80225,-1.97607 -0.0625,0.28857 c -0.0896,0.51496 0.10773,1.03691 0.51562,1.36377 0.41827,0.23848 0.89624,0.35086 1.37695,0.32373 0.44646,0.0131 0.89324,0.009 1.33936,-0.0132 0.68286,-0.0239 1.32615,-0.32813 1.77783,-0.84082 0.2656,-0.32613 0.4566,-0.70646 0.55957,-1.11426 l 0.44287,-1.6416 h -2.64062 l -0.88574,1.41211 h 1.23681 c -0.009,0.1864 -0.0943,0.36081 -0.23584,0.48242 l -0.11523,0.0527 h -1.18653 c -0.063,-0.0168 -0.11601,-0.0593 -0.14587,-0.11731 -0.0299,-0.058 -0.0338,-0.12585 -0.0109,-0.18689 l 0.0312,-0.12402 0.49316,-1.72803 h -1.97216 z m -56.38038,-2.38575 h 5.44825 l 0.36767,-1.4038 h -4.91357 z m 19.48682,0 h 2.01416 l 0.38428,-1.4038 h -1.99707 z m 9.17529,0 h 5.44873 l 0.36768,-1.4038 h -4.91357 z m 6.01661,0 h 5.44873 l 0.36767,-1.4038 h -4.91357 z m 13.22021,0 h 2.01367 l 0.38428,-1.4038 h -1.99707 z m -38.03857,-0.22558 -1.23682,-1.17822 h -1.89697 l -0.39258,1.3955 h 5.47363 l 0.41748,-1.3955 h -2.06396 z m 4.36474,-1.14844 c -0.46179,0.15782 -0.85188,0.47425 -1.10156,0.89356 -0.0945,0.14678 -0.16891,0.30559 -0.22119,0.47216 h 5.45654 l 0.34277,-1.3955 h -4.22021 z m 11.76319,1.14844 -1.23682,-1.17822 h -1.89697 l -0.39258,1.3955 h 5.47363 l 0.41748,-1.3955 h -2.06396 z m 28.32812,0 -1.23682,-1.17822 h -1.89697 l -0.39258,1.3955 h 5.47364 l 0.41748,-1.3955 h -2.06397 z m 4.03027,-1.14844 -0.25097,0.0894 c -0.5046,0.27631 -0.88689,0.73158 -1.07178,1.27636 h 5.45654 l 0.34278,-1.3955 h -4.22022 z m -17.55078,1.35742 h 6.47608 c 0.0219,-0.31939 -0.0295,-0.63957 -0.15039,-0.93603 -0.1384,-0.2558 -0.3954,-0.42506 -0.68506,-0.45117 h -4.75488 z"
     id="path5" />
</svg>
